<?xml version="1.0" standalone="no"?><!-- Generator: Gravit.io --><svg xmlns="http://www.w3.org/2000/svg" xmlns:xlink="http://www.w3.org/1999/xlink" style="isolation:isolate" viewBox="0 0 43.019 55.766" width="43.019" height="55.766"><defs><clipPath id="_clipPath_YYoQ3Xi55esaoYcsjdsyEHZeUOtOQgiy"><rect width="43.019" height="55.766"/></clipPath></defs><g clip-path="url(#_clipPath_YYoQ3Xi55esaoYcsjdsyEHZeUOtOQgiy)"><clipPath id="_clipPath_PgWyzja5oA83M0gPQhbx0OLwSjotgcw0"><rect x="0" y="0" width="43.019" height="55.766" transform="matrix(1,0,0,1,0,0)" fill="rgb(255,255,255)"/></clipPath><g clip-path="url(#_clipPath_PgWyzja5oA83M0gPQhbx0OLwSjotgcw0)"><g id="Group"><clipPath id="_clipPath_Nd51KQiAp8DqrrsPBIns00j8AmYBy8J5"><rect x="0" y="0" width="43.019" height="55.766" transform="matrix(1,0,0,1,0,0)" fill="rgb(255,255,255)"/></clipPath><g clip-path="url(#_clipPath_Nd51KQiAp8DqrrsPBIns00j8AmYBy8J5)"><g id="Group"><g id="Group"><g id="Group"><path d=" M 30.489 -0.342 L 1.467 -0.342 C 0.659 -0.342 0.004 0.313 0.004 1.584 L 0.004 54.658 C 0.004 55.003 0.659 55.658 1.467 55.658 L 41.541 55.658 C 42.349 55.658 43.004 55.003 43.004 54.658 L 43.004 12.636 C 43.004 11.94 42.911 11.716 42.747 11.551 L 31.111 -0.085 C 30.946 -0.249 30.722 -0.342 30.489 -0.342 Z " fill="rgb(233,233,224)"/><path d=" M 31.004 -0.191 L 31.004 11.658 L 42.853 11.658 L 31.004 -0.191 Z " fill="rgb(217,215,202)"/><path d=" M 41.541 55.658 L 1.467 55.658 C 0.659 55.658 0.004 55.003 0.004 54.195 L 0.004 38.658 L 43.004 38.658 L 43.004 54.195 C 43.004 55.003 42.349 55.658 41.541 55.658 Z " fill="rgb(174,234,0)"/></g><g id="Group"><g id="Group"><g transform="matrix(1,0,0,1,7.676,38.815)"><text transform="matrix(1,0,0,1,0,12.826)" style="font-family:&quot;Open Sans&quot;;font-weight:400;font-size:12px;font-style:normal;fill:#FFFFFF;stroke:none;">AJAX</text></g></g></g><g id="Group"><g id="Group"><g id="Group"><g id="Group"><g id="Group"><path d=" M 26.909 28.589 C 26.909 31.508 24.529 33.877 21.597 33.877 C 18.665 33.877 16.284 31.508 16.284 28.589 C 16.284 25.67 18.665 23.301 21.597 23.301 C 24.529 23.301 26.909 25.67 26.909 28.589 Z " fill="rgb(174,234,0)"/><clipPath id="_clipPath_PGu4cJcbTRgljSxMwgKNGuhnkJPBsnh6"><path d=" M 26.909 28.589 C 26.909 31.508 24.529 33.877 21.597 33.877 C 18.665 33.877 16.284 31.508 16.284 28.589 C 16.284 25.67 18.665 23.301 21.597 23.301 C 24.529 23.301 26.909 25.67 26.909 28.589 Z " fill="rgb(255,255,255)"/></clipPath><g clip-path="url(#_clipPath_PGu4cJcbTRgljSxMwgKNGuhnkJPBsnh6)"><g id="Group"><g id="Group"><path d=" M 24.642 28.165 C 24.642 30.198 23.193 31.848 21.409 31.848 C 19.625 31.848 18.176 30.198 18.176 28.165 C 18.176 26.132 19.625 24.481 21.409 24.481 C 23.193 24.481 24.642 26.132 24.642 28.165 Z " fill="rgb(235,235,235)"/><rect x="15.969" y="17.926" width="8.709" height="9.579" transform="matrix(-1,0,0,-1,40.647,45.431)" fill="rgb(235,235,235)"/></g></g></g><path d=" M 26.909 28.868 L 24.599 28.868 L 24.599 17.057 L 26.909 17.057 L 26.909 28.868 Z " fill="rgb(174,234,0)"/><path d=" M 17.099 23.203 L 18.495 25.704 L 19.89 28.206 L 17.121 28.213 L 14.353 28.219 L 15.726 25.711 L 17.099 23.203 Z " fill="rgb(174,234,0)"/></g></g></g><g id="Group"><g id="Group"><g id="Group"><path d=" M 15.761 11.08 C 15.761 8.161 18.141 5.791 21.073 5.791 C 24.005 5.791 26.386 8.161 26.386 11.08 C 26.386 13.998 24.005 16.368 21.073 16.368 C 18.141 16.368 15.761 13.998 15.761 11.08 Z " fill="rgb(174,234,0)"/><clipPath id="_clipPath_pFzT7R4JaqcNmrMylDej2Z3bb1uYyUSP"><path d=" M 15.761 11.08 C 15.761 8.161 18.141 5.791 21.073 5.791 C 24.005 5.791 26.386 8.161 26.386 11.08 C 26.386 13.998 24.005 16.368 21.073 16.368 C 18.141 16.368 15.761 13.998 15.761 11.08 Z " fill="rgb(255,255,255)"/></clipPath><g clip-path="url(#_clipPath_pFzT7R4JaqcNmrMylDej2Z3bb1uYyUSP)"><g id="Group"><g id="Group"><path d=" M 18.028 11.504 C 18.028 9.471 19.477 7.821 21.261 7.821 C 23.045 7.821 24.494 9.471 24.494 11.504 C 24.494 13.537 23.045 15.188 21.261 15.188 C 19.477 15.188 18.028 13.537 18.028 11.504 Z " fill="rgb(235,235,235)"/><rect x="17.992" y="12.164" width="8.709" height="9.579" transform="matrix(1,0,0,1,0,0)" fill="rgb(235,235,235)"/></g></g></g><path d=" M 15.761 10.801 L 18.071 10.801 L 18.071 22.612 L 15.761 22.612 L 15.761 10.801 Z " fill="rgb(174,234,0)"/><path d=" M 25.571 16.466 L 24.175 13.964 L 22.78 11.462 L 25.549 11.456 L 28.317 11.45 L 26.944 13.958 L 25.571 16.466 Z " fill="rgb(174,234,0)"/></g></g></g></g></g></g></g></g></g></g></g></svg>