<?xml version="1.0" standalone="no"?><!-- Generator: Gravit.io --><svg xmlns="http://www.w3.org/2000/svg" xmlns:xlink="http://www.w3.org/1999/xlink" style="isolation:isolate" viewBox="0 0 43 56" width="43" height="56"><defs><clipPath id="_clipPath_ZzUjwltyd5qlIUjaNDAX0w8ECNNYAKCo"><rect width="43" height="56"/></clipPath></defs><g clip-path="url(#_clipPath_ZzUjwltyd5qlIUjaNDAX0w8ECNNYAKCo)"><g id="Group"><path d=" M 30.485 0 L 1.463 0 C 0.655 0 0 0.655 0 1.926 L 0 55 C 0 55.345 0.655 56 1.463 56 L 41.537 56 C 42.345 56 43 55.345 43 55 L 43 12.978 C 43 12.282 42.907 12.058 42.743 11.893 L 31.107 0.257 C 30.942 0.093 30.718 0 30.485 0 Z " fill="rgb(233,233,224)"/><path d=" M 31 0.151 L 31 12 L 42.849 12 L 31 0.151 Z " fill="rgb(217,215,202)"/><path d=" M 41.537 56 L 1.463 56 C 0.655 56 0 55.345 0 54.537 L 0 39 L 43 39 L 43 54.537 C 43 55.345 42.345 56 41.537 56 Z " fill="rgb(0,150,230)"/><g id="Group"><path d=" M 17.08 51.975 C 16.706 52.339 16.282 52.613 15.809 52.795 C 15.336 52.977 14.825 53.068 14.278 53.068 C 13.676 53.068 13.123 52.959 12.617 52.74 C 12.111 52.521 11.669 52.198 11.291 51.769 C 10.913 51.34 10.616 50.803 10.402 50.156 C 10.188 49.509 10.081 48.761 10.081 47.914 C 10.081 47.067 10.188 46.321 10.402 45.679 C 10.616 45.036 10.913 44.501 11.291 44.073 C 11.669 43.645 12.113 43.319 12.624 43.095 C 13.135 42.871 13.686 42.76 14.278 42.76 C 14.825 42.76 15.336 42.851 15.809 43.033 C 16.282 43.215 16.706 43.489 17.08 43.853 L 15.945 44.865 C 15.717 44.6 15.465 44.409 15.186 44.291 C 14.907 44.173 14.619 44.113 14.318 44.113 C 13.981 44.113 13.66 44.176 13.354 44.304 C 13.048 44.432 12.775 44.648 12.534 44.953 C 12.293 45.258 12.103 45.652 11.967 46.136 C 11.831 46.62 11.757 47.211 11.748 47.913 C 11.757 48.597 11.828 49.18 11.96 49.663 C 12.092 50.146 12.274 50.54 12.507 50.846 C 12.74 51.152 13.004 51.374 13.3 51.516 C 13.596 51.658 13.908 51.728 14.237 51.728 C 14.566 51.728 14.873 51.668 15.16 51.55 C 15.447 51.432 15.709 51.24 15.946 50.976 L 17.08 51.975 Z " fill="rgb(255,255,255)"/><path d=" M 25.133 50.238 C 25.133 50.602 25.058 50.956 24.907 51.298 C 24.756 51.64 24.545 51.941 24.271 52.2 C 23.997 52.459 23.661 52.667 23.259 52.822 C 22.857 52.977 22.403 53.054 21.892 53.054 C 21.673 53.054 21.448 53.042 21.215 53.02 C 20.982 52.998 20.748 52.958 20.511 52.904 C 20.274 52.85 20.048 52.774 19.834 52.678 C 19.62 52.582 19.436 52.466 19.28 52.329 L 19.567 51.153 C 19.695 51.226 19.856 51.297 20.052 51.365 C 20.248 51.433 20.45 51.497 20.66 51.556 C 20.87 51.615 21.079 51.663 21.289 51.7 C 21.499 51.737 21.694 51.755 21.877 51.755 C 22.433 51.755 22.859 51.625 23.155 51.365 C 23.451 51.105 23.599 50.72 23.599 50.21 C 23.599 49.9 23.495 49.636 23.285 49.417 C 23.075 49.198 22.813 49 22.499 48.822 C 22.185 48.644 21.845 48.467 21.48 48.289 C 21.115 48.111 20.774 47.901 20.455 47.66 C 20.136 47.419 19.872 47.134 19.662 46.806 C 19.452 46.478 19.348 46.068 19.348 45.576 C 19.348 45.13 19.43 44.733 19.594 44.387 C 19.758 44.041 19.979 43.746 20.257 43.505 C 20.535 43.264 20.859 43.079 21.228 42.951 C 21.597 42.823 21.987 42.76 22.397 42.76 C 22.816 42.76 23.24 42.799 23.668 42.876 C 24.096 42.953 24.442 43.079 24.707 43.252 C 24.652 43.37 24.589 43.5 24.516 43.642 C 24.443 43.784 24.374 43.915 24.311 44.038 C 24.248 44.161 24.193 44.264 24.147 44.346 C 24.101 44.428 24.074 44.474 24.065 44.483 C 24.01 44.456 23.949 44.42 23.88 44.374 C 23.811 44.328 23.714 44.283 23.586 44.237 C 23.458 44.191 23.29 44.16 23.08 44.141 C 22.87 44.122 22.601 44.127 22.273 44.155 C 22.09 44.174 21.918 44.225 21.753 44.312 C 21.588 44.399 21.443 44.505 21.315 44.633 C 21.187 44.761 21.087 44.904 21.014 45.064 C 20.941 45.224 20.905 45.377 20.905 45.522 C 20.905 45.886 21.009 46.18 21.219 46.404 C 21.429 46.628 21.689 46.823 21.998 46.992 C 22.307 47.161 22.645 47.325 23.01 47.484 C 23.375 47.643 23.714 47.838 24.029 48.065 C 24.344 48.292 24.605 48.578 24.815 48.919 C 25.025 49.26 25.133 49.7 25.133 50.238 Z " fill="rgb(255,255,255)"/><path d=" M 32.543 50.238 C 32.543 50.602 32.468 50.956 32.317 51.298 C 32.166 51.64 31.955 51.941 31.681 52.2 C 31.407 52.459 31.071 52.667 30.669 52.822 C 30.267 52.977 29.813 53.054 29.302 53.054 C 29.083 53.054 28.858 53.042 28.625 53.02 C 28.392 52.998 28.158 52.958 27.921 52.904 C 27.684 52.85 27.458 52.774 27.244 52.678 C 27.03 52.582 26.846 52.466 26.69 52.329 L 26.977 51.153 C 27.105 51.226 27.266 51.297 27.462 51.365 C 27.658 51.433 27.86 51.497 28.07 51.556 C 28.28 51.615 28.489 51.663 28.699 51.7 C 28.909 51.737 29.104 51.755 29.287 51.755 C 29.843 51.755 30.269 51.625 30.565 51.365 C 30.861 51.105 31.009 50.72 31.009 50.21 C 31.009 49.9 30.905 49.636 30.695 49.417 C 30.485 49.198 30.223 49 29.909 48.822 C 29.595 48.644 29.255 48.467 28.89 48.289 C 28.525 48.111 28.184 47.901 27.865 47.66 C 27.546 47.419 27.282 47.134 27.072 46.806 C 26.862 46.478 26.758 46.068 26.758 45.576 C 26.758 45.13 26.84 44.733 27.004 44.387 C 27.168 44.041 27.389 43.746 27.667 43.505 C 27.945 43.264 28.269 43.079 28.638 42.951 C 29.007 42.823 29.397 42.76 29.807 42.76 C 30.226 42.76 30.65 42.799 31.078 42.876 C 31.506 42.953 31.852 43.079 32.117 43.252 C 32.062 43.37 31.999 43.5 31.926 43.642 C 31.853 43.784 31.784 43.915 31.721 44.038 C 31.658 44.161 31.603 44.264 31.557 44.346 C 31.511 44.428 31.484 44.474 31.475 44.483 C 31.42 44.456 31.359 44.42 31.29 44.374 C 31.221 44.328 31.124 44.283 30.996 44.237 C 30.868 44.191 30.7 44.16 30.49 44.141 C 30.28 44.122 30.011 44.127 29.683 44.155 C 29.5 44.174 29.328 44.225 29.163 44.312 C 28.998 44.399 28.853 44.505 28.725 44.633 C 28.597 44.761 28.497 44.904 28.424 45.064 C 28.351 45.224 28.315 45.377 28.315 45.522 C 28.315 45.886 28.419 46.18 28.629 46.404 C 28.839 46.628 29.099 46.823 29.408 46.992 C 29.717 47.161 30.055 47.325 30.42 47.484 C 30.785 47.643 31.124 47.838 31.439 48.065 C 31.754 48.292 32.015 48.578 32.225 48.919 C 32.435 49.26 32.543 49.7 32.543 50.238 Z " fill="rgb(255,255,255)"/></g><g id="Group"><path d=" M 13 19 L 13 15 C 13 14.449 13.448 14 14 14 C 14.553 14 15 13.552 15 13 C 15 12.448 14.553 12 14 12 C 12.346 12 11 13.346 11 15 L 11 19 C 11 20.103 10.103 21 9 21 C 8.447 21 8 21.448 8 22 C 8 22.552 8.447 23 9 23 C 10.103 23 11 23.897 11 25 L 11 29 C 11 30.654 12.346 32 14 32 C 14.553 32 15 31.552 15 31 C 15 30.448 14.553 30 14 30 C 13.448 30 13 29.551 13 29 L 13 25 C 13 23.8 12.458 22.734 11.618 22 C 12.458 21.266 13 20.2 13 19 Z " fill="rgb(0,150,230)"/><path d=" M 33 21 C 31.897 21 31 20.103 31 19 L 31 15 C 31 13.346 29.654 12 28 12 C 27.447 12 27 12.448 27 13 C 27 13.552 27.447 14 28 14 C 28.552 14 29 14.449 29 15 L 29 19 C 29 20.2 29.542 21.266 30.382 22 C 29.542 22.734 29 23.8 29 25 L 29 29 C 29 29.551 28.552 30 28 30 C 27.447 30 27 30.448 27 31 C 27 31.552 27.447 32 28 32 C 29.654 32 31 30.654 31 29 L 31 25 C 31 23.897 31.897 23 33 23 C 33.553 23 34 22.552 34 22 C 34 21.448 33.553 21 33 21 Z " fill="rgb(0,150,230)"/></g></g></g></svg>