<?xml version="1.0" standalone="no"?><!-- Generator: Gravit.io --><svg xmlns="http://www.w3.org/2000/svg" xmlns:xlink="http://www.w3.org/1999/xlink" style="isolation:isolate" viewBox="0 0 42.951 56" width="42.951" height="56"><defs><clipPath id="_clipPath_gpin4R9wQk7ypmUCBmnep0BlF4paR9EH"><rect width="42.951" height="56"/></clipPath></defs><g clip-path="url(#_clipPath_gpin4R9wQk7ypmUCBmnep0BlF4paR9EH)"><clipPath id="_clipPath_8kd9DuUz5YSEMOhB4dFbma72mFd1urHh"><rect x="0" y="0" width="42.951" height="56" transform="matrix(1,0,0,1,0,0)" fill="rgb(255,255,255)"/></clipPath><g clip-path="url(#_clipPath_8kd9DuUz5YSEMOhB4dFbma72mFd1urHh)"><g id="Group"><g id="Group"><path d=" M 30.55 0 L 1.528 0 C 0.72 0 0.065 0.655 0.065 1.926 L 0.065 55 C 0.065 55.345 0.72 56 1.528 56 L 41.602 56 C 42.41 56 43.065 55.345 43.065 55 L 43.065 12.978 C 43.065 12.282 42.972 12.058 42.808 11.893 L 31.172 0.257 C 31.007 0.093 30.783 0 30.55 0 Z " fill="rgb(233,233,224)"/><path d=" M 31.065 0.151 L 31.065 12 L 42.914 12 L 31.065 0.151 Z " fill="rgb(217,215,202)"/><path d=" M 41.451 56 L 1.377 56 C 0.569 56 -0.086 55.345 -0.086 54.537 L -0.086 39 L 42.914 39 L 42.914 54.537 C 42.914 55.345 42.259 56 41.451 56 Z " fill="rgb(255,86,12)"/><path d=" M 9.065 24 C 8.809 24 8.553 23.902 8.358 23.707 C 7.967 23.316 7.967 22.684 8.358 22.293 L 14.358 16.293 C 14.749 15.902 15.381 15.902 15.772 16.293 C 16.163 16.684 16.163 17.316 15.772 17.707 L 9.772 23.707 C 9.577 23.902 9.321 24 9.065 24 Z " fill="rgb(255,86,12)"/><path d=" M 15.065 30 C 14.809 30 14.553 29.902 14.358 29.707 L 8.358 23.707 C 7.967 23.316 7.967 22.684 8.358 22.293 C 8.749 21.902 9.381 21.902 9.772 22.293 L 15.772 28.293 C 16.163 28.684 16.163 29.316 15.772 29.707 C 15.577 29.902 15.321 30 15.065 30 Z " fill="rgb(255,86,12)"/><path d=" M 27.065 30 C 26.809 30 26.553 29.902 26.358 29.707 C 25.967 29.316 25.967 28.684 26.358 28.293 L 32.358 22.293 C 32.749 21.902 33.381 21.902 33.772 22.293 C 34.163 22.684 34.163 23.316 33.772 23.707 L 27.772 29.707 C 27.577 29.902 27.321 30 27.065 30 Z " fill="rgb(255,86,12)"/><path d=" M 33.065 24 C 32.809 24 32.553 23.902 32.358 23.707 L 26.358 17.707 C 25.967 17.316 25.967 16.684 26.358 16.293 C 26.749 15.902 27.381 15.902 27.772 16.293 L 33.772 22.293 C 34.163 22.684 34.163 23.316 33.772 23.707 C 33.577 23.902 33.321 24 33.065 24 Z " fill="rgb(255,86,12)"/><path d=" M 18.065 32 C 17.955 32 17.842 31.981 17.732 31.942 C 17.211 31.758 16.938 31.187 17.122 30.666 L 23.122 13.666 C 23.307 13.145 23.875 12.871 24.398 13.056 C 24.919 13.24 25.192 13.811 25.008 14.332 L 19.008 31.332 C 18.863 31.744 18.477 32 18.065 32 Z " fill="rgb(255,86,12)"/></g><g id="Group"><g transform="matrix(1,0,0,1,3.622,38.989)"><text transform="matrix(1,0,0,1,0,12.826)" style="font-family:&quot;Open Sans&quot;;font-weight:600;font-size:12px;font-style:normal;fill:#FFFFFF;stroke:none;">HTML</text></g></g></g></g></g></svg>