<?xml version="1.0" standalone="no"?><!-- Generator: Gravit.io --><svg xmlns="http://www.w3.org/2000/svg" xmlns:xlink="http://www.w3.org/1999/xlink" style="isolation:isolate" viewBox="0 0 43.081 56" width="43.081" height="56"><defs><clipPath id="_clipPath_v6II9aJ4XWc8vQ5RdOxQyY7FKOycX1iF"><rect width="43.081" height="56"/></clipPath></defs><g clip-path="url(#_clipPath_v6II9aJ4XWc8vQ5RdOxQyY7FKOycX1iF)"><clipPath id="_clipPath_ay5OdvYGmSVVCncwQttSPppqSHKGqgHa"><rect x="0" y="0" width="43.081" height="56" transform="matrix(1,0,0,1,0,0)" fill="rgb(255,255,255)"/></clipPath><g clip-path="url(#_clipPath_ay5OdvYGmSVVCncwQttSPppqSHKGqgHa)"><g id="Group"><g id="Group"><path d=" M 30.51 0 L 1.488 0 C 0.68 0 0.025 0.655 0.025 1.926 L 0.025 55 C 0.025 55.345 0.68 56 1.488 56 L 41.562 56 C 42.37 56 43.025 55.345 43.025 55 L 43.025 12.978 C 43.025 12.282 42.932 12.058 42.768 11.893 L 31.132 0.257 C 30.967 0.093 30.743 0 30.51 0 Z " fill="rgb(233,233,224)"/><path d=" M 31.025 0.151 L 31.025 12 L 42.874 12 L 31.025 0.151 Z " fill="rgb(217,215,202)"/><path d=" M 41.562 56 L 1.488 56 C 0.68 56 0.025 55.345 0.025 54.537 L 0.025 39 L 43.025 39 L 43.025 54.537 C 43.025 55.345 42.37 56 41.562 56 Z " fill="rgb(221,221,15)"/><g id="Group"><path d=" M 19.546 42.719 L 19.546 50.567 C 19.546 51.041 19.459 51.44 19.286 51.763 C 19.112 52.086 18.88 52.346 18.589 52.542 C 18.297 52.738 17.962 52.875 17.584 52.952 C 17.206 53.029 16.815 53.068 16.415 53.068 C 16.214 53.068 15.979 53.047 15.711 53.006 C 15.443 52.965 15.164 52.902 14.877 52.815 C 14.59 52.728 14.314 52.63 14.05 52.521 C 13.785 52.412 13.562 52.289 13.38 52.152 L 14.077 51.045 C 14.168 51.108 14.298 51.175 14.467 51.243 C 14.636 51.311 14.82 51.375 15.021 51.434 C 15.221 51.494 15.431 51.545 15.65 51.591 C 15.869 51.637 16.074 51.659 16.265 51.659 C 16.747 51.659 17.133 51.565 17.42 51.379 C 17.707 51.193 17.859 50.875 17.878 50.429 L 17.878 42.718 L 19.546 42.718 L 19.546 42.719 Z " fill="rgb(255,255,255)"/><path d=" M 27.709 50.238 C 27.709 50.602 27.634 50.956 27.483 51.298 C 27.332 51.64 27.121 51.941 26.847 52.2 C 26.573 52.459 26.236 52.667 25.835 52.822 C 25.434 52.977 24.978 53.054 24.468 53.054 C 24.249 53.054 24.024 53.042 23.791 53.02 C 23.558 52.998 23.323 52.958 23.087 52.904 C 22.85 52.849 22.624 52.774 22.41 52.678 C 22.196 52.582 22.011 52.466 21.856 52.329 L 22.143 51.153 C 22.27 51.226 22.432 51.297 22.628 51.365 C 22.824 51.433 23.026 51.497 23.236 51.556 C 23.445 51.616 23.655 51.663 23.865 51.7 C 24.074 51.736 24.27 51.755 24.453 51.755 C 25.009 51.755 25.435 51.625 25.731 51.365 C 26.027 51.105 26.175 50.72 26.175 50.21 C 26.175 49.9 26.07 49.636 25.861 49.417 C 25.651 49.198 25.389 49 25.075 48.822 C 24.761 48.644 24.421 48.467 24.056 48.289 C 23.691 48.111 23.349 47.901 23.031 47.66 C 22.712 47.419 22.447 47.134 22.238 46.806 C 22.028 46.478 21.924 46.068 21.924 45.576 C 21.924 45.13 22.006 44.733 22.17 44.387 C 22.334 44.041 22.555 43.746 22.833 43.505 C 23.111 43.264 23.435 43.079 23.804 42.951 C 24.173 42.823 24.563 42.76 24.973 42.76 C 25.392 42.76 25.816 42.799 26.244 42.876 C 26.672 42.953 27.018 43.079 27.283 43.252 C 27.228 43.37 27.164 43.5 27.092 43.642 C 27.019 43.784 26.95 43.915 26.887 44.038 C 26.823 44.161 26.768 44.264 26.723 44.346 C 26.677 44.428 26.65 44.474 26.641 44.483 C 26.586 44.456 26.525 44.42 26.456 44.374 C 26.387 44.328 26.289 44.283 26.162 44.237 C 26.034 44.191 25.865 44.16 25.656 44.141 C 25.446 44.122 25.177 44.127 24.849 44.155 C 24.666 44.174 24.494 44.225 24.329 44.312 C 24.164 44.399 24.018 44.505 23.891 44.633 C 23.763 44.761 23.662 44.904 23.59 45.064 C 23.517 45.223 23.481 45.377 23.481 45.522 C 23.481 45.886 23.585 46.18 23.795 46.404 C 24.004 46.628 24.264 46.823 24.574 46.992 C 24.884 47.161 25.22 47.325 25.586 47.484 C 25.95 47.643 26.29 47.838 26.605 48.065 C 26.92 48.292 27.181 48.578 27.391 48.919 C 27.603 49.261 27.709 49.7 27.709 50.238 Z " fill="rgb(255,255,255)"/></g><g id="Group"><path d=" M 13.025 19 L 13.025 15 C 13.025 14.449 13.473 14 14.025 14 C 14.578 14 15.025 13.552 15.025 13 C 15.025 12.448 14.578 12 14.025 12 C 12.371 12 11.025 13.346 11.025 15 L 11.025 19 C 11.025 20.103 10.128 21 9.025 21 C 8.472 21 8.025 21.448 8.025 22 C 8.025 22.552 8.472 23 9.025 23 C 10.128 23 11.025 23.897 11.025 25 L 11.025 29 C 11.025 30.654 12.371 32 14.025 32 C 14.578 32 15.025 31.552 15.025 31 C 15.025 30.448 14.578 30 14.025 30 C 13.473 30 13.025 29.551 13.025 29 L 13.025 25 C 13.025 23.8 12.483 22.734 11.643 22 C 12.483 21.266 13.025 20.2 13.025 19 Z " fill="rgb(221,221,15)"/><path d=" M 19.525 18.5 C 19.525 17.672 20.197 17 21.025 17 C 21.853 17 22.525 17.672 22.525 18.5 C 22.525 19.328 21.853 20 21.025 20 C 20.197 20 19.525 19.328 19.525 18.5 Z " fill="rgb(221,221,15)"/><path d=" M 33.025 21 C 31.922 21 31.025 20.103 31.025 19 L 31.025 15 C 31.025 13.346 29.679 12 28.025 12 C 27.472 12 27.025 12.448 27.025 13 C 27.025 13.552 27.472 14 28.025 14 C 28.577 14 29.025 14.449 29.025 15 L 29.025 19 C 29.025 20.2 29.567 21.266 30.407 22 C 29.567 22.734 29.025 23.8 29.025 25 L 29.025 29 C 29.025 29.551 28.577 30 28.025 30 C 27.472 30 27.025 30.448 27.025 31 C 27.025 31.552 27.472 32 28.025 32 C 29.679 32 31.025 30.654 31.025 29 L 31.025 25 C 31.025 23.897 31.922 23 33.025 23 C 33.578 23 34.025 22.552 34.025 22 C 34.025 21.448 33.578 21 33.025 21 Z " fill="rgb(221,221,15)"/><path d=" M 21.025 24 C 20.472 24 20.025 24.448 20.025 25 L 20.025 28 C 20.025 28.552 20.472 29 21.025 29 C 21.578 29 22.025 28.552 22.025 28 L 22.025 25 C 22.025 24.448 21.578 24 21.025 24 Z " fill="rgb(221,221,15)"/></g></g></g></g></g></svg>