<?xml version="1.0" standalone="no"?><!-- Generator: Gravit.io --><svg xmlns="http://www.w3.org/2000/svg" xmlns:xlink="http://www.w3.org/1999/xlink" style="isolation:isolate" viewBox="0 0 43.2 56" width="43.2" height="56"><defs><clipPath id="_clipPath_DpzTmCZr6nReAu1RtmIU2ik8Noyr71I7"><rect width="43.2" height="56"/></clipPath></defs><g clip-path="url(#_clipPath_DpzTmCZr6nReAu1RtmIU2ik8Noyr71I7)"><clipPath id="_clipPath_jDaRFEmZefkkdTGVaHztfYKQZ22UFqVH"><rect x="0" y="0" width="43.2" height="56" transform="matrix(1,0,0,1,0,0)" fill="rgb(255,255,255)"/></clipPath><g clip-path="url(#_clipPath_jDaRFEmZefkkdTGVaHztfYKQZ22UFqVH)"><g id="Group"><g id="Group"><path d=" M 30.586 -0.225 L 1.564 -0.225 C 0.756 -0.225 0.101 0.43 0.101 1.701 L 0.101 54.775 C 0.101 55.12 0.756 55.775 1.564 55.775 L 41.638 55.775 C 42.446 55.775 43.101 55.12 43.101 54.775 L 43.101 12.753 C 43.101 12.057 43.008 11.833 42.844 11.668 L 31.208 0.032 C 31.043 -0.132 30.819 -0.225 30.586 -0.225 Z " fill="rgb(233,233,224)"/><path d=" M 31.101 -0.074 L 31.101 11.775 L 42.95 11.775 L 31.101 -0.074 Z " fill="rgb(217,215,202)"/><path d=" M 41.638 55.775 L 1.564 55.775 C 0.756 55.775 0.101 55.12 0.101 54.312 L 0.101 38.775 L 43.101 38.775 L 43.101 54.312 C 43.101 55.12 42.446 55.775 41.638 55.775 Z " fill="rgb(48,79,254)"/></g><g id="Group"><g transform="matrix(1,0,0,1,2.773,38.714)"><text transform="matrix(1,0,0,1,0.65,12.826)" style="font-family:&quot;Open Sans&quot;;font-weight:400;font-size:12px;font-style:normal;fill:#FFFFFF;stroke:none;">jQuery</text></g></g><path d=" M 24.019 7.749 C 23.963 7.757 23.907 7.774 23.853 7.8 C 23.396 8.032 22.877 8.724 22.777 8.86 C 22.771 8.869 22.765 8.877 22.761 8.886 C 22.248 9.676 21.974 10.599 21.963 11.562 C 21.957 12.283 22.094 12.998 22.372 13.687 C 23.02 15.285 24.366 16.608 25.967 17.227 C 26.021 17.246 26.073 17.266 26.167 17.3 C 26.175 17.304 26.254 17.33 26.267 17.332 L 26.325 17.353 C 26.408 17.381 26.493 17.408 26.576 17.426 C 26.998 17.513 27.409 17.562 27.795 17.575 C 27.862 17.575 27.928 17.577 27.995 17.577 C 30.908 17.577 32.038 15.465 32.414 14.76 C 32.452 14.692 32.479 14.637 32.503 14.603 C 32.503 14.6 32.503 14.6 32.506 14.598 C 32.67 14.349 32.607 14.009 32.364 13.839 C 32.123 13.67 31.793 13.734 31.627 13.984 C 31.627 13.984 31.625 13.984 31.625 13.984 C 30.848 15.159 29.519 15.516 27.677 15.046 C 27.54 15.012 27.39 14.959 27.257 14.908 C 27.083 14.844 26.908 14.769 26.746 14.688 C 26.424 14.524 26.121 14.327 25.847 14.11 C 24.227 12.819 23.594 10.132 24.541 8.581 C 24.667 8.374 24.644 8.105 24.485 7.924 C 24.364 7.787 24.19 7.725 24.019 7.749 Z  M 19.309 8.837 C 19.189 8.835 19.066 8.875 18.966 8.961 C 18.163 9.633 17.34 10.734 17.305 10.779 C 17.301 10.787 17.296 10.794 17.29 10.802 C 15.836 12.977 15.726 16.071 17.012 18.685 C 17.213 19.098 17.442 19.493 17.685 19.856 L 17.758 19.963 C 17.963 20.272 18.194 20.622 18.489 20.895 C 18.59 21.015 18.7 21.13 18.808 21.241 L 18.86 21.296 L 18.904 21.341 C 19.014 21.45 19.126 21.561 19.243 21.668 C 19.243 21.668 19.245 21.668 19.245 21.668 C 19.253 21.68 19.265 21.689 19.276 21.7 C 19.407 21.819 19.54 21.932 19.716 22.075 L 19.764 22.111 C 19.901 22.225 20.04 22.331 20.183 22.436 C 20.198 22.446 20.212 22.457 20.227 22.468 C 20.277 22.502 20.327 22.534 20.376 22.57 L 20.426 22.604 L 20.484 22.643 C 20.59 22.715 20.694 22.781 20.842 22.869 C 20.937 22.929 21.039 22.988 21.105 23.023 C 21.135 23.04 21.166 23.057 21.238 23.097 L 21.4 23.185 C 21.409 23.189 21.446 23.206 21.454 23.21 C 21.56 23.266 21.67 23.319 21.78 23.37 L 21.949 23.447 C 22.059 23.496 22.171 23.543 22.308 23.597 L 22.37 23.62 C 22.374 23.624 22.426 23.644 22.431 23.646 C 22.53 23.682 22.632 23.718 22.734 23.752 L 22.966 23.831 C 23.083 23.872 23.218 23.919 23.365 23.944 C 24.09 24.068 24.794 24.132 25.461 24.132 C 25.54 24.132 25.619 24.13 25.695 24.13 C 31.565 23.998 33.091 18.874 33.106 18.823 C 33.178 18.565 33.06 18.29 32.823 18.175 C 32.587 18.059 32.304 18.14 32.157 18.362 C 30.67 20.594 27.857 21.537 24.993 20.761 C 24.86 20.727 24.732 20.688 24.572 20.635 C 24.545 20.626 24.522 20.618 24.478 20.601 C 24.385 20.571 24.293 20.539 24.19 20.498 L 24.042 20.441 C 23.957 20.406 23.872 20.372 23.768 20.325 L 23.7 20.293 C 23.573 20.238 23.45 20.176 23.34 20.121 L 23.037 19.958 C 22.968 19.924 22.908 19.886 22.815 19.828 L 22.763 19.798 L 22.711 19.766 C 22.634 19.719 22.557 19.67 22.487 19.619 L 22.437 19.587 C 22.433 19.585 22.391 19.555 22.387 19.551 C 22.325 19.51 22.264 19.47 22.206 19.431 C 22.077 19.337 21.951 19.239 21.803 19.12 L 21.745 19.071 C 20.374 17.946 19.361 16.444 18.885 14.833 C 18.443 13.354 18.771 11.419 19.764 9.656 C 19.893 9.428 19.845 9.138 19.648 8.967 C 19.55 8.882 19.429 8.837 19.309 8.837 Z  M 13.458 10.476 C 13.332 10.476 13.203 10.523 13.101 10.617 C 12.086 11.553 11.325 12.767 11.242 12.906 C 9.07 16.156 9.489 21.207 10.981 24.294 C 11.01 24.358 11.041 24.42 11.072 24.482 L 11.093 24.516 C 11.12 24.578 11.151 24.642 11.161 24.655 C 11.178 24.695 11.203 24.74 11.213 24.753 C 11.238 24.806 11.263 24.853 11.309 24.934 L 11.479 25.235 C 11.504 25.276 11.529 25.319 11.537 25.333 C 11.57 25.389 11.606 25.447 11.641 25.504 L 11.724 25.641 C 11.749 25.681 11.774 25.718 11.791 25.739 C 11.874 25.871 11.957 26.004 12.048 26.129 C 12.052 26.136 12.056 26.14 12.061 26.144 L 12.094 26.191 C 12.169 26.302 12.245 26.409 12.314 26.496 L 12.617 26.891 C 12.621 26.895 12.655 26.936 12.657 26.94 L 12.7 26.991 C 12.792 27.107 12.889 27.222 12.987 27.333 C 13.001 27.35 13.016 27.365 13.031 27.382 C 13.124 27.487 13.22 27.591 13.319 27.7 L 13.415 27.794 C 13.494 27.879 13.573 27.962 13.656 28.041 C 13.656 28.043 13.695 28.082 13.695 28.082 L 13.778 28.161 C 13.878 28.259 13.982 28.357 14.061 28.425 C 14.065 28.432 14.14 28.498 14.146 28.502 C 14.243 28.592 14.341 28.677 14.441 28.76 L 14.95 29.174 C 15.035 29.238 15.122 29.302 15.222 29.377 C 15.255 29.403 15.29 29.428 15.325 29.452 C 15.34 29.465 15.357 29.477 15.367 29.484 L 15.749 29.746 C 15.888 29.84 16.027 29.928 16.198 30.032 L 16.289 30.085 C 16.395 30.15 16.503 30.214 16.605 30.269 C 16.665 30.303 16.725 30.333 16.777 30.361 C 16.85 30.401 16.929 30.446 17.049 30.506 C 17.06 30.512 17.145 30.555 17.155 30.559 C 17.276 30.621 17.398 30.679 17.552 30.749 C 17.552 30.751 17.602 30.775 17.602 30.775 C 17.743 30.837 17.88 30.896 18.061 30.971 C 18.09 30.984 18.119 30.995 18.125 30.997 C 18.254 31.048 18.389 31.099 18.499 31.14 C 18.509 31.144 18.565 31.167 18.576 31.172 C 18.723 31.223 18.869 31.272 19.056 31.332 C 19.087 31.342 19.12 31.353 19.124 31.353 L 19.23 31.387 C 19.359 31.428 19.488 31.47 19.627 31.498 C 20.615 31.684 21.581 31.78 22.495 31.78 L 22.497 31.78 C 30.113 31.78 32.539 25.483 32.564 25.419 C 32.657 25.165 32.555 24.879 32.323 24.747 C 32.094 24.617 31.804 24.678 31.642 24.894 C 29.687 27.538 26.001 28.519 21.78 27.523 C 21.679 27.497 21.575 27.467 21.473 27.435 L 21.274 27.373 C 21.139 27.331 21.004 27.284 20.873 27.237 C 20.871 27.237 20.811 27.213 20.811 27.213 C 20.694 27.173 20.578 27.126 20.476 27.085 L 20.36 27.038 C 20.231 26.985 20.102 26.93 19.978 26.872 L 19.905 26.84 C 19.793 26.787 19.685 26.735 19.577 26.68 C 19.569 26.676 19.483 26.633 19.475 26.631 C 19.4 26.592 19.326 26.552 19.23 26.499 L 18.796 26.26 C 18.752 26.23 18.707 26.202 18.663 26.178 C 18.532 26.095 18.397 26.012 18.264 25.925 C 18.233 25.905 18.206 25.884 18.154 25.848 C 18.063 25.788 17.974 25.726 17.843 25.632 L 17.791 25.594 C 17.701 25.53 17.614 25.462 17.542 25.406 C 17.496 25.372 17.45 25.333 17.375 25.276 C 17.309 25.223 17.242 25.171 17.18 25.12 L 17.064 25.022 C 16.966 24.941 16.875 24.856 16.779 24.772 C 16.767 24.759 16.756 24.751 16.742 24.74 C 16.636 24.64 16.528 24.54 16.399 24.414 L 16.023 24.03 C 15.932 23.934 15.841 23.836 15.737 23.718 C 15.641 23.609 15.55 23.501 15.427 23.351 L 15.203 23.07 C 15.176 23.029 15.147 22.988 15.112 22.946 C 15.035 22.839 14.958 22.734 14.881 22.624 C 12.812 19.696 12.272 13.585 13.884 11.346 C 14.046 11.122 14.017 10.806 13.814 10.617 C 13.714 10.523 13.585 10.476 13.458 10.476 Z " fill="rgb(48,79,254)"/></g></g></g></svg>