<?xml version="1.0" standalone="no"?><!-- Generator: Gravit.io --><svg xmlns="http://www.w3.org/2000/svg" xmlns:xlink="http://www.w3.org/1999/xlink" style="isolation:isolate" viewBox="0 0 43 56" width="43" height="56"><defs><clipPath id="_clipPath_46OxnW04On2M2TJ3LbnP21zsFDkuDK8L"><rect width="43" height="56"/></clipPath></defs><g clip-path="url(#_clipPath_46OxnW04On2M2TJ3LbnP21zsFDkuDK8L)"><g id="Group"><path d=" M 30.485 0 L 1.463 0 C 0.655 0 0 0.655 0 1.926 L 0 55 C 0 55.345 0.655 56 1.463 56 L 41.537 56 C 42.345 56 43 55.345 43 55 L 43 12.978 C 43 12.282 42.907 12.058 42.743 11.893 L 31.107 0.257 C 30.942 0.093 30.718 0 30.485 0 Z " fill="rgb(233,233,224)"/><path d=" M 31 0.151 L 31 12 L 42.849 12 L 31 0.151 Z " fill="rgb(217,215,202)"/><path d=" M 41.537 56 L 1.463 56 C 0.655 56 0 55.345 0 54.537 L 0 39 L 43 39 L 43 54.537 C 43 55.345 42.345 56 41.537 56 Z " fill="rgb(151,119,168)"/><g id="Group"><path d=" M 10.521 42.719 L 10.521 50.567 C 10.521 51.041 10.434 51.44 10.261 51.763 C 10.088 52.086 9.856 52.346 9.564 52.542 C 9.272 52.738 8.937 52.875 8.559 52.952 C 8.181 53.029 7.791 53.068 7.39 53.068 C 7.19 53.068 6.954 53.047 6.686 53.006 C 6.418 52.965 6.139 52.902 5.852 52.815 C 5.565 52.728 5.289 52.63 5.025 52.521 C 4.761 52.412 4.538 52.289 4.355 52.152 L 5.052 51.045 C 5.143 51.108 5.273 51.175 5.442 51.243 C 5.611 51.311 5.796 51.375 5.996 51.434 C 6.196 51.493 6.406 51.545 6.625 51.591 C 6.844 51.637 7.049 51.659 7.24 51.659 C 7.723 51.659 8.108 51.565 8.395 51.379 C 8.682 51.193 8.834 50.875 8.853 50.429 L 8.853 42.718 L 10.521 42.718 L 10.521 42.719 Z " fill="rgb(255,255,255)"/><path d=" M 18.684 50.238 C 18.684 50.602 18.609 50.956 18.458 51.298 C 18.307 51.64 18.096 51.941 17.822 52.2 C 17.548 52.459 17.212 52.667 16.81 52.822 C 16.408 52.977 15.954 53.054 15.443 53.054 C 15.224 53.054 14.999 53.042 14.766 53.02 C 14.533 52.998 14.299 52.958 14.062 52.904 C 13.825 52.849 13.599 52.774 13.385 52.678 C 13.171 52.582 12.987 52.466 12.831 52.329 L 13.118 51.153 C 13.246 51.226 13.407 51.297 13.603 51.365 C 13.799 51.433 14.001 51.497 14.211 51.556 C 14.421 51.615 14.63 51.663 14.84 51.7 C 15.05 51.737 15.245 51.755 15.428 51.755 C 15.984 51.755 16.41 51.625 16.706 51.365 C 17.002 51.105 17.15 50.72 17.15 50.21 C 17.15 49.9 17.046 49.636 16.836 49.417 C 16.626 49.198 16.364 49 16.05 48.822 C 15.736 48.644 15.396 48.467 15.031 48.289 C 14.666 48.111 14.325 47.901 14.006 47.66 C 13.687 47.419 13.423 47.134 13.213 46.806 C 13.003 46.478 12.899 46.068 12.899 45.576 C 12.899 45.13 12.981 44.733 13.145 44.387 C 13.309 44.041 13.53 43.746 13.808 43.505 C 14.086 43.264 14.41 43.079 14.779 42.951 C 15.148 42.823 15.538 42.76 15.948 42.76 C 16.367 42.76 16.791 42.799 17.219 42.876 C 17.647 42.953 17.993 43.079 18.258 43.252 C 18.203 43.37 18.14 43.5 18.067 43.642 C 17.994 43.784 17.925 43.915 17.862 44.038 C 17.799 44.161 17.744 44.264 17.698 44.346 C 17.652 44.428 17.625 44.474 17.616 44.483 C 17.561 44.456 17.5 44.42 17.431 44.374 C 17.362 44.328 17.265 44.283 17.137 44.237 C 17.009 44.191 16.841 44.16 16.631 44.141 C 16.421 44.122 16.152 44.127 15.824 44.155 C 15.641 44.174 15.469 44.225 15.304 44.312 C 15.139 44.399 14.994 44.505 14.866 44.633 C 14.738 44.761 14.638 44.904 14.565 45.064 C 14.492 45.224 14.456 45.377 14.456 45.522 C 14.456 45.886 14.56 46.18 14.77 46.404 C 14.98 46.628 15.24 46.823 15.549 46.992 C 15.858 47.161 16.196 47.325 16.561 47.484 C 16.926 47.643 17.265 47.838 17.58 48.065 C 17.895 48.292 18.156 48.578 18.366 48.919 C 18.576 49.26 18.684 49.7 18.684 50.238 Z " fill="rgb(255,255,255)"/><path d=" M 28.582 47.914 C 28.582 48.762 28.475 49.509 28.261 50.156 C 28.047 50.803 27.75 51.341 27.372 51.769 C 26.994 52.197 26.552 52.521 26.046 52.74 C 25.54 52.959 24.986 53.068 24.385 53.068 C 23.784 53.068 23.23 52.959 22.724 52.74 C 22.218 52.521 21.776 52.198 21.398 51.769 C 21.02 51.34 20.723 50.803 20.509 50.156 C 20.295 49.509 20.188 48.761 20.188 47.914 C 20.188 47.067 20.295 46.321 20.509 45.679 C 20.723 45.037 21.02 44.501 21.398 44.073 C 21.776 43.645 22.218 43.319 22.724 43.095 C 23.23 42.871 23.784 42.76 24.385 42.76 C 24.986 42.76 25.54 42.871 26.046 43.095 C 26.552 43.319 26.994 43.644 27.372 44.073 C 27.75 44.502 28.047 45.037 28.261 45.679 C 28.475 46.321 28.582 47.066 28.582 47.914 Z  M 24.344 51.729 C 24.681 51.729 25.002 51.663 25.308 51.531 C 25.614 51.399 25.887 51.182 26.128 50.882 C 26.369 50.582 26.559 50.187 26.695 49.699 C 26.831 49.211 26.905 48.617 26.914 47.915 C 26.905 47.231 26.834 46.65 26.702 46.172 C 26.57 45.694 26.388 45.299 26.155 44.989 C 25.922 44.679 25.658 44.456 25.362 44.319 C 25.066 44.182 24.754 44.114 24.425 44.114 C 24.088 44.114 23.767 44.177 23.461 44.305 C 23.155 44.433 22.882 44.649 22.641 44.954 C 22.4 45.259 22.21 45.653 22.074 46.137 C 21.937 46.62 21.864 47.212 21.855 47.914 C 21.864 48.598 21.935 49.181 22.067 49.664 C 22.199 50.147 22.381 50.541 22.614 50.847 C 22.847 51.153 23.111 51.375 23.407 51.517 C 23.703 51.659 24.016 51.729 24.344 51.729 Z " fill="rgb(255,255,255)"/><path d=" M 38.18 42.924 L 38.18 53 L 36.512 53 L 32.561 46.055 L 32.561 53 L 30.893 53 L 30.893 42.924 L 32.561 42.924 L 36.512 49.869 L 36.512 42.924 L 38.18 42.924 Z " fill="rgb(255,255,255)"/></g><g id="Group"><path d=" M 13 19 L 13 15 C 13 14.449 13.448 14 14 14 C 14.553 14 15 13.552 15 13 C 15 12.448 14.553 12 14 12 C 12.346 12 11 13.346 11 15 L 11 19 C 11 20.103 10.103 21 9 21 C 8.447 21 8 21.448 8 22 C 8 22.552 8.447 23 9 23 C 10.103 23 11 23.897 11 25 L 11 29 C 11 30.654 12.346 32 14 32 C 14.553 32 15 31.552 15 31 C 15 30.448 14.553 30 14 30 C 13.448 30 13 29.551 13 29 L 13 25 C 13 23.8 12.458 22.734 11.618 22 C 12.458 21.266 13 20.2 13 19 Z " fill="rgb(151,119,168)"/><path d=" M 19.5 18.5 C 19.5 17.672 20.172 17 21 17 C 21.828 17 22.5 17.672 22.5 18.5 C 22.5 19.328 21.828 20 21 20 C 20.172 20 19.5 19.328 19.5 18.5 Z " fill="rgb(151,119,168)"/><path d=" M 33 21 C 31.897 21 31 20.103 31 19 L 31 15 C 31 13.346 29.654 12 28 12 C 27.447 12 27 12.448 27 13 C 27 13.552 27.447 14 28 14 C 28.552 14 29 14.449 29 15 L 29 19 C 29 20.2 29.542 21.266 30.382 22 C 29.542 22.734 29 23.8 29 25 L 29 29 C 29 29.551 28.552 30 28 30 C 27.447 30 27 30.448 27 31 C 27 31.552 27.447 32 28 32 C 29.654 32 31 30.654 31 29 L 31 25 C 31 23.897 31.897 23 33 23 C 33.553 23 34 22.552 34 22 C 34 21.448 33.553 21 33 21 Z " fill="rgb(151,119,168)"/><path d=" M 21 24 C 20.447 24 20 24.448 20 25 L 20 28 C 20 28.552 20.447 29 21 29 C 21.553 29 22 28.552 22 28 L 22 25 C 22 24.448 21.553 24 21 24 Z " fill="rgb(151,119,168)"/></g></g></g></svg>