<?xml version="1.0" standalone="no"?><!-- Generator: Gravit.io --><svg xmlns="http://www.w3.org/2000/svg" xmlns:xlink="http://www.w3.org/1999/xlink" style="isolation:isolate" viewBox="0 0 43.003 56" width="43.003" height="56"><defs><clipPath id="_clipPath_r6BOkDkTCYPfcY7atbEy3sXnpRZEeR4W"><rect width="43.003" height="56"/></clipPath></defs><g clip-path="url(#_clipPath_r6BOkDkTCYPfcY7atbEy3sXnpRZEeR4W)"><clipPath id="_clipPath_kHgstHaBjCL9RACA5aowTYJ7Y1JGCpT8"><rect x="0" y="0" width="43.003" height="56" transform="matrix(1,0,0,1,0,0)" fill="rgb(255,255,255)"/></clipPath><g clip-path="url(#_clipPath_kHgstHaBjCL9RACA5aowTYJ7Y1JGCpT8)"><g id="Group"><g id="Group"><path d=" M 30.473 -0.225 L 1.451 -0.225 C 0.643 -0.225 -0.012 0.43 -0.012 1.701 L -0.012 54.775 C -0.012 55.12 0.643 55.775 1.451 55.775 L 41.525 55.775 C 42.333 55.775 42.988 55.12 42.988 54.775 L 42.988 12.753 C 42.988 12.057 42.895 11.833 42.731 11.668 L 31.095 0.032 C 30.93 -0.132 30.706 -0.225 30.473 -0.225 Z " fill="rgb(233,233,224)"/><path d=" M 30.988 -0.074 L 30.988 11.775 L 42.837 11.775 L 30.988 -0.074 Z " fill="rgb(217,215,202)"/><path d=" M 41.525 55.775 L 1.451 55.775 C 0.643 55.775 -0.012 55.12 -0.012 54.312 L -0.012 38.775 L 42.988 38.775 L 42.988 54.312 C 42.988 55.12 42.333 55.775 41.525 55.775 Z " fill="rgb(93,93,93)"/></g><g id="Group"><g transform="matrix(1,0,0,1,1.519,39.138)"><text transform="matrix(1,0,0,1,0,12.826)" style="font-family:&quot;Open Sans&quot;;font-weight:400;font-size:12px;font-style:normal;fill:#FFFFFF;stroke:none;">MySQL</text></g></g><linearGradient id="_lgradient_0" x1="0%" y1="50%" x2="90.63354552949518%" y2="92.25589218976363%"><stop offset="0%" stop-opacity="0.9267708191998496" style="stop-color:rgb(19,19,19)"/><stop offset="100%" stop-opacity="0.15441995336854775" style="stop-color:rgb(216,216,216)"/></linearGradient><path d=" M 36.204 34.427 C 35.69 33.703 34.858 33.102 33.976 32.465 C 33.027 31.781 32.053 31.077 31.564 30.259 C 33.417 29.872 35.76 29.171 35.873 29.137 C 36.075 29.077 36.233 28.919 36.293 28.717 C 36.353 28.516 36.308 28.297 36.172 28.136 C 36.051 27.993 33.214 24.663 28.634 23.03 C 28.432 22.625 28.207 22.107 27.945 21.507 C 26.1 17.275 22.271 8.492 12.168 7.31 C 11.363 6.766 9.253 5.414 8.194 5.414 C 6.88 5.414 6.319 5.974 6.319 7.289 C 6.319 7.928 6.84 8.676 7.689 9.843 C 8.104 10.414 8.798 11.369 8.819 11.664 C 8.819 12.687 10.006 15.998 11.199 17.415 C 11.165 17.488 11.13 17.559 11.097 17.63 C 10.568 18.744 10.069 19.796 10.069 22.289 C 10.069 25.571 11.641 27.289 13.194 27.289 C 14.158 27.289 14.637 26.195 14.868 24.914 C 15.724 26.652 17.123 28.916 19.083 30.299 C 19.366 30.497 19.756 30.43 19.955 30.149 C 20.154 29.867 20.087 29.477 19.805 29.278 C 16.697 27.084 15.054 22.144 15.038 22.094 C 14.943 21.803 14.644 21.622 14.346 21.671 C 14.042 21.72 13.819 21.981 13.819 22.288 C 13.819 24.005 13.492 25.833 13.194 26.038 C 12.292 26.038 11.319 24.605 11.319 22.288 C 11.319 20.077 11.719 19.234 12.226 18.166 C 12.32 17.966 12.418 17.761 12.515 17.542 C 12.627 17.29 12.561 16.995 12.352 16.815 C 11.389 15.985 10.069 12.494 10.069 11.664 C 10.069 11.024 9.548 10.276 8.699 9.109 C 8.284 8.538 7.59 7.583 7.569 7.289 C 7.569 6.663 7.569 6.663 8.194 6.663 C 8.701 6.663 10.352 7.58 11.591 8.429 C 11.675 8.487 11.774 8.524 11.877 8.535 C 21.376 9.565 24.904 17.658 26.799 22.007 C 27.118 22.739 27.394 23.372 27.643 23.835 C 27.718 23.974 27.844 24.08 27.993 24.131 C 31.113 25.188 33.439 27.163 34.529 28.224 C 33.464 28.523 31.764 28.977 30.591 29.172 C 30.419 29.201 30.267 29.3 30.171 29.446 C 30.076 29.592 30.045 29.771 30.088 29.94 C 30.472 31.478 31.945 32.541 33.244 33.479 C 34.04 34.052 34.79 34.594 35.184 35.15 C 35.306 35.322 35.499 35.414 35.694 35.414 C 35.82 35.414 35.945 35.376 36.055 35.299 C 36.337 35.099 36.404 34.709 36.204 34.427 Z  M 11.944 10.414 C 11.944 10.759 12.224 11.039 12.569 11.039 C 12.914 11.039 13.194 11.319 13.194 11.664 C 13.194 12.009 13.474 12.289 13.819 12.289 C 14.164 12.289 14.444 12.009 14.444 11.664 C 14.444 10.63 13.603 9.789 12.569 9.789 C 12.224 9.789 11.944 10.068 11.944 10.414 Z " fill="url(#_lgradient_0)"/></g></g></g></svg>