<?xml version="1.0" standalone="no"?><!-- Generator: Gravit.io --><svg xmlns="http://www.w3.org/2000/svg" xmlns:xlink="http://www.w3.org/1999/xlink" style="isolation:isolate" viewBox="0 0 43.155 56" width="43.155" height="56"><defs><clipPath id="_clipPath_FjBpz34xCY9WOedpdCRmDP5oNKD103C5"><rect width="43.155" height="56"/></clipPath></defs><g clip-path="url(#_clipPath_FjBpz34xCY9WOedpdCRmDP5oNKD103C5)"><clipPath id="_clipPath_Ny8c7fTAkz0N6TK1I1ZBrTaHyr6L8Ne1"><rect x="0" y="0" width="43.155" height="56" transform="matrix(1,0,0,1,0,0)" fill="rgb(255,255,255)"/></clipPath><g clip-path="url(#_clipPath_Ny8c7fTAkz0N6TK1I1ZBrTaHyr6L8Ne1)"><g id="Group"><clipPath id="_clipPath_jHEA6vBMbMba8ib2oXwfx6wXzoHyBRqb"><rect x="0" y="0" width="43.155" height="56" transform="matrix(1,0,0,1,0,0)" fill="rgb(255,255,255)"/></clipPath><g clip-path="url(#_clipPath_jHEA6vBMbMba8ib2oXwfx6wXzoHyBRqb)"><g id="Group"><g id="Group"><clipPath id="_clipPath_xje1maeyxpyoTMuZ1LXjfALP0Tevp3Sr"><rect x="-6.613" y="0" width="56" height="56" transform="matrix(1,0,0,1,0,0)" fill="rgb(255,255,255)"/></clipPath><g clip-path="url(#_clipPath_xje1maeyxpyoTMuZ1LXjfALP0Tevp3Sr)"><g id="Group"><g id="Group"><g id="Group"><g id="Group"><path d=" M 30.541 -0.225 L 1.519 -0.225 C 0.711 -0.225 0.056 0.43 0.056 1.701 L 0.056 54.775 C 0.056 55.12 0.711 55.775 1.519 55.775 L 41.593 55.775 C 42.401 55.775 43.056 55.12 43.056 54.775 L 43.056 12.753 C 43.056 12.057 42.963 11.833 42.799 11.668 L 31.163 0.032 C 30.998 -0.132 30.774 -0.225 30.541 -0.225 Z " fill="rgb(233,233,224)"/><path d=" M 31.056 -0.074 L 31.056 11.775 L 42.905 11.775 L 31.056 -0.074 L 31.056 -0.074 Z " fill="rgb(217,215,202)"/><path d=" M 41.593 55.775 L 1.519 55.775 C 0.711 55.775 0.056 55.12 0.056 54.312 L 0.056 38.775 L 43.056 38.775 L 43.056 54.312 C 43.056 55.12 42.401 55.775 41.593 55.775 Z " fill="rgb(85,184,231)"/></g><g id="Group"><g id="Group"><g id="Group"><g transform="matrix(1,0,0,1,9.557,39.138)"><text transform="matrix(1,0,0,1,0,12.826)" style="font-family:&quot;Open Sans&quot;;font-weight:400;font-size:12px;font-style:normal;fill:#FFFFFF;stroke:none;">PHP</text></g></g></g></g></g></g></g></g><clipPath id="_clipPath_Xnz8Iq1picEdBNDIddD2NwbOd5V6qAhs"><rect x="5.844" y="10.718" width="30.761" height="20" transform="matrix(1,0,0,1,0,0)" fill="rgb(255,255,255)"/></clipPath><g clip-path="url(#_clipPath_Xnz8Iq1picEdBNDIddD2NwbOd5V6qAhs)"><g id="Group"><g id="Group"><g id="Group"><path d=" M 19.315 28.631 L 19.253 24.571 C 19.152 25.785 21.499 25.425 23.046 25.238 C 24.345 25.15 25.554 25.381 25.602 24.282 L 25.848 28.396 C 26.878 28.745 29.39 29.146 30.181 27.717 L 30.105 22.659 C 30.884 21.014 32.162 19.855 30.86 16.379 L 34.223 16.336 C 34.68 16.564 35.119 16.745 35.514 16.802 C 35.733 16.634 36.053 16.459 36.145 16.176 L 36.175 15.399 C 36.243 15.076 36.003 14.985 35.697 14.944 L 34.944 14.977 L 34.254 15.371 L 29.779 15.364 C 26.68 13.584 24.03 13.12 20.144 13.858 C 19.877 13.554 19.778 13.319 19.043 13.313 C 17.288 13.224 16.35 13.876 15.273 14.403 C 12.709 14.322 11.654 14.557 10.963 14.775 C 10.635 14.878 10.414 14.92 10.195 15.076 C 9.894 15.29 9.769 15.451 9.504 15.906 C 8.823 17.076 7.912 19.755 8.335 27.144 C 8.629 27.542 8.903 27.983 9.369 27.992 C 10.431 28.413 10.48 27.801 10.703 27.538 C 10.251 23.066 11.305 22.568 12.405 22.029 C 14.327 21.86 13.775 22.163 14.406 23.195 C 14.484 23.324 14.891 23.948 14.99 24.086 L 14.955 28.416 C 16.631 29.162 17.72 29.079 19.315 28.631 Z " fill="rgb(85,184,231)" vector-effect="non-scaling-stroke" stroke-width="0.035" stroke="rgb(0,0,0)" stroke-opacity="1000000" stroke-linejoin="miter" stroke-linecap="butt" stroke-miterlimit="4"/><clipPath id="_clipPath_OuwDjWfnlW0Uyi8PJjGHzCG6e1hcciKF"><path d=" M 19.315 28.631 L 19.253 24.571 C 19.152 25.785 21.499 25.425 23.046 25.238 C 24.345 25.15 25.554 25.381 25.602 24.282 L 25.848 28.396 C 26.878 28.745 29.39 29.146 30.181 27.717 L 30.105 22.659 C 30.884 21.014 32.162 19.855 30.86 16.379 L 34.223 16.336 C 34.68 16.564 35.119 16.745 35.514 16.802 C 35.733 16.634 36.053 16.459 36.145 16.176 L 36.175 15.399 C 36.243 15.076 36.003 14.985 35.697 14.944 L 34.944 14.977 L 34.254 15.371 L 29.779 15.364 C 26.68 13.584 24.03 13.12 20.144 13.858 C 19.877 13.554 19.778 13.319 19.043 13.313 C 17.288 13.224 16.35 13.876 15.273 14.403 C 12.709 14.322 11.654 14.557 10.963 14.775 C 10.635 14.878 10.414 14.92 10.195 15.076 C 9.894 15.29 9.769 15.451 9.504 15.906 C 8.823 17.076 7.912 19.755 8.335 27.144 C 8.629 27.542 8.903 27.983 9.369 27.992 C 10.431 28.413 10.48 27.801 10.703 27.538 C 10.251 23.066 11.305 22.568 12.405 22.029 C 14.327 21.86 13.775 22.163 14.406 23.195 C 14.484 23.324 14.891 23.948 14.99 24.086 L 14.955 28.416 C 16.631 29.162 17.72 29.079 19.315 28.631 Z " fill="rgb(255,255,255)"/></clipPath><g clip-path="url(#_clipPath_OuwDjWfnlW0Uyi8PJjGHzCG6e1hcciKF)"><g id="Group"><g id="Group"><path d=" M 10.979 18.518 C 10.979 18.242 11.203 18.018 11.479 18.018 C 11.755 18.018 11.979 18.242 11.979 18.518 C 11.979 18.794 11.755 19.018 11.479 19.018 C 11.203 19.018 10.979 18.794 10.979 18.518 Z " fill="rgb(235,235,235)" vector-effect="non-scaling-stroke" stroke-width="0.01" stroke="rgb(0,0,0)" stroke-opacity="10000" stroke-linejoin="miter" stroke-linecap="square" stroke-miterlimit="3"/></g></g></g></g></g></g></g></g></g></g></g></g></g></svg>