<?xml version="1.0" standalone="no"?><!-- Generator: Gravit.io --><svg xmlns="http://www.w3.org/2000/svg" xmlns:xlink="http://www.w3.org/1999/xlink" style="isolation:isolate" viewBox="0 0 43 56" width="43" height="56"><defs><clipPath id="_clipPath_L7A739BslBeD8KI1FrMfhjQ9wglEonOu"><rect width="43" height="56"/></clipPath></defs><g clip-path="url(#_clipPath_L7A739BslBeD8KI1FrMfhjQ9wglEonOu)"><g id="Group"><g id="Group"><g id="Group" filter="url(#pYArnwAz5kshH8tyq3Rb7WrddBxLh1lt)"><path d=" M 30.595 0 L 1.468 0 C 0.657 0 0 0.655 0 1.926 L 0 55 C 0 55.345 0.657 56 1.468 56 L 41.687 56 C 42.498 56 43.155 55.345 43.155 55 L 43.155 12.978 C 43.155 12.282 43.062 12.058 42.897 11.893 L 31.219 0.257 C 31.054 0.093 30.829 0 30.595 0 Z " fill="rgb(233,233,224)"/></g><defs><filter id="pYArnwAz5kshH8tyq3Rb7WrddBxLh1lt" x="-200%" y="-200%" width="400%" height="400%"><feOffset xmlns="http://www.w3.org/2000/svg" in="SourceAlpha" result="offOut" dx="0" dy="0"/><feGaussianBlur xmlns="http://www.w3.org/2000/svg" in="offOut" result="blurOut" stdDeviation="1.25"/><feComponentTransfer xmlns="http://www.w3.org/2000/svg" in="blurOut" result="opacOut"><feFuncA xmlns="http://www.w3.org/2000/svg" type="table" tableValues="0 0.5"/></feComponentTransfer><feBlend xmlns="http://www.w3.org/2000/svg" in="SourceGraphic" in2="opacOut" mode="normal"/></filter></defs><path d=" M 31.112 0.151 L 31.112 12 L 43.003 12 L 31.112 0.151 Z " fill="rgb(217,215,202)"/><path d=" M 41.687 56 L 1.468 56 C 0.657 56 0 55.345 0 54.537 L 0 39 L 43.155 39 L 43.155 54.537 C 43.155 55.345 42.498 56 41.687 56 Z " fill="rgb(242,156,31)"/><g id="Group"><path d=" M 12.925 48.105 L 15.492 53 L 13.585 53 L 11.979 49.199 L 11.842 49.199 L 10.112 53 L 8.205 53 L 10.772 48.105 L 8.041 42.923 L 9.921 42.923 L 11.704 47.025 L 11.842 47.025 L 13.776 42.923 L 15.656 42.923 L 12.925 48.105 Z " fill="rgb(255,255,255)"/><path d=" M 25.59 42.924 L 27.264 42.924 L 27.264 53 L 25.59 53 L 25.59 46.068 L 23.326 51.673 L 21.872 51.673 L 19.593 46.068 L 19.593 53 L 17.919 53 L 17.919 42.924 L 19.593 42.924 L 22.598 49.815 L 25.59 42.924 Z " fill="rgb(255,255,255)"/><path d=" M 31.476 42.924 L 31.476 51.756 L 36.128 51.756 L 36.128 53 L 29.802 53 L 29.802 42.924 L 31.476 42.924 Z " fill="rgb(255,255,255)"/></g><path d=" M 9.032 24 C 8.776 24 8.519 23.902 8.323 23.707 C 7.93 23.316 7.93 22.684 8.323 22.293 L 14.345 16.293 C 14.737 15.902 15.371 15.902 15.764 16.293 C 16.156 16.684 16.156 17.316 15.764 17.707 L 9.742 23.707 C 9.546 23.902 9.289 24 9.032 24 Z " fill="rgb(242,156,31)"/><path d=" M 15.054 30 C 14.797 30 14.54 29.902 14.345 29.707 L 8.323 23.707 C 7.93 23.316 7.93 22.684 8.323 22.293 C 8.715 21.902 9.35 21.902 9.742 22.293 L 15.764 28.293 C 16.156 28.684 16.156 29.316 15.764 29.707 C 15.568 29.902 15.311 30 15.054 30 Z " fill="rgb(242,156,31)"/><path d=" M 27.097 30 C 26.84 30 26.583 29.902 26.388 29.707 C 25.995 29.316 25.995 28.684 26.388 28.293 L 32.409 22.293 C 32.802 21.902 33.436 21.902 33.829 22.293 C 34.221 22.684 34.221 23.316 33.829 23.707 L 27.807 29.707 C 27.611 29.902 27.354 30 27.097 30 Z " fill="rgb(242,156,31)"/><path d=" M 33.119 24 C 32.862 24 32.605 23.902 32.409 23.707 L 26.388 17.707 C 25.995 17.316 25.995 16.684 26.388 16.293 C 26.78 15.902 27.414 15.902 27.807 16.293 L 33.829 22.293 C 34.221 22.684 34.221 23.316 33.829 23.707 C 33.633 23.902 33.376 24 33.119 24 Z " fill="rgb(242,156,31)"/><path d=" M 18.065 32 C 17.954 32 17.841 31.981 17.731 31.942 C 17.208 31.758 16.934 31.187 17.118 30.666 L 23.14 13.666 C 23.326 13.145 23.896 12.871 24.421 13.056 C 24.944 13.24 25.218 13.811 25.033 14.332 L 19.011 31.332 C 18.866 31.744 18.478 32 18.065 32 Z " fill="rgb(242,156,31)"/></g></g></g></svg>