<?xml version="1.0" standalone="no"?><!-- Generator: Gravit.io --><svg xmlns="http://www.w3.org/2000/svg" xmlns:xlink="http://www.w3.org/1999/xlink" style="isolation:isolate" viewBox="0 0 48 48" width="48" height="48"><defs><clipPath id="_clipPath_kdPW0d2xjgCZ72ix2Orn3fxzC64cDxxV"><rect width="48" height="48"/></clipPath></defs><g clip-path="url(#_clipPath_kdPW0d2xjgCZ72ix2Orn3fxzC64cDxxV)"><clipPath id="_clipPath_77PODzaCt9tGuzUilGTbjqOUBcJZNSRP"><rect x="0" y="0" width="48" height="48" transform="matrix(1,0,0,1,0,0)" fill="rgb(255,255,255)"/></clipPath><g clip-path="url(#_clipPath_77PODzaCt9tGuzUilGTbjqOUBcJZNSRP)"><g id="Group"><clipPath id="_clipPath_98mZgZpqAXlAEnIMrCBdhooJDDBDa3Y8"><rect x="0" y="0" width="48" height="48" transform="matrix(1,0,0,1,0,0)" fill="rgb(255,255,255)"/></clipPath><g clip-path="url(#_clipPath_98mZgZpqAXlAEnIMrCBdhooJDDBDa3Y8)"><g id="Group"><g id="Group"><path d=" M 24 24 C 29.525 24 34 19.525 34 14 C 34 8.475 29.525 4 24 4 C 18.475 4 14 8.475 14 14 C 14 19.525 18.475 24 24 24 Z  M 24 29 C 17.325 29 4 32.35 4 39 L 4 44 L 44 44 L 44 39 C 44 32.35 30.675 29 24 29 Z " fill="rgb(185,185,185)"/><path d=" M 0 0 L 48 0 L 48 48 L 0 48 L 0 0 L 0 0 L 0 0 Z " fill="none"/></g></g></g></g></g></g></svg>