<?xml version="1.0" standalone="no"?><!-- Generator: Gravit.io --><svg xmlns="http://www.w3.org/2000/svg" xmlns:xlink="http://www.w3.org/1999/xlink" style="isolation:isolate" viewBox="0 0 48 48" width="48" height="48"><defs><clipPath id="_clipPath_ec4Rl3ZzEItPU6VpUw0KOPmMwr0f2IO8"><rect width="48" height="48"/></clipPath></defs><g clip-path="url(#_clipPath_ec4Rl3ZzEItPU6VpUw0KOPmMwr0f2IO8)"><clipPath id="_clipPath_pzS4g4y9fZr9Gd7H7rGBFvpSwiTvAYFj"><rect x="0" y="0" width="48" height="48" transform="matrix(1,0,0,1,0,0)" fill="rgb(255,255,255)"/></clipPath><g clip-path="url(#_clipPath_pzS4g4y9fZr9Gd7H7rGBFvpSwiTvAYFj)"><g id="Group"><clipPath id="_clipPath_FUlUM7MSA3nMiAcJomsRrGNiILtSGSAx"><rect x="0" y="0" width="48" height="48" transform="matrix(1,0,0,1,0,0)" fill="rgb(255,255,255)"/></clipPath><g clip-path="url(#_clipPath_FUlUM7MSA3nMiAcJomsRrGNiILtSGSAx)"><g id="Group"><g id="Group"><path d=" M 40 4 L 8 4 C 5.8 4 4.02 5.8 4.02 8 L 4 44 L 12 36 L 40 36 C 42.2 36 44 34.2 44 32 L 44 8 C 44 5.8 42.2 4 40 4 Z  M 36 28 L 12 28 L 12 24 L 36 24 L 36 28 L 36 28 Z  M 36 22 L 12 22 L 12 18 L 36 18 L 36 22 L 36 22 Z  M 36 16 L 12 16 L 12 12 L 36 12 L 36 16 L 36 16 Z " fill="rgb(185,185,185)"/><path d=" M 0 0 L 48 0 L 48 48 L 0 48 L 0 0 L 0 0 L 0 0 Z " fill="none"/></g></g></g></g></g></g></svg>