<?xml version="1.0" standalone="no"?><!-- Generator: Gravit.io --><svg xmlns="http://www.w3.org/2000/svg" xmlns:xlink="http://www.w3.org/1999/xlink" style="isolation:isolate" viewBox="0 0 48 48" width="48" height="48"><defs><clipPath id="_clipPath_AeAYMJfdQK1b3PVBG5ba0A7ISY23sUsu"><rect width="48" height="48"/></clipPath></defs><g clip-path="url(#_clipPath_AeAYMJfdQK1b3PVBG5ba0A7ISY23sUsu)"><clipPath id="_clipPath_kAdCQYN8gTUfIXaQpmiUMwPvIvgOMutc"><rect x="0" y="0" width="48" height="48" transform="matrix(1,0,0,1,0,0)" fill="rgb(255,255,255)"/></clipPath><g clip-path="url(#_clipPath_kAdCQYN8gTUfIXaQpmiUMwPvIvgOMutc)"><g id="Group"><clipPath id="_clipPath_d6AHAAVvMLYxdu0E78Pi1hTcFikBQlHi"><rect x="0" y="0" width="48" height="48" transform="matrix(1,0,0,1,0,0)" fill="rgb(255,255,255)"/></clipPath><g clip-path="url(#_clipPath_d6AHAAVvMLYxdu0E78Pi1hTcFikBQlHi)"><g id="Group"><g id="Group"><path d=" M 20 41 L 20 29 L 28 29 L 28 41 L 38 41 L 38 25 L 44 25 L 24 7 L 4 25 L 10 25 L 10 41 L 20 41 L 20 41 Z " fill="rgb(185,185,185)"/><path d=" M 0 0 L 48 0 L 48 48 L 0 48 L 0 0 L 0 0 L 0 0 Z " fill="none"/></g></g></g></g></g></g></svg>