<?xml version="1.0" standalone="no"?><!-- Generator: Gravit.io --><svg xmlns="http://www.w3.org/2000/svg" xmlns:xlink="http://www.w3.org/1999/xlink" style="isolation:isolate" viewBox="0 0 48 48" width="48" height="48"><defs><clipPath id="_clipPath_xJ8tuaWFkWGevP7ZXYdmtoxMhK9XjWDV"><rect width="48" height="48"/></clipPath></defs><g clip-path="url(#_clipPath_xJ8tuaWFkWGevP7ZXYdmtoxMhK9XjWDV)"><clipPath id="_clipPath_zpZ7TblWY2vgst1XBNtaJYqEXe2uxTei"><rect x="0" y="0" width="48" height="48" transform="matrix(1,0,0,1,0,0)" fill="rgb(255,255,255)"/></clipPath><g clip-path="url(#_clipPath_zpZ7TblWY2vgst1XBNtaJYqEXe2uxTei)"><g id="Group"><clipPath id="_clipPath_Dw5ztfO6pdSTAQLcLoIhKNZTIhYjMFzb"><rect x="0" y="0" width="48" height="48" transform="matrix(1,0,0,1,0,0)" fill="rgb(255,255,255)"/></clipPath><g clip-path="url(#_clipPath_Dw5ztfO6pdSTAQLcLoIhKNZTIhYjMFzb)"><g id="Group"><g id="Group"><path d=" M 39.636 4 C 37.23 4 35.273 5.957 35.273 8.364 C 35.273 9.116 35.464 9.825 35.801 10.444 L 28.652 17.592 C 27.667 16.825 26.433 16.364 25.091 16.364 C 23.748 16.364 22.515 16.825 21.529 17.591 L 15.951 12.014 C 16.207 11.581 16.364 11.084 16.364 10.545 C 16.364 8.941 15.059 7.636 13.455 7.636 C 11.85 7.636 10.545 8.941 10.545 10.545 C 10.545 12.15 11.85 13.455 13.455 13.455 C 13.993 13.455 14.49 13.298 14.923 13.042 L 20.5 18.62 C 19.734 19.606 19.273 20.839 19.273 22.182 C 19.273 23.524 19.734 24.758 20.5 25.743 L 11.29 34.954 C 10.515 34.251 9.49 33.818 8.364 33.818 C 5.957 33.818 4 35.775 4 38.182 C 4 40.588 5.957 42.545 8.364 42.545 C 10.77 42.545 12.727 40.588 12.727 38.182 C 12.727 37.429 12.536 36.721 12.199 36.102 L 21.529 26.772 C 22.334 27.397 23.304 27.816 24.364 27.949 L 24.364 35.338 C 22.304 35.686 20.728 37.478 20.728 39.636 C 20.728 42.043 22.685 44 25.092 44 C 27.498 44 29.455 42.043 29.455 39.636 C 29.455 37.479 27.879 35.687 25.819 35.338 L 25.819 27.949 C 26.879 27.816 27.849 27.397 28.654 26.772 L 34.231 32.349 C 33.975 32.783 33.818 33.28 33.818 33.818 C 33.818 35.423 35.123 36.727 36.727 36.727 C 38.332 36.727 39.636 35.423 39.636 33.818 C 39.636 32.214 38.332 30.909 36.727 30.909 C 36.189 30.909 35.692 31.065 35.259 31.321 L 29.681 25.744 C 30.448 24.758 30.909 23.524 30.909 22.182 C 30.909 20.839 30.448 19.606 29.681 18.62 L 36.711 11.591 C 37.485 12.295 38.51 12.727 39.636 12.727 C 42.043 12.727 44 10.77 44 8.364 C 44 5.957 42.043 4 39.636 4 Z " fill="rgb(185,185,185)"/></g></g></g></g></g></g></svg>