<?xml version="1.0" standalone="no"?><!-- Generator: Gravit.io --><svg xmlns="http://www.w3.org/2000/svg" xmlns:xlink="http://www.w3.org/1999/xlink" style="isolation:isolate" viewBox="0 0 48 48" width="48" height="48"><defs><clipPath id="_clipPath_hx2n0Z8O9gpVDosA7TehPGIbUC3trMg0"><rect width="48" height="48"/></clipPath></defs><g clip-path="url(#_clipPath_hx2n0Z8O9gpVDosA7TehPGIbUC3trMg0)"><clipPath id="_clipPath_NjvJg2toUhAuBK83TmuRwdchrIX66UFP"><rect x="0" y="0" width="48" height="48" transform="matrix(1,0,0,1,0,0)" fill="rgb(255,255,255)"/></clipPath><g clip-path="url(#_clipPath_NjvJg2toUhAuBK83TmuRwdchrIX66UFP)"><g id="Group"><clipPath id="_clipPath_ebm8kb2juuLnrBVMUbQ2VBJQ84OTw7Ef"><rect x="0" y="0" width="48" height="48" transform="matrix(1,0,0,1,0,0)" fill="rgb(255,255,255)"/></clipPath><g clip-path="url(#_clipPath_ebm8kb2juuLnrBVMUbQ2VBJQ84OTw7Ef)"><g id="Group"><g id="Group"><path d=" M 11.922 19.54 C 12.726 19.54 13.516 19.413 14.276 19.167 L 18.798 23.746 L 23.749 18.729 L 19.23 14.145 C 20.101 11.386 19.385 8.329 17.355 6.272 C 15.91 4.807 13.985 4 11.943 4 C 10.801 4 9.657 4.262 8.63 4.758 C 8.475 4.833 8.366 4.979 8.337 5.15 C 8.309 5.321 8.363 5.495 8.484 5.618 L 13.241 10.441 C 13.592 10.796 13.786 11.268 13.786 11.769 C 13.786 12.271 13.592 12.743 13.241 13.098 C 12.542 13.808 11.32 13.808 10.62 13.096 L 5.862 8.275 C 5.74 8.152 5.564 8.097 5.4 8.126 C 5.231 8.155 5.087 8.265 5.014 8.422 C 3.616 11.391 4.215 14.945 6.507 17.267 C 7.953 18.732 9.876 19.54 11.922 19.54 Z " fill="rgb(185,185,185)"/><path d=" M 36.08 28.459 C 35.275 28.459 34.484 28.587 33.723 28.834 L 28.722 23.765 L 23.767 28.786 L 28.769 33.855 C 27.9 36.613 28.615 39.67 30.644 41.728 C 32.09 43.193 34.014 44 36.057 44 C 37.199 44 38.343 43.737 39.37 43.241 C 39.525 43.166 39.634 43.02 39.663 42.849 C 39.692 42.678 39.637 42.504 39.516 42.381 L 34.759 37.558 C 34.409 37.203 34.215 36.732 34.215 36.231 C 34.215 35.729 34.408 35.258 34.76 34.902 C 35.461 34.191 36.68 34.192 37.38 34.903 L 42.138 39.724 C 42.259 39.847 42.429 39.901 42.599 39.873 C 42.768 39.843 42.912 39.733 42.986 39.576 C 44.384 36.608 43.785 33.054 41.493 30.733 C 40.047 29.267 38.125 28.459 36.08 28.459 Z " fill="rgb(185,185,185)"/><path d=" M 34.045 17.028 C 34.045 17.028 34.872 17.763 35.555 17.42 C 36.326 17.026 38.499 19.197 39.192 19.705 C 39.194 19.707 39.199 19.707 39.207 19.711 L 38.828 20.097 C 38.328 20.598 38.328 21.417 38.827 21.919 C 39.326 22.423 40.129 22.422 40.628 21.919 L 43.628 18.882 C 44.124 18.377 44.124 17.56 43.627 17.056 C 43.132 16.554 42.324 16.554 41.827 17.056 L 41.328 17.562 C 40.914 16.984 40.226 15.999 40.313 15.673 C 40.679 14.244 37.804 10.868 37.804 10.868 C 30.665 3.634 25.896 3.798 23.628 4.589 C 22.717 4.907 22.886 5.108 23.832 5.276 C 30.715 6.494 31.568 10.608 30.402 12.195 C 29.953 12.808 30.607 13.547 30.607 13.547 L 30.853 13.795 L 19.232 25.571 C 19.39 25.667 19.543 25.777 19.678 25.914 L 21.633 27.894 C 21.765 28.029 21.874 28.183 21.968 28.342 L 33.59 16.566 L 34.045 17.028 L 34.045 17.028 L 34.045 17.028 Z " fill="rgb(185,185,185)"/><path d=" M 18.896 26.706 C 18.467 26.271 17.737 26.243 17.278 26.647 L 4.363 38.381 C 3.902 38.785 3.877 39.471 4.306 39.907 L 7.824 43.47 C 8.254 43.905 8.93 43.881 9.328 43.416 L 20.91 30.323 C 21.306 29.859 21.281 29.122 20.851 28.687 L 18.896 26.706 L 18.896 26.706 L 18.896 26.706 Z " fill="rgb(185,185,185)"/></g></g></g></g></g></g></svg>