<?xml version="1.0" standalone="no"?><!-- Generator: Gravit.io --><svg xmlns="http://www.w3.org/2000/svg" xmlns:xlink="http://www.w3.org/1999/xlink" style="isolation:isolate" viewBox="0 0 32.468 21.666" width="32.468" height="21.666"><defs><clipPath id="_clipPath_UG0ExxenGRlm1MbAlYlPwCiQZtIR74nB"><rect width="32.468" height="21.666"/></clipPath></defs><g clip-path="url(#_clipPath_UG0ExxenGRlm1MbAlYlPwCiQZtIR74nB)"><path d=" M 22.704 7.463 C 22.487 7.463 22.271 7.354 22.135 7.156 C 22.036 7.007 22.001 6.824 22.038 6.649 C 22.076 6.474 22.182 6.322 22.334 6.226 L 23.236 5.64 C 23.552 5.441 23.967 5.523 24.166 5.838 C 24.373 6.145 24.283 6.569 23.967 6.768 L 23.065 7.354 C 22.957 7.427 22.83 7.463 22.704 7.463 Z  M 29.779 0 L 2.689 0 C 1.209 0 0 1.209 0 2.689 L 0 18.977 C 0 20.457 1.209 21.666 2.689 21.666 L 29.779 21.666 C 31.258 21.666 32.468 20.457 32.468 18.977 L 32.468 2.689 C 32.468 1.209 31.267 0 29.779 0 L 29.779 0 Z  M 31.123 18.977 C 31.123 19.717 30.518 20.322 29.779 20.322 L 2.689 20.322 C 1.949 20.322 1.345 19.717 1.345 18.977 L 1.345 2.689 C 1.345 2.5 1.381 2.328 1.453 2.166 L 12.209 9.186 L 3.366 17.822 C 3.102 18.081 3.098 18.505 3.357 18.769 C 3.616 19.034 4.04 19.038 4.304 18.779 L 13.364 9.935 L 15.864 11.569 C 16.089 11.714 16.379 11.714 16.604 11.569 L 19.103 9.935 L 28.118 18.769 C 28.384 19.025 28.805 19.021 29.066 18.76 C 29.327 18.499 29.318 18.066 29.057 17.813 L 20.249 9.186 L 21.359 8.455 C 21.666 8.257 21.756 7.833 21.558 7.526 C 21.353 7.219 20.941 7.131 20.628 7.327 L 18.806 8.518 L 16.234 10.197 L 2.662 1.336 L 29.806 1.336 L 25.113 4.395 C 24.806 4.599 24.718 5.012 24.915 5.324 C 25.039 5.517 25.254 5.633 25.483 5.631 C 25.61 5.631 25.736 5.595 25.853 5.523 L 31.015 2.148 C 31.088 2.312 31.125 2.491 31.123 2.671 L 31.123 18.977 L 31.123 18.977 Z " fill="rgb(209,209,209)"/></g></svg>