<?xml version="1.0" standalone="no"?><!-- Generator: Gravit.io --><svg xmlns="http://www.w3.org/2000/svg" xmlns:xlink="http://www.w3.org/1999/xlink" style="isolation:isolate" viewBox="0 0 17 25.075" width="17" height="25.075"><defs><clipPath id="_clipPath_WMak7RG0cPrReN5tGLgVxYOF7XmJcJWh"><rect width="17" height="25.075"/></clipPath></defs><g clip-path="url(#_clipPath_WMak7RG0cPrReN5tGLgVxYOF7XmJcJWh)"><path d=" M 8.5 0 L 7.118 2.02 C 7.118 2.02 5.352 4.542 3.612 7.545 C 2.732 9.04 1.934 10.583 1.222 12.165 C 0.544 13.707 0 15.127 0 16.575 C 0 21.243 3.832 25.075 8.5 25.075 C 13.168 25.075 17 21.243 17 16.575 C 17 15.127 16.456 13.705 15.778 12.165 C 15.066 10.583 14.268 9.04 13.388 7.545 C 11.648 4.542 9.88 2.02 9.88 2.02 L 8.5 0 Z  M 8.5 6.163 C 9.144 7.138 9.45 7.584 10.412 9.245 C 11.242 10.678 12.099 12.192 12.697 13.546 C 13.294 14.902 13.6 16.157 13.6 16.575 C 13.6 19.392 11.317 21.675 8.5 21.675 C 5.683 21.675 3.4 19.392 3.4 16.575 C 3.4 16.157 3.706 14.902 4.303 13.547 C 4.901 12.192 5.758 10.678 6.588 9.243 C 7.55 7.584 7.856 7.138 8.5 6.163 Z " fill-rule="evenodd" fill="rgb(209,209,209)"/></g></svg>