<?xml version="1.0" standalone="no"?><!-- Generator: Gravit.io --><svg xmlns="http://www.w3.org/2000/svg" xmlns:xlink="http://www.w3.org/1999/xlink" style="isolation:isolate" viewBox="0 0 152.856 46.816" width="152.856" height="46.816"><defs><clipPath id="_clipPath_tdZvjoHhxs4Iv24zhLdmrGarKuVw0aoD"><rect width="152.856" height="46.816"/></clipPath></defs><g clip-path="url(#_clipPath_tdZvjoHhxs4Iv24zhLdmrGarKuVw0aoD)"><clipPath id="_clipPath_AsyFNwphqLMjN3BekaFF3l0bk4qfC5Zw"><rect x="0" y="0" width="152.856" height="46.816" transform="matrix(1,0,0,1,0,0)" fill="rgb(255,255,255)"/></clipPath><g clip-path="url(#_clipPath_AsyFNwphqLMjN3BekaFF3l0bk4qfC5Zw)"><g id="Group"><defs><filter id="0XO17uUFGNGBoCQm7epbt3OP0s9OCBLk" x="-200%" y="-200%" width="400%" height="400%"><feOffset xmlns="http://www.w3.org/2000/svg" in="SourceAlpha" result="offOut" dx="0" dy="0"/><feGaussianBlur xmlns="http://www.w3.org/2000/svg" in="offOut" result="blurOut" stdDeviation="2.5"/><feComponentTransfer xmlns="http://www.w3.org/2000/svg" in="blurOut" result="opacOut"><feFuncA xmlns="http://www.w3.org/2000/svg" type="table" tableValues="0 0.5"/></feComponentTransfer><feBlend xmlns="http://www.w3.org/2000/svg" in="SourceGraphic" in2="opacOut" mode="normal"/></filter></defs><g filter="url(#0XO17uUFGNGBoCQm7epbt3OP0s9OCBLk)"><path d=" M 55.129 0.038 L 61.675 0.004 L 44.233 46.816 L 36.831 46.816 L 55.129 0.038 Z " fill="rgb(56,133,249)"/></g><g opacity="0.7"><path d=" M 61.672 0 L 58.201 9.032 L 72.432 46.765 L 79.763 46.765 L 61.672 0 Z " fill="rgb(56,133,249)"/></g><path d=" M 98.648 2.125 L 95.295 10.859 L 110.235 46.77 L 117.678 46.668 L 98.648 2.125 Z " fill="rgb(109,163,245)"/><defs><filter id="tAeCiLfG9Y026W8zYZDRcNjeEwty72vu" x="-200%" y="-200%" width="400%" height="400%"><feOffset xmlns="http://www.w3.org/2000/svg" in="SourceAlpha" result="offOut" dx="0" dy="0"/><feGaussianBlur xmlns="http://www.w3.org/2000/svg" in="offOut" result="blurOut" stdDeviation="2.5"/><feComponentTransfer xmlns="http://www.w3.org/2000/svg" in="blurOut" result="opacOut"><feFuncA xmlns="http://www.w3.org/2000/svg" type="table" tableValues="0 0.5"/></feComponentTransfer><feBlend xmlns="http://www.w3.org/2000/svg" in="SourceGraphic" in2="opacOut" mode="normal"/></filter></defs><g filter="url(#tAeCiLfG9Y026W8zYZDRcNjeEwty72vu)"><path d=" M 90.812 0.038 L 97.358 0.003 L 79.917 46.816 L 72.515 46.816 L 90.812 0.038 Z " fill="rgb(56,133,249)"/></g></g></g></g></svg>