<?xml version="1.0" encoding="UTF-8" standalone="no"?>
<!-- Created with Inkscape (http://www.inkscape.org/) -->

<svg
   xmlns:dc="http://purl.org/dc/elements/1.1/"
   xmlns:cc="http://creativecommons.org/ns#"
   xmlns:rdf="http://www.w3.org/1999/02/22-rdf-syntax-ns#"
   xmlns:svg="http://www.w3.org/2000/svg"
   xmlns="http://www.w3.org/2000/svg"
   xmlns:sodipodi="http://sodipodi.sourceforge.net/DTD/sodipodi-0.dtd"
   xmlns:inkscape="http://www.inkscape.org/namespaces/inkscape"
   width="95"
   height="94.999977"
   viewBox="0 0 25.135416 25.135411"
   version="1.1"
   id="svg8"
   inkscape:version="0.92.5 (2060ec1f9f, 2020-04-08)"
   sodipodi:docname="aws.svg">
  <defs
     id="defs2" />
  <sodipodi:namedview
     id="base"
     pagecolor="#ffffff"
     bordercolor="#666666"
     borderopacity="1.0"
     inkscape:pageopacity="0.0"
     inkscape:pageshadow="2"
     inkscape:zoom="5.6"
     inkscape:cx="60.638375"
     inkscape:cy="48.402247"
     inkscape:document-units="mm"
     inkscape:current-layer="layer1"
     showgrid="false"
     fit-margin-top="0"
     fit-margin-left="0"
     fit-margin-right="0"
     fit-margin-bottom="0"
     inkscape:pagecheckerboard="true"
     showborder="false"
     inkscape:window-width="1920"
     inkscape:window-height="1048"
     inkscape:window-x="0"
     inkscape:window-y="0"
     inkscape:window-maximized="1"
     units="px" />
  <metadata
     id="metadata5">
    <rdf:RDF>
      <cc:Work
         rdf:about="">
        <dc:format>image/svg+xml</dc:format>
        <dc:type
           rdf:resource="http://purl.org/dc/dcmitype/StillImage" />
        <dc:title></dc:title>
      </cc:Work>
    </rdf:RDF>
  </metadata>
  <g
     inkscape:label="Layer 1"
     inkscape:groupmode="layer"
     id="layer1"
     transform="translate(-68.682121,-116.79051)">
    <g
       id="g841">
      <rect
         y="116.79051"
         x="68.682121"
         height="25.13541"
         width="25.135416"
         id="rect837"
         style="opacity:1;fill:#ffffff;fill-opacity:0;stroke:none;stroke-width:2.64583325;stroke-linecap:round;stroke-linejoin:round;stroke-miterlimit:4;stroke-dasharray:none;stroke-opacity:1" />
      <path
         style="fill:#464646;fill-opacity:1;stroke-width:0.03824429"
         inkscape:connector-curvature="0"
         d="m 75.911184,127.33203 c -0.02754,0.86623 0.405389,1.24983 0.416098,1.49344 a 0.31222639,0.31222639 0 0 1 -0.156802,0.23979 l -0.489527,0.34267 a 0.40768415,0.40768415 0 0 1 -0.215315,0.0734 c -0.01644,-7.2e-4 -0.313221,0.07 -0.783243,-0.97944 a 3.0063073,3.0063073 0 0 1 -2.394476,1.1263 c -0.622617,0.034 -2.309954,-0.35338 -2.22314,-2.14972 -0.06081,-1.46399 1.3026,-2.37343 2.712668,-2.29657 0.271533,7.7e-4 0.826076,0.0141 1.797099,0.2398 v -0.59737 c 0.102877,-1.01195 -0.562191,-1.7971 -1.713727,-1.67932 -0.09179,3.9e-4 -0.741939,-0.0191 -1.753118,0.38666 -0.281478,0.12926 -0.317428,0.10785 -0.411126,0.10785 -0.28339,0 -0.166746,-0.8215 -0.112439,-0.92552 0.199253,-0.24476 1.37144,-0.70178 2.521829,-0.69528 a 2.9393415,2.9393415 0 0 1 2.129825,0.66087 2.6880001,2.6880001 0 0 1 0.675776,2.00246 z m -3.305072,1.23873 c 1.240263,-0.0179 1.765357,-0.76374 1.885061,-1.1653 0.09408,-0.38436 0.0784,-0.62759 0.0784,-1.0479 -0.369823,-0.0887 -0.902183,-0.18548 -1.512944,-0.18624 -0.579401,-0.0436 -1.63762,0.21531 -1.596317,1.23376 -0.04742,0.64212 0.425276,1.20087 1.145799,1.16568 z m 6.536714,0.88153 c -0.3006,0.0276 -0.440574,-0.18586 -0.484937,-0.39659 l -1.904566,-6.29692 c -0.03709,-0.10632 -0.06157,-0.21608 -0.07343,-0.32814 a 0.17630619,0.17630619 0 0 1 0.147623,-0.20078 c 0.0092,-0.002 -0.08146,0 0.850936,0 0.335784,-0.0337 0.445163,0.23062 0.479965,0.39659 l 1.366087,5.38595 1.26818,-5.38595 c 0.02027,-0.12314 0.112439,-0.42337 0.489527,-0.39162 h 0.656272 c 0.08299,-0.007 0.424894,-0.0191 0.484937,0.3966 l 1.278125,5.45478 1.410068,-5.45478 c 0.01835,-0.0834 0.104024,-0.43484 0.484937,-0.3966 h 0.754177 c 0.03251,-0.005 0.235202,-0.031 0.200782,0.32814 -0.01644,0.0707 0.130413,-0.40768 -2.017386,6.4977 -0.04398,0.21073 -0.184337,0.42414 -0.484936,0.3966 H 83.3344 c -0.418393,0.044 -0.478436,-0.36944 -0.484938,-0.41113 l -1.268181,-5.24444 -1.253647,5.23909 c -0.0061,0.0417 -0.06616,0.4551 -0.484938,0.41112 h -0.699871 z m 10.459049,0.21532 c -0.224876,4.3e-4 -1.297247,-0.0115 -2.193693,-0.47002 a 0.48960341,0.48960341 0 0 1 -0.298688,-0.4555 v -0.41112 c 0,-0.32316 0.237115,-0.26389 0.337698,-0.22525 0.383973,0.15526 0.630267,0.27306 1.101818,0.36714 1.401653,0.28798 2.01815,-0.088 2.169216,-0.17133 0.502913,-0.2987 0.542688,-0.98212 0.200783,-1.33664 -0.4008,-0.33617 -0.592022,-0.34879 -2.03192,-0.80314 -0.177453,-0.0494 -1.671274,-0.5205 -1.674718,-2.00247 -0.02333,-1.08002 0.958021,-2.14856 2.658745,-2.13976 0.484555,-3.8e-4 1.775681,0.15795 2.125234,0.59738 0.05163,0.0799 0.07725,0.17401 0.07343,0.26923 v 0.38666 c 0,0.1698 -0.06195,0.2547 -0.186249,0.2547 -0.294865,-0.0329 -0.818046,-0.42719 -1.880089,-0.41112 -0.263503,-0.0137 -1.525565,0.0348 -1.468964,0.95495 -0.01644,0.72512 1.017681,0.99703 1.135855,1.02839 1.394387,0.41954 1.860585,0.48915 2.41398,1.13126 0.655507,0.85094 0.30213,1.84721 0.166363,2.12027 -0.729701,1.43378 -2.616674,1.31713 -2.6488,1.31637 z m 1.53742,4.0103 c -2.678247,1.97799 -6.566161,3.03085 -9.885766,3.03085 a 17.941431,17.941431 0 0 1 -12.133767,-4.61723 c -0.249735,-0.22525 -0.02945,-0.53389 0.274212,-0.36217 a 24.375764,24.375764 0 0 0 12.118851,3.21711 24.102317,24.102317 0 0 0 9.239439,-1.89501 c 0.450518,-0.19122 0.832578,0.29831 0.387031,0.62645 z m 1.116352,-1.27316 c -0.342669,-0.44057 -2.267121,-0.20576 -3.128765,-0.10287 -0.25968,0.0294 -0.303661,-0.19581 -0.06846,-0.36218 1.53245,-1.07733 4.049305,-0.76871 4.338432,-0.40653 0.288745,0.36217 -0.0784,2.884 -1.512944,4.08869 -0.220287,0.18625 -0.431014,0.088 -0.333107,-0.1568 0.322782,-0.81269 1.04751,-2.61935 0.704843,-3.06031 z"
         id="path826" />
    </g>
  </g>
</svg>
