<?xml version="1.0" encoding="UTF-8" standalone="no"?>
<!-- Created with Inkscape (http://www.inkscape.org/) -->

<svg
   xmlns:dc="http://purl.org/dc/elements/1.1/"
   xmlns:cc="http://creativecommons.org/ns#"
   xmlns:rdf="http://www.w3.org/1999/02/22-rdf-syntax-ns#"
   xmlns:svg="http://www.w3.org/2000/svg"
   xmlns="http://www.w3.org/2000/svg"
   xmlns:sodipodi="http://sodipodi.sourceforge.net/DTD/sodipodi-0.dtd"
   xmlns:inkscape="http://www.inkscape.org/namespaces/inkscape"
   width="25.135416mm"
   height="25.13541mm"
   viewBox="0 0 25.135416 25.135411"
   version="1.1"
   id="svg8"
   inkscape:version="0.92.5 (2060ec1f9f, 2020-04-08)"
   sodipodi:docname="gcp.svg">
  <defs
     id="defs2" />
  <sodipodi:namedview
     id="base"
     pagecolor="#ffffff"
     bordercolor="#666666"
     borderopacity="1.0"
     inkscape:pageopacity="0.0"
     inkscape:pageshadow="2"
     inkscape:zoom="5.6"
     inkscape:cx="58.136235"
     inkscape:cy="39.912393"
     inkscape:document-units="mm"
     inkscape:current-layer="layer1"
     showgrid="false"
     fit-margin-top="0"
     fit-margin-left="0"
     fit-margin-right="0"
     fit-margin-bottom="0"
     inkscape:pagecheckerboard="true"
     showborder="false"
     inkscape:window-width="1920"
     inkscape:window-height="1048"
     inkscape:window-x="0"
     inkscape:window-y="0"
     inkscape:window-maximized="1" />
  <metadata
     id="metadata5">
    <rdf:RDF>
      <cc:Work
         rdf:about="">
        <dc:format>image/svg+xml</dc:format>
        <dc:type
           rdf:resource="http://purl.org/dc/dcmitype/StillImage" />
        <dc:title></dc:title>
      </cc:Work>
    </rdf:RDF>
  </metadata>
  <g
     inkscape:label="Layer 1"
     inkscape:groupmode="layer"
     id="layer1"
     transform="translate(-68.682121,-116.79051)">
    <g
       id="g841">
      <rect
         y="116.79051"
         x="68.682121"
         height="25.13541"
         width="25.135416"
         id="rect837"
         style="opacity:1;fill:#ffffff;fill-opacity:0;stroke:none;stroke-width:2.64583325;stroke-linecap:round;stroke-linejoin:round;stroke-miterlimit:4;stroke-dasharray:none;stroke-opacity:1" />
    </g>
    <g
       id="g973"
       transform="matrix(0.27245118,0,0,0.27245118,60.379921,109.47651)"
       style="fill:#464646;fill-opacity:1">
      <path
         id="path965"
         d="m 88.7,56.8 h 2.7 L 99.2,49 99.6,45.7 C 85.1,32.9 62.9,34.3 50.1,48.8 c -3.6,4 -6.1,8.8 -7.6,14 0.9,-0.4 1.8,-0.4 2.7,-0.2 L 60.8,60 c 0,0 0.8,-1.3 1.2,-1.2 7,-7.6 18.7,-8.5 26.7,-2 z"
         class="st1"
         inkscape:connector-curvature="0"
         style="fill:#646464;fill-opacity:1" />
      <path
         id="path967"
         d="M 110.4,62.8 C 108.6,56.2 104.9,50.3 99.8,45.7 l -11,11 c 4.6,3.8 7.3,9.5 7.1,15.4 V 74 c 5.4,0 9.7,4.4 9.7,9.7 0,5.3 -4.4,9.7 -9.7,9.7 H 76.5 l -1.9,2 v 11.7 l 1.9,1.9 H 96 c 14,0.1 25.4,-11.2 25.5,-25.2 0.1,-8.3 -4.1,-16.2 -11.1,-21 z"
         class="st2"
         inkscape:connector-curvature="0"
         style="fill:#464646;fill-opacity:1" />
      <path
         id="path969"
         d="M 56.9,109 H 76.4 V 93.4 H 56.9 c -1.4,0 -2.8,-0.3 -4,-0.9 l -2.7,0.9 -7.9,7.8 -0.7,2.7 c 4.4,3.4 9.8,5.2 15.3,5.1 z"
         class="st4"
         inkscape:connector-curvature="0"
         style="fill:#646464;fill-opacity:1" />
      <path
         id="path971"
         d="m 56.9,58.4 c -14,0.1 -25.3,11.5 -25.2,25.5 0,7.8 3.7,15.2 9.9,19.9 L 52.9,92.5 C 48,90.3 45.8,84.5 48,79.6 c 2.2,-4.9 8,-7.1 12.9,-4.9 2.2,1 3.9,2.7 4.9,4.9 L 77.1,68.3 C 72.3,62.1 64.8,58.4 56.9,58.4 Z"
         class="st37"
         inkscape:connector-curvature="0"
         style="fill:#464646;fill-opacity:1" />
    </g>
  </g>
  <style
     id="style963"
     type="text/css">
	.st0{fill:#1A73E8;}
	.st1{fill:#EA4335;}
	.st2{fill:#4285F4;}
	.st3{fill:#FBBC04;}
	.st4{fill:#34A853;}
	.st5{fill:#4CAF50;}
	.st6{fill:#1E88E5;}
	.st7{fill:#E53935;}
	.st8{fill:#C62828;}
	.st9{fill:#FBC02D;}
	.st10{fill:#1565C0;}
	.st11{fill:#2E7D32;}
	.st12{fill:#F6B704;}
	.st13{fill:#E54335;}
	.st14{fill:#4280EF;}
	.st15{fill:#34A353;}
	.st16{clip-path:url(#SVGID_2_);}
	.st17{fill:#188038;}
	.st18{opacity:0.2;fill:#FFFFFF;enable-background:new    ;}
	.st19{opacity:0.3;fill:#0D652D;enable-background:new    ;}
	.st20{clip-path:url(#SVGID_4_);}
	.st21{opacity:0.3;fill:url(#_45_shadow_1_);enable-background:new    ;}
	.st22{clip-path:url(#SVGID_6_);}
	.st23{fill:#FA7B17;}
	.st24{opacity:0.3;fill:#174EA6;enable-background:new    ;}
	.st25{opacity:0.3;fill:#A50E0E;enable-background:new    ;}
	.st26{opacity:0.3;fill:#E37400;enable-background:new    ;}
	.st27{fill:url(#Finish_mask_1_);}
	.st28{fill:#FFFFFF;}
	.st29{fill:#0C9D58;}
	.st30{opacity:0.2;fill:#004D40;enable-background:new    ;}
	.st31{opacity:0.2;fill:#3E2723;enable-background:new    ;}
	.st32{fill:#FFC107;}
	.st33{opacity:0.2;fill:#1A237E;enable-background:new    ;}
	.st34{opacity:0.2;}
	.st35{fill:#1A237E;}
	.st36{fill:url(#SVGID_7_);}
	.st37{fill:#FBBC05;}
	.st38{clip-path:url(#SVGID_9_);fill:#E53935;}
	.st39{clip-path:url(#SVGID_11_);fill:#FBC02D;}
	.st40{clip-path:url(#SVGID_13_);fill:#E53935;}
	.st41{clip-path:url(#SVGID_15_);fill:#FBC02D;}
</style>
</svg>
