<?xml version="1.0" standalone="no"?><!-- Generator: Gravit.io --><svg xmlns="http://www.w3.org/2000/svg" xmlns:xlink="http://www.w3.org/1999/xlink" style="isolation:isolate" viewBox="0 0 100 100" width="100" height="100"><defs><clipPath id="_clipPath_qYxFbrybqwR0IkLkqzpideFlc45I8pl4"><rect width="100" height="100"/></clipPath></defs><g clip-path="url(#_clipPath_qYxFbrybqwR0IkLkqzpideFlc45I8pl4)"><g><path d=" M 19.426 49.044 C 17.118 8.644 24.476 2.295 50.015 2.007 C 77.721 1.694 82.054 11.966 80.604 49.044 C 79.594 74.871 88.407 94.657 51.746 94.927 C 12.645 95.216 20.971 76.08 19.426 49.044 Z " fill="none" vector-effect="non-scaling-stroke" stroke-width="3" stroke="rgb(70,70,70)" stroke-linejoin="miter" stroke-linecap="square" stroke-miterlimit="3"/><path d=" M 81.181 47.601 C 90.534 49.513 89.842 51.664 85.798 51.641 C 88.832 55.099 88.979 55.673 80.604 53.373 L 81.181 47.601 Z " fill="none" vector-effect="non-scaling-stroke" stroke-width="3" stroke="rgb(70,70,70)" stroke-linejoin="round" stroke-linecap="round" stroke-miterlimit="3"/><path d=" M 18.819 48.465 C 9.466 50.377 10.158 52.528 14.202 52.505 C 11.168 55.963 11.021 56.537 19.396 54.237 L 18.819 48.465 Z " fill="none" vector-effect="non-scaling-stroke" stroke-width="3" stroke="rgb(70,70,70)" stroke-linejoin="round" stroke-linecap="round" stroke-miterlimit="3"/><path d=" M 70.298 92.514 C 75.992 100.177 77.647 98.638 75.914 94.984 C 80.331 96.268 80.914 96.158 75.281 89.546 L 70.298 92.514 Z " fill="none" vector-effect="non-scaling-stroke" stroke-width="3" stroke="rgb(70,70,70)" stroke-linejoin="round" stroke-linecap="round" stroke-miterlimit="3"/><path d=" M 30.309 92.514 C 24.615 100.177 22.96 98.638 24.693 94.984 C 20.276 96.268 19.693 96.158 25.326 89.546 L 30.309 92.514 Z " fill="none" vector-effect="non-scaling-stroke" stroke-width="3" stroke="rgb(70,70,70)" stroke-linejoin="round" stroke-linecap="round" stroke-miterlimit="3"/><path d=" M 20.581 18.744 C 8.605 17.301 18.849 2.223 25.775 8.355 C 22.978 10.756 21.258 14.231 20.581 18.744 Z " fill="none" vector-effect="non-scaling-stroke" stroke-width="3" stroke="rgb(70,70,70)" stroke-linejoin="miter" stroke-linecap="square" stroke-miterlimit="3"/><path d=" M 79.099 17.59 C 91.075 16.147 80.83 1.069 73.905 7.201 C 76.701 9.602 78.421 13.077 79.099 17.59 Z " fill="none" vector-effect="non-scaling-stroke" stroke-width="3" stroke="rgb(70,70,70)" stroke-linejoin="miter" stroke-linecap="square" stroke-miterlimit="3"/><path d=" M 21.735 15.281 C 18.037 14.325 21.068 10.213 22.889 12.395 C 21.043 12.458 20.682 13.443 21.735 15.281 Z " fill="none" vector-effect="non-scaling-stroke" stroke-width="3" stroke="rgb(70,70,70)" stroke-linejoin="round" stroke-linecap="round" stroke-miterlimit="3"/><path d=" M 77.616 13.423 C 81.313 12.467 78.283 8.355 76.462 10.538 C 78.307 10.6 78.669 11.585 77.616 13.423 Z " fill="none" vector-effect="non-scaling-stroke" stroke-width="3" stroke="rgb(70,70,70)" stroke-linejoin="round" stroke-linecap="round" stroke-miterlimit="3"/><path d=" M 28.083 16.003 C 28.083 11.782 32.092 8.355 37.029 8.355 C 41.966 8.355 45.975 11.782 45.975 16.003 C 45.975 20.223 41.966 23.65 37.029 23.65 C 32.092 23.65 28.083 20.223 28.083 16.003 Z " fill="none" vector-effect="non-scaling-stroke" stroke-width="3" stroke="rgb(70,70,70)" stroke-linejoin="miter" stroke-linecap="square" stroke-miterlimit="3"/><path d=" M 52.406 15.281 C 52.406 11.061 56.415 7.634 61.352 7.634 C 66.29 7.634 70.298 11.061 70.298 15.281 C 70.298 19.502 66.29 22.928 61.352 22.928 C 56.415 22.928 52.406 19.502 52.406 15.281 Z " fill="none" vector-effect="non-scaling-stroke" stroke-width="3" stroke="rgb(70,70,70)" stroke-linejoin="miter" stroke-linecap="square" stroke-miterlimit="3"/><path d=" M 30.969 16.436 C 30.969 15.48 31.745 14.704 32.701 14.704 C 33.656 14.704 34.432 15.48 34.432 16.436 C 34.432 17.391 33.656 18.167 32.701 18.167 C 31.745 18.167 30.969 17.391 30.969 16.436 Z " fill="none" vector-effect="non-scaling-stroke" stroke-width="3" stroke="rgb(70,70,70)" stroke-linejoin="miter" stroke-linecap="square" stroke-miterlimit="3"/><path d=" M 54.632 15.858 C 54.632 14.903 55.408 14.127 56.364 14.127 C 57.319 14.127 58.095 14.903 58.095 15.858 C 58.095 16.814 57.319 17.59 56.364 17.59 C 55.408 17.59 54.632 16.814 54.632 15.858 Z " fill="none" vector-effect="non-scaling-stroke" stroke-width="3" stroke="rgb(70,70,70)" stroke-linejoin="miter" stroke-linecap="square" stroke-miterlimit="3"/><path d=" M 47.352 23.217 C 47.352 22.66 48.512 22.207 49.941 22.207 C 51.369 22.207 52.529 22.66 52.529 23.217 C 52.529 23.774 51.369 24.227 49.941 24.227 C 48.512 24.227 47.352 23.774 47.352 23.217 Z " fill="rgb(235,235,235)" vector-effect="non-scaling-stroke" stroke-width="4" stroke="rgb(70,70,70)" stroke-linejoin="miter" stroke-linecap="square" stroke-miterlimit="3"/><path d=" M 46.552 23.938 C 40.411 25.593 40.938 33.101 50.015 28.556 C 57.942 33.019 61.107 26.283 53.478 23.938" fill="none" vector-effect="non-scaling-stroke" stroke-width="2" stroke="rgb(70,70,70)" stroke-linejoin="round" stroke-linecap="round" stroke-miterlimit="3"/><path d=" M 45.398 30.287 C 44.225 36.455 51.097 37.141 49.438 29.133 C 47.842 29.942 46.903 30.35 45.398 30.287 Z " fill="none" vector-effect="non-scaling-stroke" stroke-width="2" stroke="rgb(70,70,70)" stroke-linejoin="miter" stroke-linecap="square" stroke-miterlimit="3"/><path d=" M 53.921 30.287 C 55.173 35.878 48.788 37.718 49.881 29.133 C 51.476 29.942 52.415 30.35 53.921 30.287 Z " fill="none" vector-effect="non-scaling-stroke" stroke-width="2" stroke="rgb(70,70,70)" stroke-linejoin="miter" stroke-linecap="square" stroke-miterlimit="3"/></g></g></svg>