<svg xmlns="http://www.w3.org/2000/svg" height="100" width="100" xmlns:v="https://vecta.io/nano"><path d="M2.5 2.5v95h95v-95zm72.31 43.111c5.683 0 9.754 1.972 12.681 7.146l-6.955 4.453c-1.527-2.736-3.181-3.817-5.747-3.817-2.608 0-4.262 1.654-4.262 3.817 0 2.672 1.654 3.754 5.492 5.429l2.227.954c7.592 3.244 11.854 6.574 11.854 14.038 0 8.015-6.319 12.426-14.78 12.426-8.291 0-13.656-3.944-16.265-9.118l7.273-4.199c1.908 3.117 4.411 5.429 8.8 5.429 3.69 0 6.064-1.845 6.064-4.41 0-3.054-2.417-4.135-6.51-5.938l-2.227-.954c-6.446-2.736-10.709-6.192-10.709-13.465 0-6.701 5.11-11.791 13.062-11.791zm-29.539.509h8.927v30.472c0 9.245-5.429 13.465-13.339 13.465-7.146 0-11.281-3.69-13.401-8.164l7.273-4.389c1.4 2.481 2.672 4.58 5.747 4.58 2.926 0 4.793-1.145 4.793-5.619z" fill="#464646"/></svg>