<?xml version="1.0" encoding="UTF-8" standalone="no"?>
<!-- Created with Inkscape (http://www.inkscape.org/) -->

<svg
   xmlns:dc="http://purl.org/dc/elements/1.1/"
   xmlns:cc="http://creativecommons.org/ns#"
   xmlns:rdf="http://www.w3.org/1999/02/22-rdf-syntax-ns#"
   xmlns:svg="http://www.w3.org/2000/svg"
   xmlns="http://www.w3.org/2000/svg"
   xmlns:sodipodi="http://sodipodi.sourceforge.net/DTD/sodipodi-0.dtd"
   xmlns:inkscape="http://www.inkscape.org/namespaces/inkscape"
   width="25.135416mm"
   height="25.13541mm"
   viewBox="0 0 25.135416 25.135411"
   version="1.1"
   id="svg8"
   inkscape:version="0.92.5 (2060ec1f9f, 2020-04-08)"
   sodipodi:docname="mongodb.svg">
  <defs
     id="defs2">
    <pattern
       y="0"
       x="0"
       height="6"
       width="6"
       patternUnits="userSpaceOnUse"
       id="EMFhbasepattern" />
  </defs>
  <sodipodi:namedview
     id="base"
     pagecolor="#ffffff"
     bordercolor="#666666"
     borderopacity="1.0"
     inkscape:pageopacity="0.0"
     inkscape:pageshadow="2"
     inkscape:zoom="5.6"
     inkscape:cx="56.670814"
     inkscape:cy="48.812768"
     inkscape:document-units="mm"
     inkscape:current-layer="layer1"
     showgrid="false"
     fit-margin-top="0"
     fit-margin-left="0"
     fit-margin-right="0"
     fit-margin-bottom="0"
     inkscape:pagecheckerboard="true"
     showborder="false"
     inkscape:window-width="1920"
     inkscape:window-height="1048"
     inkscape:window-x="0"
     inkscape:window-y="0"
     inkscape:window-maximized="1" />
  <metadata
     id="metadata5">
    <rdf:RDF>
      <cc:Work
         rdf:about="">
        <dc:format>image/svg+xml</dc:format>
        <dc:type
           rdf:resource="http://purl.org/dc/dcmitype/StillImage" />
        <dc:title></dc:title>
      </cc:Work>
    </rdf:RDF>
  </metadata>
  <g
     inkscape:label="Layer 1"
     inkscape:groupmode="layer"
     id="layer1"
     transform="translate(-68.682121,-116.79051)">
    <g
       id="g841">
      <rect
         y="116.79051"
         x="68.682121"
         height="25.13541"
         width="25.135416"
         id="rect837"
         style="opacity:1;fill:#ffffff;fill-opacity:0;stroke:none;stroke-width:2.64583325;stroke-linecap:round;stroke-linejoin:round;stroke-miterlimit:4;stroke-dasharray:none;stroke-opacity:1" />
    </g>
    <g
       style="fill:#464646;fill-opacity:1"
       id="g1048"
       transform="matrix(1.6189981,0,0,1.6189981,69.107402,117.21573)">
      <path
         id="path1037"
         d="M 7.49998,0.5 7.86855,0.162138 C 7.77385,0.0588232 7.64013,0 7.49998,0 7.35982,0 7.2261,0.0588232 7.1314,0.162138 Z m 0,13 -0.39316,0.3089 C 7.20161,13.9296 7.34654,14 7.49998,14 7.65341,14 7.79834,13.9296 7.89313,13.8089 Z M 4.62287,9.83822 4.22971,10.1471 v 0 z M 4.86869,3.3705 4.50011,3.03263 v 0 z m 5.26261,-10e-6 0.3685,-0.33786 z m 0.2458,6.46774 0.3931,0.30887 v 0 z M 7.99998,15 V 0.5 h -1 V 15 Z M 7.89313,13.1911 5.01602,9.52931 4.22971,10.1471 7.10682,13.8089 Z M 5.23726,3.70836 7.86855,0.837862 7.1314,0.162138 4.50011,3.03263 Z M 7.1314,0.837862 9.76268,3.70836 10.4998,3.03263 7.86855,0.162138 Z M 9.98392,9.52932 7.10682,13.1911 7.89313,13.8089 10.7702,10.1471 Z M 9.76268,3.70836 C 11.2517,5.33278 11.3454,7.79655 9.98392,9.52932 L 10.7702,10.1471 C 12.4342,8.02932 12.3198,5.01803 10.4998,3.03263 Z M 5.01602,9.52931 C 3.65457,7.79655 3.74821,5.33278 5.23726,3.70836 L 4.50011,3.03263 C 2.68016,5.01804 2.56571,8.02932 4.22971,10.1471 Z"
         inkscape:connector-curvature="0"
         style="fill:#464646;fill-opacity:1" />
    </g>
  </g>
  <style
     id="style963"
     type="text/css">
	.st0{fill:#1A73E8;}
	.st1{fill:#EA4335;}
	.st2{fill:#4285F4;}
	.st3{fill:#FBBC04;}
	.st4{fill:#34A853;}
	.st5{fill:#4CAF50;}
	.st6{fill:#1E88E5;}
	.st7{fill:#E53935;}
	.st8{fill:#C62828;}
	.st9{fill:#FBC02D;}
	.st10{fill:#1565C0;}
	.st11{fill:#2E7D32;}
	.st12{fill:#F6B704;}
	.st13{fill:#E54335;}
	.st14{fill:#4280EF;}
	.st15{fill:#34A353;}
	.st16{clip-path:url(#SVGID_2_);}
	.st17{fill:#188038;}
	.st18{opacity:0.2;fill:#FFFFFF;enable-background:new    ;}
	.st19{opacity:0.3;fill:#0D652D;enable-background:new    ;}
	.st20{clip-path:url(#SVGID_4_);}
	.st21{opacity:0.3;fill:url(#_45_shadow_1_);enable-background:new    ;}
	.st22{clip-path:url(#SVGID_6_);}
	.st23{fill:#FA7B17;}
	.st24{opacity:0.3;fill:#174EA6;enable-background:new    ;}
	.st25{opacity:0.3;fill:#A50E0E;enable-background:new    ;}
	.st26{opacity:0.3;fill:#E37400;enable-background:new    ;}
	.st27{fill:url(#Finish_mask_1_);}
	.st28{fill:#FFFFFF;}
	.st29{fill:#0C9D58;}
	.st30{opacity:0.2;fill:#004D40;enable-background:new    ;}
	.st31{opacity:0.2;fill:#3E2723;enable-background:new    ;}
	.st32{fill:#FFC107;}
	.st33{opacity:0.2;fill:#1A237E;enable-background:new    ;}
	.st34{opacity:0.2;}
	.st35{fill:#1A237E;}
	.st36{fill:url(#SVGID_7_);}
	.st37{fill:#FBBC05;}
	.st38{clip-path:url(#SVGID_9_);fill:#E53935;}
	.st39{clip-path:url(#SVGID_11_);fill:#FBC02D;}
	.st40{clip-path:url(#SVGID_13_);fill:#E53935;}
	.st41{clip-path:url(#SVGID_15_);fill:#FBC02D;}
</style>
</svg>
