<?xml version="1.0" encoding="UTF-8" standalone="no"?>
<!-- Created with Inkscape (http://www.inkscape.org/) -->

<svg
   xmlns:dc="http://purl.org/dc/elements/1.1/"
   xmlns:cc="http://creativecommons.org/ns#"
   xmlns:rdf="http://www.w3.org/1999/02/22-rdf-syntax-ns#"
   xmlns:svg="http://www.w3.org/2000/svg"
   xmlns="http://www.w3.org/2000/svg"
   xmlns:sodipodi="http://sodipodi.sourceforge.net/DTD/sodipodi-0.dtd"
   xmlns:inkscape="http://www.inkscape.org/namespaces/inkscape"
   width="25.135416mm"
   height="25.13541mm"
   viewBox="0 0 25.135416 25.135411"
   version="1.1"
   id="svg8"
   inkscape:version="0.92.5 (2060ec1f9f, 2020-04-08)"
   sodipodi:docname="mysql.svg">
  <defs
     id="defs2">
    <pattern
       y="0"
       x="0"
       height="6"
       width="6"
       patternUnits="userSpaceOnUse"
       id="EMFhbasepattern" />
  </defs>
  <sodipodi:namedview
     id="base"
     pagecolor="#ffffff"
     bordercolor="#666666"
     borderopacity="1.0"
     inkscape:pageopacity="0.0"
     inkscape:pageshadow="2"
     inkscape:zoom="5.6"
     inkscape:cx="52.057138"
     inkscape:cy="34.390336"
     inkscape:document-units="mm"
     inkscape:current-layer="layer1"
     showgrid="false"
     fit-margin-top="0"
     fit-margin-left="0"
     fit-margin-right="0"
     fit-margin-bottom="0"
     inkscape:pagecheckerboard="true"
     showborder="false"
     inkscape:window-width="1920"
     inkscape:window-height="1048"
     inkscape:window-x="0"
     inkscape:window-y="0"
     inkscape:window-maximized="1" />
  <metadata
     id="metadata5">
    <rdf:RDF>
      <cc:Work
         rdf:about="">
        <dc:format>image/svg+xml</dc:format>
        <dc:type
           rdf:resource="http://purl.org/dc/dcmitype/StillImage" />
        <dc:title></dc:title>
      </cc:Work>
    </rdf:RDF>
  </metadata>
  <g
     inkscape:label="Layer 1"
     inkscape:groupmode="layer"
     id="layer1"
     transform="translate(-68.682121,-116.79051)">
    <g
       id="g841">
      <rect
         y="116.79051"
         x="68.682121"
         height="25.13541"
         width="25.135416"
         id="rect837"
         style="opacity:1;fill:#ffffff;fill-opacity:0.00215517;stroke:none;stroke-width:2.64583325;stroke-linecap:round;stroke-linejoin:round;stroke-miterlimit:4;stroke-dasharray:none;stroke-opacity:1" />
    </g>
    <g
       id="g1103"
       transform="matrix(0.14142376,0,0,0.14142376,68.585332,122.59717)"
       style="fill:#464646;fill-opacity:1">
      <path
         id="path1071"
         d="m 1.7,85.3 h 5.8 v -23 l 9.1,20 c 1,2.4 2.5,3.3 5.4,3.3 2.9,0 4.2,-0.9 5.3,-3.3 l 9,-20 v 23 h 5.8 v -23 c 0,-2.2 -0.9,-3.3 -2.8,-3.9 -4.4,-1.3 -7.4,-0.2 -8.7,2.8 L 21.8,81 13.2,61.2 C 11.9,58.2 8.9,57.1 4.5,58.4 2.6,59 1.7,60 1.7,62.3 Z"
         class="st0"
         inkscape:connector-curvature="0"
         style="fill:#464646;fill-opacity:1" />
      <path
         id="path1073"
         d="m 46.9,66.6 h 5.8 v 12.6 c 0,0.7 0.2,2.3 3.4,2.4 1.7,0 12.6,0 12.7,0 V 66.5 h 5.8 c 0,0 0,20.6 0,20.7 0,5.1 -6.3,6.2 -9.2,6.2 H 47.1 v -3.9 c 0,0 18.4,0 18.4,0 3.7,-0.4 3.3,-2.3 3.3,-2.9 V 85.1 H 56.4 c -5.8,0 -9.5,-2.6 -9.5,-5.5 0,-0.3 0.2,-12.9 0,-13 z"
         class="st0"
         inkscape:connector-curvature="0"
         style="fill:#464646;fill-opacity:1" />
      <path
         id="path1075"
         d="m 172.3,51.9 c -3.6,-0.1 -6.3,0.3 -8.7,1.2 -0.7,0.3 -1.7,0.3 -1.8,1.1 0.4,0.4 0.4,0.9 0.7,1.4 0.5,0.9 1.5,2.1 2.3,2.7 0.9,0.7 1.9,1.4 2.9,2.1 1.7,1.1 3.7,1.7 5.4,2.8 1,0.6 2,1.4 2.9,2.1 0.5,0.4 0.8,0.9 1.4,1.2 0,0 0,-0.1 0,-0.1 -0.3,-0.4 -0.4,-1 -0.7,-1.4 -0.4,-0.4 -0.9,-0.8 -1.3,-1.3 -1.3,-1.7 -2.9,-3.3 -4.6,-4.5 -1.4,-1 -4.6,-2.3 -5.1,-4 0,0 0,0 -0.1,-0.1 1,-0.1 2.1,-0.4 3.1,-0.7 1.5,-0.4 2.9,-0.3 4.5,-0.7 0.7,-0.2 1.4,-0.4 2.1,-0.6 0,-0.1 0,-0.3 0,-0.4 -0.8,-0.8 -1.4,-1.9 -2.2,-2.6 -2.3,-2 -4.8,-3.9 -7.4,-5.5 -1.4,-0.9 -3.2,-1.5 -4.6,-2.2 -0.5,-0.3 -1.4,-0.4 -1.7,-0.8 -0.8,-1 -1.3,-2.3 -1.8,-3.4 -1.3,-2.5 -2.5,-5.2 -3.7,-7.8 -0.8,-1.7 -1.3,-3.5 -2.3,-5.1 C 147,17.7 142,13.1 134.3,8.6 c -1.7,-0.9 -3.6,-1.3 -5.7,-1.8 -1.1,0 -2.2,-0.1 -3.3,-0.2 -0.7,-0.3 -1.4,-1.2 -2.1,-1.6 -2.5,-1.6 -9.1,-5.1 -11,-0.5 -1.2,2.9 1.8,5.8 2.8,7.2 0.8,1 1.7,2.2 2.3,3.3 0.3,0.8 0.4,1.6 0.7,2.4 0.7,2 1.4,4.1 2.3,6 0.5,0.9 1,1.9 1.7,2.8 0.4,0.5 1,0.7 1.1,1.5 -0.6,0.9 -0.7,2.2 -1,3.3 -1.6,5 -1,11.3 1.3,15 0.7,1.1 2.4,3.6 4.7,2.6 2,-0.8 1.6,-3.3 2.1,-5.6 0.1,-0.5 0,-0.9 0.3,-1.2 0,0 0,0.1 0,0.1 0.6,1.2 1.2,2.5 1.8,3.7 1.4,2.2 3.8,4.5 5.8,6 1.1,0.8 1.9,2.2 3.3,2.7 0,0 0,-0.1 0,-0.1 0,0 0,0 -0.1,0 -0.3,-0.4 -0.7,-0.6 -1,-0.9 -0.8,-0.8 -1.7,-1.8 -2.3,-2.7 -1.9,-2.5 -3.5,-5.3 -5,-8.1 -0.7,-1.4 -1.3,-2.9 -1.9,-4.3 -0.3,-0.5 -0.3,-1.3 -0.7,-1.6 -0.7,1 -1.7,1.8 -2.1,3 -0.8,1.9 -0.9,4.3 -1.2,6.7 -0.2,0 -0.1,0 -0.2,0.1 -1.4,-0.4 -1.9,-1.8 -2.5,-3.1 -1.3,-3.2 -1.6,-8.3 -0.4,-11.9 0.3,-0.9 1.7,-3.9 1.1,-4.8 -0.3,-0.8 -1.2,-1.3 -1.7,-2 -0.6,-0.8 -1.2,-1.9 -1.6,-2.9 -1.1,-2.5 -1.6,-5.3 -2.8,-7.8 -0.5,-1.2 -1.5,-2.4 -2.2,-3.4 C 116,9.3 115,8.4 114.3,7 c -0.2,-0.5 -0.5,-1.3 -0.2,-1.8 0.1,-0.4 0.3,-0.5 0.6,-0.6 0.6,-0.5 2.2,0.1 2.8,0.4 1.7,0.7 3,1.3 4.4,2.2 0.6,0.4 1.3,1.3 2.1,1.5 0.3,0 0.6,0 0.9,0 1.4,0.3 3,0.1 4.4,0.5 2.4,0.8 4.5,1.9 6.4,3.1 5.8,3.7 10.7,9 13.9,15.3 0.5,1 0.8,2 1.2,3 0.9,2.2 2.1,4.4 3,6.6 0.9,2.1 1.8,4.2 3.2,6 0.7,0.9 3.3,1.4 4.6,1.9 0.9,0.4 2.3,0.8 3.1,1.2 1.5,0.9 3,2 4.5,3 0.7,0.6 3,1.7 3.1,2.6 z"
         class="st0"
         inkscape:connector-curvature="0"
         style="fill:#464646;fill-opacity:1" />
      <path
         id="path1077"
         d="m 126.8,13.2 c -0.8,0 -1.3,0.1 -1.8,0.2 0,0 0,0 0,0.1 0,0 0,0 0.1,0 0.4,0.7 1,1.2 1.4,1.8 0.4,0.7 0.7,1.4 1,2.1 0,0 0.1,-0.1 0.1,-0.1 0.6,-0.4 0.9,-1.2 0.9,-2.2 -0.3,-0.3 -0.3,-0.6 -0.5,-0.9 -0.3,-0.5 -0.9,-0.7 -1.2,-1 z"
         class="st0"
         inkscape:connector-curvature="0"
         style="fill:#464646;fill-opacity:1" />
      <path
         id="path1079"
         d="m 79.1,85.3 h 16.8 c 2,0 3.8,-0.4 5.4,-1.1 2.5,-1.2 3.7,-2.7 3.7,-4.8 v -4.3 c 0,-1.7 -1.4,-3.2 -4.1,-4.3 -1.4,-0.5 -3.2,-0.8 -5,-0.8 h -7 c -2.4,0 -3.5,-0.7 -3.8,-2.3 0,-0.2 0,-0.4 0,-0.5 v -2.6 c 0,-0.1 0,-0.3 0,-0.5 0.3,-1.2 0.9,-1.5 3,-1.7 0.2,0 0.4,0 0.5,0 h 16.6 V 58.5 H 88.9 c -2.4,0 -3.6,0.1 -4.7,0.5 -3.4,1.1 -5,2.8 -5,5.8 V 68 c 0,2.6 2.9,4.9 7.9,5.4 0.5,0 1.1,0 1.7,0 h 6 c 0.2,0 0.4,0 0.6,0 1.8,0.2 2.6,0.5 3.2,1.2 0.4,0.4 0.4,0.7 0.4,1.1 v 3.4 c 0,0.4 -0.3,0.9 -0.8,1.4 -0.5,0.5 -1.4,0.8 -2.5,0.8 -0.2,0 -0.4,0 -0.6,0 h -16 z"
         class="st1"
         inkscape:connector-curvature="0"
         style="fill:#464646;fill-opacity:0.87361419" />
      <path
         id="path1081"
         d="m 141.3,78.5 c 0,4 3,6.2 9,6.6 0.6,0 1.1,0.1 1.7,0.1 h 15.2 v -3.9 h -15.3 c -3.4,0 -4.7,-0.8 -4.7,-2.9 v -20 h -5.8 z"
         class="st1"
         inkscape:connector-curvature="0"
         style="fill:#464646;fill-opacity:0.87361419" />
      <path
         id="path1083"
         d="M 108.7,78.7 V 64.9 c 0,-3.5 2.5,-5.7 7.4,-6.3 0.5,0 1.1,-0.1 1.6,-0.1 h 11.1 c 0.6,0 1.1,0 1.7,0.1 4.9,0.7 7.3,2.8 7.3,6.3 v 13.8 c 0,2.9 -1,4.4 -3.4,5.4 l 5.7,5.2 h -6.7 l -4.6,-4.2 -4.7,0.3 h -6.2 c -1,0 -2.2,-0.1 -3.4,-0.4 -4,-1.1 -5.8,-3.1 -5.8,-6.3 z m 6.3,-0.3 c 0,0.2 0.1,0.4 0.1,0.6 0.3,1.6 1.8,2.5 4.1,2.5 h 5.3 l -4.8,-4.4 h 6.7 l 4.2,3.8 c 0.8,-0.4 1.3,-1.1 1.5,-1.9 0,-0.2 0,-0.4 0,-0.6 V 65.2 c 0,-0.2 0,-0.4 0,-0.5 -0.3,-1.5 -1.8,-2.4 -4.1,-2.4 h -8.8 c -2.6,0 -4.3,1.1 -4.3,2.9 z"
         class="st1"
         inkscape:connector-curvature="0"
         style="fill:#464646;fill-opacity:0.87361419" />
      <path
         id="path1085"
         d="m 169.8,85.3 h 0.8 V 82 h 1.1 v -0.7 h -3.1 V 82 h 1.2 z m 6.5,0 h 0.8 v -3.9 h -1.2 l -1,2.7 -1.1,-2.7 h -1.2 v 3.9 h 0.8 v -3 0 l 1.1,3 h 0.6 l 1.1,-3 v 0 z"
         class="st1"
         inkscape:connector-curvature="0"
         style="fill:#464646;fill-opacity:1" />
    </g>
  </g>
  <style
     id="style963"
     type="text/css">
	.st0{fill:#1A73E8;}
	.st1{fill:#EA4335;}
	.st2{fill:#4285F4;}
	.st3{fill:#FBBC04;}
	.st4{fill:#34A853;}
	.st5{fill:#4CAF50;}
	.st6{fill:#1E88E5;}
	.st7{fill:#E53935;}
	.st8{fill:#C62828;}
	.st9{fill:#FBC02D;}
	.st10{fill:#1565C0;}
	.st11{fill:#2E7D32;}
	.st12{fill:#F6B704;}
	.st13{fill:#E54335;}
	.st14{fill:#4280EF;}
	.st15{fill:#34A353;}
	.st16{clip-path:url(#SVGID_2_);}
	.st17{fill:#188038;}
	.st18{opacity:0.2;fill:#FFFFFF;enable-background:new    ;}
	.st19{opacity:0.3;fill:#0D652D;enable-background:new    ;}
	.st20{clip-path:url(#SVGID_4_);}
	.st21{opacity:0.3;fill:url(#_45_shadow_1_);enable-background:new    ;}
	.st22{clip-path:url(#SVGID_6_);}
	.st23{fill:#FA7B17;}
	.st24{opacity:0.3;fill:#174EA6;enable-background:new    ;}
	.st25{opacity:0.3;fill:#A50E0E;enable-background:new    ;}
	.st26{opacity:0.3;fill:#E37400;enable-background:new    ;}
	.st27{fill:url(#Finish_mask_1_);}
	.st28{fill:#FFFFFF;}
	.st29{fill:#0C9D58;}
	.st30{opacity:0.2;fill:#004D40;enable-background:new    ;}
	.st31{opacity:0.2;fill:#3E2723;enable-background:new    ;}
	.st32{fill:#FFC107;}
	.st33{opacity:0.2;fill:#1A237E;enable-background:new    ;}
	.st34{opacity:0.2;}
	.st35{fill:#1A237E;}
	.st36{fill:url(#SVGID_7_);}
	.st37{fill:#FBBC05;}
	.st38{clip-path:url(#SVGID_9_);fill:#E53935;}
	.st39{clip-path:url(#SVGID_11_);fill:#FBC02D;}
	.st40{clip-path:url(#SVGID_13_);fill:#E53935;}
	.st41{clip-path:url(#SVGID_15_);fill:#FBC02D;}
</style>
  <style
     id="style1069"
     type="text/css">
	.st0{fill:#00678F;}
	.st1{fill:#E38D1A;}
</style>
</svg>
