<?xml version="1.0" encoding="UTF-8" standalone="no"?>
<svg
   xmlns:dc="http://purl.org/dc/elements/1.1/"
   xmlns:cc="http://creativecommons.org/ns#"
   xmlns:rdf="http://www.w3.org/1999/02/22-rdf-syntax-ns#"
   xmlns:svg="http://www.w3.org/2000/svg"
   xmlns="http://www.w3.org/2000/svg"
   xmlns:sodipodi="http://sodipodi.sourceforge.net/DTD/sodipodi-0.dtd"
   xmlns:inkscape="http://www.inkscape.org/namespaces/inkscape"
   height="100"
   viewBox="0 0 100000 100000.78"
   width="100"
   fill-rule="evenodd"
   image-rendering="optimizeQuality"
   shape-rendering="geometricPrecision"
   version="1.1"
   id="svg2087"
   sodipodi:docname="node.svg"
   inkscape:version="0.92.5 (2060ec1f9f, 2020-04-08)">
  <metadata
     id="metadata2093">
    <rdf:RDF>
      <cc:Work
         rdf:about="">
        <dc:format>image/svg+xml</dc:format>
        <dc:type
           rdf:resource="http://purl.org/dc/dcmitype/StillImage" />
        <dc:title></dc:title>
      </cc:Work>
    </rdf:RDF>
  </metadata>
  <defs
     id="defs2091" />
  <sodipodi:namedview
     pagecolor="#ffffff"
     bordercolor="#666666"
     borderopacity="1"
     objecttolerance="10"
     gridtolerance="10"
     guidetolerance="10"
     inkscape:pageopacity="0"
     inkscape:pageshadow="2"
     inkscape:window-width="1920"
     inkscape:window-height="1048"
     id="namedview2089"
     showgrid="false"
     inkscape:zoom="1.380626"
     inkscape:cx="114.36201"
     inkscape:cy="116.57278"
     inkscape:window-x="1920"
     inkscape:window-y="0"
     inkscape:window-maximized="1"
     inkscape:current-layer="svg2087"
     inkscape:snap-global="false" />
  <path
     style="fill:#464646;fill-opacity:1;stroke-width:0.20725591"
     d="M 50.142578 91.255859 C 49.896772 91.2956 49.643751 91.380501 49.431641 91.255859 L 40.464844 85.941406 C 40.200178 85.770835 39.860784 85.714145 39.595703 85.865234 C 37.117544 87.284315 36.643061 87.454099 34.316406 88.267578 C 33.748732 88.457011 32.898344 88.797407 34.638672 89.78125 L 46.310547 96.685547 C 47.42662 97.32887 48.712892 97.669922 49.980469 97.669922 C 50.03723 97.669922 50.085899 97.628276 50.142578 97.626953 L 50.142578 91.255859 z "
     id="path2133"
     transform="matrix(1000.0078,0,0,1000.0078,-0.39,0)" />
  <path
     style="fill:#464646;fill-opacity:1;stroke-width:0.20725591"
     d="M 50.142578 60.427734 C 49.486968 59.435962 49.021563 58.300728 48.808594 56.863281 C 48.732945 56.371463 48.317113 56.011719 47.806641 56.011719 L 43.285156 56.011719 C 42.717689 56.011719 42.28125 56.467433 42.28125 57.015625 C 42.28125 61.134238 43.953757 65.75718 50.142578 68.191406 L 50.142578 60.427734 z "
     id="path2131"
     transform="matrix(1000.0078,0,0,1000.0078,-0.39,0)" />
  <path
     style="fill:#464646;fill-opacity:1;stroke-width:0.20725591"
     d="M 50.142578 33.097656 C 45.987199 34.950741 43.455078 38.067103 43.455078 42.466797 C 43.455078 47.28172 46.014736 49.773059 50.142578 51.291016 L 50.142578 33.097656 z "
     id="path2129"
     transform="matrix(1000.0078,0,0,1000.0078,-0.39,0)" />
  <path
     style="fill:#666666;fill-opacity:1;stroke-width:0.20725591"
     d="M 50.142578 33.097656 L 50.142578 51.291016 C 52.566895 52.182524 55.39488 52.824067 58.929688 53.173828 C 70.375395 54.290316 71.263672 55.975349 71.263672 58.226562 C 71.263672 62.12401 68.124869 63.787109 60.765625 63.787109 C 54.407604 63.787109 51.583506 62.607493 50.142578 60.427734 L 50.142578 68.191406 C 52.795323 69.234801 56.191283 69.917969 60.783203 69.917969 C 71.83098 69.898901 78.1875 65.528463 78.1875 57.923828 C 78.1875 50.37536 73.079839 48.369838 62.353516 46.951172 C 51.494134 45.51323 50.398438 44.775182 50.398438 42.240234 C 50.398438 40.140525 51.325156 37.339844 59.365234 37.339844 C 66.53546 37.339844 69.184245 38.891219 70.28125 43.734375 C 70.375966 44.188265 70.791336 44.529297 71.263672 44.529297 L 75.804688 44.529297 C 76.088007 44.529297 76.353537 44.415324 76.542969 44.207031 C 76.7324 43.999154 76.826123 43.715581 76.806641 43.431641 C 76.107152 35.089175 70.564723 31.210937 59.365234 31.210938 C 55.611671 31.210938 52.651798 31.978674 50.142578 33.097656 z "
     id="path2127"
     transform="matrix(1000.0078,0,0,1000.0078,-0.39,0)" />
  <path
     style="fill:#464646;fill-opacity:1;stroke-width:0.20725591"
     d="M 50.142578 2.3710938 C 48.804969 2.3436994 47.463791 2.6170358 46.310547 3.2675781 L 11.408203 23.435547 C 9.1379216 24.740845 7.7382812 27.199951 7.7382812 29.810547 L 7.7382812 70.125 C 7.7382813 72.754248 9.1379216 75.194494 11.408203 76.5 L 20.564453 81.779297 C 24.991233 83.973723 26.579039 83.972656 28.603516 83.972656 C 35.167725 83.972656 38.951172 79.99997 38.951172 73.076172 L 38.951172 33.253906 C 38.951172 32.68644 38.480247 32.251953 37.931641 32.251953 L 33.503906 32.251953 C 32.936026 32.251953 32.482422 32.68644 32.482422 33.253906 L 32.482422 73.056641 C 32.482422 76.139988 29.304101 79.187231 24.101562 76.595703 L 14.529297 71.070312 C 14.188569 70.899741 13.980469 70.522773 13.980469 70.144531 L 13.980469 29.830078 C 13.980469 29.432768 14.188569 29.054459 14.529297 28.865234 L 49.433594 8.6972656 C 49.64512 8.5728299 49.897538 8.6580413 50.142578 8.6972656 L 50.142578 2.3710938 z "
     id="path2125"
     transform="matrix(1000.0078,0,0,1000.0078,-0.39,0)" />
  <path
     style="fill:#666666;fill-opacity:1;stroke-width:0.20725591"
     d="M 50.142578 2.3710938 L 50.142578 8.6972656 C 50.270161 8.7176882 50.401656 8.6324768 50.511719 8.6972656 L 85.433594 28.845703 C 85.774115 29.053582 85.982422 29.413237 85.982422 29.810547 L 85.982422 70.144531 C 85.982422 70.522773 85.774993 70.900619 85.453125 71.089844 L 50.509766 91.255859 C 50.406638 91.320235 50.269533 91.235334 50.142578 91.255859 L 50.142578 97.626953 C 51.370052 97.598307 52.58338 97.300475 53.650391 96.685547 L 88.59375 76.519531 C 90.863824 75.195166 92.263672 72.755127 92.263672 70.144531 L 92.263672 29.830078 C 92.263672 27.200415 90.863824 24.758423 88.59375 23.453125 L 53.650391 3.2675781 C 52.599381 2.6696107 51.372086 2.3962742 50.142578 2.3710938 z "
     id="path2095"
     transform="matrix(1000.0078,0,0,1000.0078,-0.39,0)" />
  <g
     style="fill:#666666;fill-opacity:1"
     id="Layer_1"
     transform="matrix(207.25754,0,0,207.25754,-3057.6053,-3056.7394)" />
</svg>
