<?xml version="1.0" encoding="UTF-8" standalone="no"?>
<!-- Created with Inkscape (http://www.inkscape.org/) -->

<svg
   xmlns:dc="http://purl.org/dc/elements/1.1/"
   xmlns:cc="http://creativecommons.org/ns#"
   xmlns:rdf="http://www.w3.org/1999/02/22-rdf-syntax-ns#"
   xmlns:svg="http://www.w3.org/2000/svg"
   xmlns="http://www.w3.org/2000/svg"
   xmlns:sodipodi="http://sodipodi.sourceforge.net/DTD/sodipodi-0.dtd"
   xmlns:inkscape="http://www.inkscape.org/namespaces/inkscape"
   width="25.135416mm"
   height="25.13541mm"
   viewBox="0 0 25.135416 25.135411"
   version="1.1"
   id="svg8"
   inkscape:version="0.92.5 (2060ec1f9f, 2020-04-08)"
   sodipodi:docname="react.svg">
  <defs
     id="defs2">
    <pattern
       y="0"
       x="0"
       height="6"
       width="6"
       patternUnits="userSpaceOnUse"
       id="EMFhbasepattern" />
  </defs>
  <sodipodi:namedview
     id="base"
     pagecolor="#ffffff"
     bordercolor="#666666"
     borderopacity="1.0"
     inkscape:pageopacity="0.0"
     inkscape:pageshadow="2"
     inkscape:zoom="5.6"
     inkscape:cx="52.592852"
     inkscape:cy="34.390336"
     inkscape:document-units="mm"
     inkscape:current-layer="layer1"
     showgrid="false"
     fit-margin-top="0"
     fit-margin-left="0"
     fit-margin-right="0"
     fit-margin-bottom="0"
     inkscape:pagecheckerboard="true"
     showborder="false"
     inkscape:window-width="1920"
     inkscape:window-height="1048"
     inkscape:window-x="0"
     inkscape:window-y="0"
     inkscape:window-maximized="1" />
  <metadata
     id="metadata5">
    <rdf:RDF>
      <cc:Work
         rdf:about="">
        <dc:format>image/svg+xml</dc:format>
        <dc:type
           rdf:resource="http://purl.org/dc/dcmitype/StillImage" />
        <dc:title></dc:title>
      </cc:Work>
    </rdf:RDF>
  </metadata>
  <g
     inkscape:label="Layer 1"
     inkscape:groupmode="layer"
     id="layer1"
     transform="translate(-68.682121,-116.79051)">
    <g
       id="g841">
      <rect
         y="116.79051"
         x="68.682121"
         height="25.13541"
         width="25.135416"
         id="rect837"
         style="opacity:1;fill:#ffffff;fill-opacity:0;stroke:none;stroke-width:2.64583325;stroke-linecap:round;stroke-linejoin:round;stroke-miterlimit:4;stroke-dasharray:none;stroke-opacity:1" />
    </g>
    <path
       id="path1126"
       d="m 81.249829,127.14893 a 2.2081912,2.2081912 0 1 0 0,4.41635 2.2081912,2.2081912 0 1 0 0,-4.41635 z m -6.185813,6.6008 -0.487294,-0.12368 c -3.631783,-0.91774 -5.715063,-2.47557 -5.715063,-4.27289 0,-1.79732 2.08328,-3.35511 5.715063,-4.27288 l 0.487294,-0.12291 0.137342,0.48311 a 24.291136,24.291136 0 0 0 1.407063,3.69375 l 0.104177,0.22006 -0.104177,0.21967 a 24.060922,24.060922 0 0 0 -1.407063,3.69374 z m -0.713364,-7.54129 c -2.760513,0.77529 -4.454591,1.96146 -4.454591,3.14452 0,1.18205 1.694078,2.36823 4.454591,3.14453 a 25.75707,25.75707 0 0 1 1.220245,-3.14453 25.552664,25.552664 0 0 1 -1.220245,-3.14452 z m 13.08499,7.54129 -0.137342,-0.48417 a 24.11254,24.11254 0 0 0 -1.408116,-3.6927 l -0.104178,-0.22005 0.104178,-0.21967 A 24.177578,24.177578 0 0 0 87.2983,125.4394 l 0.137342,-0.48316 0.488308,0.1229 c 3.630769,0.91774 5.714049,2.47557 5.714049,4.2739 0,1.79838 -2.08328,3.35515 -5.714049,4.27289 z m -0.506881,-4.39677 c 0.495527,1.0726 0.90537,2.12663 1.220245,3.14453 2.761527,-0.7763 4.454591,-1.96248 4.454591,-3.14453 0,-1.18306 -1.694078,-2.36819 -4.454591,-3.14452 a 25.589829,25.589829 0 0 1 -1.220245,3.14452 z m -12.585327,-3.14967 -0.137343,-0.4821 c -1.021019,-3.59878 -0.711295,-6.17759 0.849614,-7.07781 1.530983,-0.88367 3.988991,0.15998 6.564677,2.80386 l 0.35116,0.36014 -0.35116,0.36013 a 24.313848,24.313848 0 0 0 -2.500343,3.06298 l -0.139293,0.19938 -0.242691,0.0195 a 24.422244,24.422244 0 0 0 -3.907405,0.6297 z m 1.957331,-6.84448 c -0.276637,0 -0.521356,0.0597 -0.727801,0.17871 -1.026168,0.59154 -1.207875,2.64798 -0.500715,5.42293 a 25.934634,25.934634 0 0 1 3.337587,-0.51722 25.650738,25.650738 0 0 1 2.118397,-2.6263 c -1.610463,-1.56812 -3.135241,-2.458 -4.227468,-2.458 z m 9.899182,21.02068 c -10e-4,0 -10e-4,0 0,0 -1.471091,0 -3.360296,-1.10771 -5.320748,-3.1208 l -0.351161,-0.36014 0.351161,-0.36013 a 24.291136,24.291136 0 0 0 2.499327,-3.064 l 0.139294,-0.19938 0.241521,-0.0195 a 24.394371,24.394371 0 0 0 3.909511,-0.6287 l 0.487255,-0.1229 0.138123,0.48312 c 1.018912,3.5967 0.710242,6.17653 -0.850667,7.07569 a 2.4569869,2.4569869 0 0 1 -1.243968,0.31799 z m -4.228522,-3.49038 c 1.610463,1.56812 3.135241,2.45801 4.227468,2.45801 h 0.001 c 0.275466,0 0.521317,-0.0597 0.726747,-0.17871 1.026169,-0.59154 1.20889,-2.64899 0.500716,-5.42395 a 25.829334,25.829334 0 0 1 -3.338641,0.51722 25.472142,25.472142 0 0 1 -2.117343,2.62731 z m 6.184799,-10.68582 -0.487256,-0.12291 a 24.238486,24.238486 0 0 0 -3.90951,-0.62971 l -0.241521,-0.0195 -0.139294,-0.19938 a 24.171384,24.171384 0 0 0 -2.499289,-3.06298 l -0.35116,-0.36013 0.35116,-0.36014 c 2.574672,-2.64279 5.031626,-3.68649 6.564677,-2.80386 1.560909,0.90022 1.870633,3.47902 0.850667,7.07675 z m -4.067455,-1.76017 c 1.178963,0.10729 2.299049,0.28171 3.33864,0.51722 0.708175,-2.77496 0.525453,-4.83139 -0.500715,-5.42294 -1.019967,-0.58944 -2.937031,0.3137 -4.955269,2.27942 a 25.652802,25.652802 0 0 1 2.117344,2.6263 z m -7.788004,15.93637 a 2.4569869,2.4569869 0 0 1 -1.245021,-0.318 c -1.56091,-0.89916 -1.870633,-3.47797 -0.849613,-7.07569 l 0.136172,-0.48312 0.487254,0.12291 c 1.192347,0.30044 2.507562,0.51203 3.907443,0.6287 l 0.242692,0.0195 0.138123,0.19939 a 24.359271,24.359271 0 0 0 2.500343,3.06399 l 0.35116,0.36013 -0.35116,0.36014 c -1.9594,2.01309 -3.848604,3.1208 -5.317627,3.1208 z m -1.228516,-6.63491 c -0.708175,2.77495 -0.525453,4.8324 0.500715,5.42395 1.018913,0.58121 2.934963,-0.31487 4.955269,-2.27942 a 25.806623,25.806623 0 0 1 -2.118397,-2.62731 25.78391,25.78391 0 0 1 -3.337587,-0.51722 z m 6.17758,0.64832 c -0.849614,0 -1.722989,-0.039 -2.597379,-0.10964 l -0.242692,-0.0195 -0.139294,-0.19939 a 31.370975,31.370975 0 0 1 -1.393678,-2.19065 31.335875,31.335875 0 0 1 -1.203701,-2.30007 l -0.103398,-0.22006 0.103398,-0.21967 a 31.280128,31.280128 0 0 1 1.203701,-2.3001 c 0.427401,-0.73916 0.897099,-1.47624 1.393678,-2.19062 l 0.139294,-0.19938 0.242692,-0.0195 a 30.748469,30.748469 0 0 1 5.195812,0 l 0.241521,0.0195 0.138123,0.19938 a 30.976619,30.976619 0 0 1 2.598394,4.49072 l 0.104178,0.21967 -0.104178,0.22006 a 30.557486,30.557486 0 0 1 -2.598394,4.49072 l -0.138123,0.19939 -0.241521,0.0195 c -0.874429,0.0722 -1.748819,0.10964 -2.598433,0.10964 z m -2.268069,-1.11907 c 1.527861,0.11471 3.008277,0.11471 4.537152,0 a 29.944271,29.944271 0 0 0 2.267055,-3.92087 29.509652,29.509652 0 0 0 -2.268069,-3.92087 29.970079,29.970079 0 0 0 -4.536138,0 29.398159,29.398159 0 0 0 -2.268069,3.92087 30.055765,30.055765 0 0 0 2.268069,3.92087 z"
       inkscape:connector-curvature="0"
       style="fill:#464646;fill-opacity:1;stroke-width:1.03234744" />
  </g>
  <style
     id="style963"
     type="text/css">
	.st0{fill:#1A73E8;}
	.st1{fill:#EA4335;}
	.st2{fill:#4285F4;}
	.st3{fill:#FBBC04;}
	.st4{fill:#34A853;}
	.st5{fill:#4CAF50;}
	.st6{fill:#1E88E5;}
	.st7{fill:#E53935;}
	.st8{fill:#C62828;}
	.st9{fill:#FBC02D;}
	.st10{fill:#1565C0;}
	.st11{fill:#2E7D32;}
	.st12{fill:#F6B704;}
	.st13{fill:#E54335;}
	.st14{fill:#4280EF;}
	.st15{fill:#34A353;}
	.st16{clip-path:url(#SVGID_2_);}
	.st17{fill:#188038;}
	.st18{opacity:0.2;fill:#FFFFFF;enable-background:new    ;}
	.st19{opacity:0.3;fill:#0D652D;enable-background:new    ;}
	.st20{clip-path:url(#SVGID_4_);}
	.st21{opacity:0.3;fill:url(#_45_shadow_1_);enable-background:new    ;}
	.st22{clip-path:url(#SVGID_6_);}
	.st23{fill:#FA7B17;}
	.st24{opacity:0.3;fill:#174EA6;enable-background:new    ;}
	.st25{opacity:0.3;fill:#A50E0E;enable-background:new    ;}
	.st26{opacity:0.3;fill:#E37400;enable-background:new    ;}
	.st27{fill:url(#Finish_mask_1_);}
	.st28{fill:#FFFFFF;}
	.st29{fill:#0C9D58;}
	.st30{opacity:0.2;fill:#004D40;enable-background:new    ;}
	.st31{opacity:0.2;fill:#3E2723;enable-background:new    ;}
	.st32{fill:#FFC107;}
	.st33{opacity:0.2;fill:#1A237E;enable-background:new    ;}
	.st34{opacity:0.2;}
	.st35{fill:#1A237E;}
	.st36{fill:url(#SVGID_7_);}
	.st37{fill:#FBBC05;}
	.st38{clip-path:url(#SVGID_9_);fill:#E53935;}
	.st39{clip-path:url(#SVGID_11_);fill:#FBC02D;}
	.st40{clip-path:url(#SVGID_13_);fill:#E53935;}
	.st41{clip-path:url(#SVGID_15_);fill:#FBC02D;}
</style>
  <style
     id="style1069"
     type="text/css">
	.st0{fill:#00678F;}
	.st1{fill:#E38D1A;}
</style>
</svg>
