<?xml version="1.0" standalone="no"?><!-- Generator: Gravit.io --><svg xmlns="http://www.w3.org/2000/svg" xmlns:xlink="http://www.w3.org/1999/xlink" style="isolation:isolate" viewBox="0 0 100 100" width="100" height="100"><defs><clipPath id="_clipPath_AD3fUqOMlvuMKSbq4v7TarMsJyDvWcyu"><rect width="100" height="100"/></clipPath></defs><g clip-path="url(#_clipPath_AD3fUqOMlvuMKSbq4v7TarMsJyDvWcyu)"><g><path d=" M 20.86 3 L 79.14 3 C 88.997 3 97 11.003 97 20.86 L 97 79.14 C 97 88.997 88.997 97 79.14 97 L 20.86 97 C 11.003 97 3 88.997 3 79.14 L 3 20.86 C 3 11.003 11.003 3 20.86 3 Z " fill="none" vector-effect="non-scaling-stroke" stroke-width="3" stroke="rgb(70,70,70)" stroke-linejoin="miter" stroke-linecap="square" stroke-miterlimit="3"/><path d=" M 27.005 78.852 L 27.005 21.148 L 45.961 21.148 L 45.961 21.148 Q 59.317 21.148 65.284 24.582 L 65.284 24.582 L 65.284 24.582 Q 71.251 28.016 71.251 35.436 L 71.251 35.436 L 71.251 35.436 Q 71.251 40.567 67.923 43.902 L 67.923 43.902 L 67.923 43.902 L 62.916 48.224 Q 73.5 50.868 73.5 62.433 L 73.5 62.433 L 73.5 62.433 Q 73.5 70.169 67.418 74.51 L 67.418 74.51 L 67.418 74.51 Q 61.337 78.852 50.413 78.852 L 50.413 78.852 L 27.005 78.852 Z  M 34.808 26.95 L 34.808 45.856 L 47.659 45.856 L 47.659 45.856 Q 55.921 45.856 59.547 43.626 L 59.547 43.626 L 59.547 43.626 Q 63.173 41.396 63.173 36.107 L 63.173 36.107 L 63.173 36.107 Q 63.173 31.252 59.134 29.101 L 59.134 29.101 L 59.134 29.101 Q 55.095 26.95 46.282 26.95 L 46.282 26.95 L 34.808 26.95 Z  M 48.164 51.539 L 34.808 51.539 L 34.808 73.129 L 48.807 73.129 L 48.807 73.129 Q 56.931 73.129 61.039 70.425 L 61.039 70.425 L 61.039 70.425 Q 65.146 67.722 65.146 61.959 L 65.146 61.959 L 65.146 61.959 Q 65.146 56.591 60.947 54.065 L 60.947 54.065 L 60.947 54.065 Q 56.747 51.539 48.164 51.539 L 48.164 51.539 Z " fill-rule="evenodd" fill="none" vector-effect="non-scaling-stroke" stroke-width="3" stroke="rgb(70,70,70)" stroke-linejoin="round" stroke-linecap="round" stroke-miterlimit="3"/></g></g></svg>