<svg xmlns="http://www.w3.org/2000/svg" width="100" height="100" viewBox="0 0 26.458 26.458" xmlns:v="https://vecta.io/nano"><path d="M2.204 4.902v4.163l3.605 2.082V6.983zm0 4.273v4.163l3.605 2.082v-4.163zm0 4.273v4.163l3.605 2.081v-4.163zm3.671-6.465v4.163l3.605 2.082V9.065zm0 4.273v4.163L9.48 17.5v-4.163zm0 4.273v4.163l3.605 2.081V17.61zm3.672 2.082v4.163l3.605 2.082v-4.163zm0-4.273v4.163l3.605 2.082V15.42zm0-4.273v4.163l3.605 2.082v-4.163z" fill="#464646" stroke="#000" stroke-width=".011"/><path d="M16.89 9.065v4.163l-3.605 2.082v-4.163zm0 4.273v4.163l-3.605 2.082V15.42zm0 4.273v4.163l-3.605 2.082v-4.163zm3.671-10.628v4.163l-3.605 2.082V9.065zm0 4.273v4.163L16.956 17.5v-4.163zm0 4.273v4.163l-3.605 2.081V17.61zm3.671-2.081v4.163l-3.605 2.081v-4.163zm0-4.273v4.163l-3.605 2.082v-4.163zm0-4.273v4.163l-3.605 2.082V6.983z" stroke="#000" stroke-width=".011" fill="#666"/><path d="M13.218 6.829L9.613 8.91l3.605 2.082z" fill="#464646"/><g fill="#666"><path d="M13.196 6.829v4.163l3.605-2.082z"/><path d="M13.372 6.807l3.605-2.082 3.605 2.082-3.605 2.081zm3.738-2.104l3.605-2.081 3.605 2.081-3.605 2.082z" stroke="#000" stroke-width=".011"/></g><path d="M5.853 6.807l3.605-2.082 3.605 2.082-3.605 2.081zM2.138 4.681L5.743 2.6l3.605 2.081-3.605 2.082z" stroke="#000" stroke-width=".011" fill="#464646"/></svg>