<?xml version="1.0" standalone="no"?><!-- Generator: Gravit.io --><svg xmlns="http://www.w3.org/2000/svg" xmlns:xlink="http://www.w3.org/1999/xlink" style="isolation:isolate" viewBox="0 0 100 100" width="100" height="100"><defs><clipPath id="_clipPath_8rM8yBng3xeKVOJbBZ2LUN3xTbq0B7Co"><rect width="100" height="100"/></clipPath></defs><g clip-path="url(#_clipPath_8rM8yBng3xeKVOJbBZ2LUN3xTbq0B7Co)"><g><path d=" M 37.047 22.807 C 24.581 20.537 14.725 22.913 10.796 29.717 C 7.865 34.794 8.703 41.526 12.828 48.721 C 13.18 49.334 13.961 49.545 14.573 49.194 C 15.186 48.843 15.397 48.062 15.046 47.45 C 11.33 40.968 10.607 35.158 13.01 30.995 C 16.274 25.343 25.065 23.224 36.588 25.322 C 37.283 25.449 37.949 24.988 38.075 24.294 C 38.202 23.599 37.741 22.934 37.047 22.807 L 37.047 22.807 L 37.047 22.807 Z  M 55.482 11.228 C 54.465 13.196 52.411 14.54 50.044 14.54 C 46.665 14.54 43.926 11.801 43.926 8.422 C 43.926 5.043 46.665 2.304 50.044 2.304 C 53.423 2.304 56.162 5.043 56.162 8.422 C 56.162 8.511 56.16 8.599 56.156 8.686 C 66.284 13.924 73.321 31.785 73.321 52.42 C 73.321 60.907 72.135 69.051 69.925 76.111 C 69.714 76.785 68.997 77.16 68.324 76.949 C 67.65 76.738 67.275 76.021 67.485 75.348 C 69.615 68.541 70.765 60.654 70.765 52.42 C 70.765 32.99 64.306 16.27 55.482 11.228 Z  M 11.661 68.757 C 11.812 68.746 11.964 68.741 12.118 68.741 C 15.497 68.741 18.236 71.48 18.236 74.859 C 18.236 78.238 15.497 80.977 12.118 80.977 C 8.739 80.977 6 78.238 6 74.859 C 6 72.558 7.269 70.555 9.146 69.51 C 8.224 58.075 20.243 42.748 38.405 32.261 C 45.95 27.906 53.805 24.814 61.185 23.233 C 61.875 23.085 62.555 23.525 62.703 24.215 C 62.851 24.905 62.411 25.585 61.721 25.733 C 54.608 27.257 47.002 30.25 39.684 34.475 C 22.579 44.351 11.269 58.584 11.661 68.757 Z  M 82.562 77.883 C 82.054 76.991 81.764 75.959 81.764 74.859 C 81.764 71.48 84.503 68.741 87.882 68.741 C 91.261 68.741 94 71.48 94 74.859 C 94 78.238 91.261 80.977 87.882 80.977 C 86.55 80.977 85.318 80.551 84.314 79.829 C 74.554 85.571 55.911 82.642 38.368 72.513 C 30.9 68.202 24.352 63.006 19.311 57.467 C 18.836 56.945 18.874 56.137 19.396 55.662 C 19.918 55.186 20.727 55.225 21.202 55.747 C 26.06 61.086 32.401 66.117 39.646 70.299 C 56.203 79.858 73.638 82.703 82.562 77.883 L 82.562 77.883 Z  M 82.162 55.912 C 81.706 56.451 80.899 56.518 80.36 56.062 C 79.822 55.606 79.755 54.799 80.211 54.261 C 87.755 45.349 90.296 36.7 87.04 31.06 C 84.676 26.966 79.423 24.694 72.134 24.599 C 71.429 24.59 70.864 24.01 70.873 23.304 C 70.882 22.598 71.462 22.034 72.168 22.043 C 80.272 22.148 86.37 24.786 89.254 29.782 C 93.174 36.572 90.324 46.27 82.162 55.912 Z  M 30.944 78.442 C 30.706 77.777 31.052 77.046 31.716 76.808 C 32.381 76.57 33.113 76.915 33.351 77.58 C 37.295 88.595 43.523 95.139 50.044 95.139 C 54.734 95.139 59.295 91.779 63.007 85.604 C 63.371 84.999 64.156 84.803 64.761 85.167 C 65.366 85.531 65.562 86.316 65.198 86.921 C 61.067 93.793 55.77 97.696 50.044 97.696 C 42.193 97.696 35.211 90.359 30.944 78.442 Z  M 91.443 74.859 C 91.443 72.892 89.849 71.297 87.882 71.297 C 85.915 71.297 84.321 72.892 84.321 74.859 C 84.321 76.826 85.915 78.42 87.882 78.42 C 89.849 78.42 91.443 76.826 91.443 74.859 Z  M 12.118 78.42 C 14.085 78.42 15.679 76.826 15.679 74.859 C 15.679 72.892 14.085 71.297 12.118 71.297 C 10.151 71.297 8.557 72.892 8.557 74.859 C 8.557 76.826 10.151 78.42 12.118 78.42 Z  M 50.044 11.984 C 52.011 11.984 53.605 10.389 53.605 8.422 C 53.605 6.455 52.011 4.861 50.044 4.861 C 48.077 4.861 46.483 6.455 46.483 8.422 C 46.483 10.389 48.077 11.984 50.044 11.984 Z  M 50.978 56.746 C 48.589 57.263 46.235 55.744 45.717 53.355 C 45.202 50.965 46.72 48.611 49.109 48.093 C 51.499 47.577 53.853 49.096 54.37 51.485 C 54.887 53.875 53.368 56.229 50.978 56.746 Z " fill="none" vector-effect="non-scaling-stroke" stroke-width="2" stroke="rgb(70,70,70)" stroke-linejoin="miter" stroke-linecap="butt" stroke-miterlimit="4"/></g></g></svg>