<svg xmlns="http://www.w3.org/2000/svg" height="100" width="100" xmlns:v="https://vecta.io/nano"><path d="M8.725 2.832l7.739 85.165 33.54 9.172 33.534-9.172 7.739-85.165zm6.817 5.896h34.455 34.455l-7.238 73.724-27.217 8.084-27.217-8.084zm34.455 70.724V67.659l-9.264-2.965-.616-5.85H28.779l1.353 14.7z" fill="#464646"/><path d="M49.997 41.156v11.792h10.33l-1.048 11.746-9.282 2.965v11.792l19.836-5.908 2.919-32.388z" fill="#4d4d4d"/><path d="M49.997 20.52H25.256l1.157 11.792 1.825 20.636h21.759V41.156H38.948l-.737-8.844h11.786z" fill="#464646"/><path d="M49.997 20.52v11.792h23.584l1.071-11.792z" fill="#4d4d4d"/></svg>