<svg xmlns="http://www.w3.org/2000/svg" width="100" height="100" xmlns:v="https://vecta.io/nano"><path d="M11.536 27.49c-7.805 11.214-6.838 25.799-.871 37.707.136.29.287.566.434.842a5.93 5.93 0 0 0 .283.548c.048.103.114.21.173.305.096.191.199.375.298.559l.577.974c.107.18.21.357.331.537.202.346.441.688.651 1.033.096.143.184.287.29.43a23.383 23.383 0 0 0 1.14 1.632c.287.393.574.776.882 1.158.099.14.21.279.313.419l.813.989c.099.114.199.246.305.364.36.434.743.857 1.125 1.283 0 .007.011.015.018.026a11.508 11.508 0 0 0 1.559 1.618c.294.301.588.603.901.897l.371.357c.408.382.816.765 1.246 1.132.007 0 .011.007.018.011l.21.184a27.52 27.52 0 0 0 1.14.956l.46.386c.313.25.636.489.956.735l.5.382c.342.257.706.511 1.055.761.129.092.257.184.39.268l.107.085 1.033.68.441.294 1.61.996a5.94 5.94 0 0 1 .452.25l1.21.673c.221.125.449.232.676.346.276.154.563.305.857.46a1.191 1.191 0 0 1 .206.085c.121.055.235.114.353.173a30.22 30.22 0 0 0 1.379.64c.088.037.184.074.279.125.529.232 1.059.452 1.607.669.125.037.257.099.386.147l1.511.559.184.066 1.688.551c.132.037.268.085.408.121.585.176 1.151.386 1.739.5 37.722 6.875 48.686-22.681 48.686-22.681-9.21 11.993-25.552 15.155-41.031 11.636-.574-.132-1.147-.316-1.724-.485a49.715 49.715 0 0 1-2.085-.665l-.228-.088c-.5-.169-.982-.357-1.471-.544a5.93 5.93 0 0 0-.404-.151c-.54-.217-1.066-.441-1.588-.673-.114-.037-.21-.088-.324-.132a86.069 86.069 0 0 1-1.327-.625 5.45 5.45 0 0 1-.39-.191c-.346-.162-.691-.346-1.029-.522a14.493 14.493 0 0 1-.688-.353c-.415-.221-.831-.46-1.246-.688-.125-.088-.268-.162-.412-.243a58.465 58.465 0 0 1-1.61-.989 7.736 7.736 0 0 1-.434-.29 22.067 22.067 0 0 1-1.147-.757c-.129-.085-.246-.176-.379-.268a35.078 35.078 0 0 1-1.081-.779c-.154-.125-.32-.243-.485-.368l-.974-.765-.434-.346a38.898 38.898 0 0 1-1.228-1.033.949.949 0 0 0-.136-.11l-1.276-1.162-.368-.346c-.301-.305-.61-.599-.919-.901l-.357-.368a33.347 33.347 0 0 1-1.136-1.188l-.055-.059c-.39-.426-.768-.86-1.151-1.302-.099-.114-.191-.235-.294-.357l-.831-1.018a78.12 78.12 0 0 1-1.25-1.647c-8.585-11.721-11.692-27.898-4.82-41.167m18.151-1.735c-5.658 8.122-5.338 18.982-.934 27.571a33.457 33.457 0 0 0 2.489 4.162c.846 1.213 1.779 2.647 2.912 3.625.393.449.82.882 1.265 1.32l.331.331a49.92 49.92 0 0 0 1.287 1.195l.055.048a36.233 36.233 0 0 0 1.522 1.257c.125.085.232.184.353.268.515.397 1.033.779 1.57 1.158l.055.033c.228.165.471.316.728.478.103.066.221.154.331.221l1.165.724c.063.026.118.059.176.085.331.202.691.397 1.037.577.121.074.239.129.364.199a26.6 26.6 0 0 1 .724.375l.118.051c.496.243 1.004.471 1.5.699.125.048.232.088.338.14.408.176.824.346 1.232.504.184.063.357.136.529.191.375.14.768.268 1.14.397l.515.165c.537.165 1.081.382 1.647.474 29.119 4.827 35.862-17.6 35.862-17.6-6.07 8.736-17.817 12.898-30.336 9.647a29.523 29.523 0 0 1-1.647-.478c-.176-.048-.331-.103-.5-.154l-1.147-.401-.529-.199c-.412-.165-.831-.32-1.232-.496-.125-.055-.239-.092-.335-.147l-1.533-.706-.757-.393-.438-.221a20.85 20.85 0 0 1-.974-.551 2.279 2.279 0 0 1-.228-.125c-.39-.243-.794-.478-1.165-.728-.125-.07-.239-.154-.357-.228l-.765-.5c-.529-.368-1.048-.765-1.57-1.147-.118-.107-.232-.195-.346-.29-5.504-4.327-9.846-10.243-11.905-16.942-2.169-6.963-1.691-14.773 2.055-21.111m15.762-.54c-3.338 4.897-3.658 10.978-1.36 16.379 2.441 5.735 7.434 10.239 13.25 12.372.239.092.471.169.717.257l.324.099c.338.107.68.232 1.029.309 16.089 3.103 20.442-8.261 21.615-9.93-3.831 5.5-10.254 6.82-18.133 4.905a17.809 17.809 0 0 1-1.897-.588 23.324 23.324 0 0 1-2.268-.934 23.975 23.975 0 0 1-3.971-2.427c-7.059-5.346-11.431-15.552-6.827-23.865" fill="#464646"/></svg>