<svg xmlns="http://www.w3.org/2000/svg" height="100" width="100" xmlns:v="https://vecta.io/nano"><path d="M50 27.512c25.442 0 45.006 10.717 45.006 22.488S75.427 72.488 50 72.488C24.558 72.488 4.994 61.771 4.994 50S24.573 27.512 50 27.512m0-2.494C23.771 25.018 2.5 36.195 2.5 50S23.771 74.982 50 74.982 97.5 63.805 97.5 50 76.229 25.018 50 25.018zM34.889 47.996c-1.172 6.012-5.314 5.388-10.405 5.388l2.034-10.48c5.641 0 9.47-.608 8.372 5.092zM16.958 63.997h5.448l1.292-6.65c6.101 0 9.886.445 13.389-2.835 3.874-3.563 4.883-9.901 2.123-13.077-1.44-1.663-3.756-2.479-6.902-2.479H21.812zm27.565-31.706h5.418l-1.292 6.65c4.676 0 9.01-.341 11.103 1.588 2.197 2.019 1.143 4.602-1.232 16.788h-5.492c2.286-11.786 2.717-12.766 1.885-13.656-.801-.861-2.627-.683-7.036-.683l-2.791 14.339h-5.418zm32.939 15.705c-1.188 6.101-5.448 5.388-10.406 5.388l2.034-10.48c5.67 0 9.47-.608 8.372 5.092zM59.53 63.997h5.462l1.292-6.65c6.412 0 9.96.371 13.389-2.835 3.874-3.563 4.883-9.901 2.123-13.077-1.44-1.663-3.756-2.479-6.903-2.479H64.398z" fill="#464646"/></svg>