<svg xmlns="http://www.w3.org/2000/svg" viewBox="0 0 16 16" width="100" height="100" xmlns:v="https://vecta.io/nano"><path d="M.4.4V8v7.6h15.2V.4zm11.479 6.917c.272 0 .578.025.742.067l-.008.008a1.84 1.84 0 0 1 .95.543c.141.152.35.418.365.486 0 .023-.657.467-1.056.714-.015.011-.076-.053-.137-.152-.198-.281-.399-.403-.714-.426-.456-.03-.76.209-.76.608a.6.6 0 0 0 .068.289c.103.209.293.334.882.593 1.087.467 1.558.775 1.843 1.216.323.494.395 1.269.179 1.851-.243.635-.836 1.064-1.683 1.205-.266.046-.874.038-1.159-.011-.608-.114-1.189-.418-1.547-.809-.141-.152-.41-.559-.395-.585l.144-.091.57-.331.429-.251.099.133a2.07 2.07 0 0 0 .57.555c.494.255 1.155.22 1.482-.076a.57.57 0 0 0 .201-.456c0-.175-.027-.255-.114-.388-.122-.167-.365-.304-1.049-.608-.787-.334-1.121-.547-1.433-.874a2.16 2.16 0 0 1-.418-.76c-.057-.22-.076-.76-.023-.977.163-.76.737-1.292 1.558-1.444a2.34 2.34 0 0 1 .413-.029zm-5.475.079l2.668.015c.015.008.015.285.015.627v.608H7.111v5.624H5.709V8.646H3.733v-.619l.011.004v-.623z" fill="#464646"/></svg>