<?xml version="1.0" standalone="no"?><!-- Generator: Gravit.io --><svg xmlns="http://www.w3.org/2000/svg" xmlns:xlink="http://www.w3.org/1999/xlink" style="isolation:isolate" viewBox="0 0 130.233 130.233" width="130.233" height="130.233"><defs><clipPath id="_clipPath_JvPN7kJmDAy9t1ACbf6lihY9Z34efeh9"><rect width="130.233" height="130.233"/></clipPath></defs><g clip-path="url(#_clipPath_JvPN7kJmDAy9t1ACbf6lihY9Z34efeh9)"><g id="code"><g id="Group"><path d=" M 85.404 89.569 C 84.639 89.569 83.764 89.244 83.108 88.702 C 81.795 87.511 81.686 85.453 82.998 84.153 L 101.154 65.087 L 82.998 46.13 C 81.795 44.83 81.795 42.772 83.108 41.58 C 84.42 40.389 86.498 40.389 87.701 41.688 L 107.935 62.92 C 109.138 64.22 109.138 66.17 107.935 67.362 L 87.811 88.594 C 87.154 89.244 86.28 89.569 85.404 89.569 Z " fill="rgb(26,116,146)"/><path d=" M 44.937 89.569 C 44.062 89.569 43.187 89.244 42.531 88.594 L 22.298 67.362 C 21.095 66.062 21.095 64.112 22.298 62.921 L 42.531 41.689 C 43.734 40.389 45.812 40.281 47.125 41.581 C 48.437 42.772 48.547 44.83 47.234 46.13 L 29.188 65.087 L 47.344 84.045 C 48.547 85.345 48.547 87.403 47.234 88.594 C 46.578 89.244 45.703 89.569 44.937 89.569 Z " fill="rgb(26,116,146)"/></g><path d=" M 60.359 99.535 C 60.14 99.535 60.031 99.535 59.812 99.535 C 58.062 99.318 56.749 97.585 57.078 95.852 L 66.702 33.456 C 66.921 31.723 68.671 30.423 70.421 30.748 C 72.17 31.073 73.483 32.698 73.155 34.431 L 63.53 96.827 C 63.312 98.343 61.999 99.535 60.359 99.535 Z " fill="rgb(38,166,209)"/></g></g></svg>