<?xml version="1.0" standalone="no"?><!-- Generator: Gravit.io --><svg xmlns="http://www.w3.org/2000/svg" xmlns:xlink="http://www.w3.org/1999/xlink" style="isolation:isolate" viewBox="0 0 130.233 130.233" width="130.233" height="130.233"><defs><clipPath id="_clipPath_gBLTZa1vvlnV5Mkq0ycLN5u9jFppNsz8"><rect width="130.233" height="130.233"/></clipPath></defs><g clip-path="url(#_clipPath_gBLTZa1vvlnV5Mkq0ycLN5u9jFppNsz8)"><g id="coffee"><g id="Group"><g id="Group"><g id="Group"><path d=" M 92.543 92.061 L 77.844 92.061 C 81.588 90.469 84.452 88.204 86.635 85.462 C 95.543 84.023 99.535 76.182 99.535 68.965 C 99.535 63.843 96.854 59.565 93.386 58.817 C 93.386 58.778 93.386 58.74 93.387 58.701 C 93.387 58.059 93.145 57.418 92.663 56.905 C 92.181 56.391 91.578 56.135 90.975 56.135 L 35.52 56.135 C 34.917 56.135 34.314 56.391 33.832 56.905 C 33.35 57.418 33.109 58.059 33.109 58.701 C 33.202 72.5 35.461 86.453 48.652 92.061 L 33.832 92.061 C 32.144 92.061 30.698 93.472 30.698 95.397 C 30.698 96.937 31.662 98.091 33.35 98.476 L 48.66 99.631 C 49.022 99.631 49.384 99.888 49.504 100.273 C 50.107 101.556 51.313 102.326 52.639 102.326 L 72.651 102.326 C 73.977 102.326 75.183 101.556 75.665 100.273 C 75.785 99.888 76.147 99.631 76.509 99.631 L 92.904 98.476 L 93.025 98.476 C 94.713 98.091 95.677 96.937 95.677 95.397 C 95.677 93.6 94.351 92.061 92.543 92.061 Z  M 93.387 61.524 C 95.436 62.294 97.003 65.373 97.003 68.965 C 97.003 73.965 94.836 79.99 88.819 82.176 C 88.92 81.994 89.019 81.81 89.115 81.625 C 92.464 75.444 93.152 68 93.387 61.524 Z  M 35.52 58.701 L 90.975 58.701 C 90.855 76.022 87.359 92.061 63.248 92.061 C 39.137 92.061 35.641 76.022 35.52 58.701 Z  M 92.784 95.91 L 76.629 97.065 C 75.424 97.193 74.339 97.963 73.736 99.118 C 73.495 99.503 73.133 99.759 72.772 99.759 L 52.639 99.759 C 52.277 99.759 51.915 99.503 51.674 99.118 C 51.072 97.963 49.987 97.193 48.781 97.065 L 33.712 95.91 C 33.109 95.782 33.109 95.525 33.109 95.397 C 33.109 95.012 33.471 94.627 33.832 94.627 L 92.663 94.627 C 93.025 94.627 93.387 95.012 93.387 95.397 C 93.387 95.525 93.387 95.782 92.784 95.91 Z " fill="rgb(26,116,146)"/><path d=" M 62.404 38.557 C 60.596 40.481 59.631 42.406 59.631 44.459 C 59.631 46.512 60.596 48.565 62.404 50.617 C 62.645 50.874 62.886 51.002 63.248 51.002 C 63.609 51.002 63.85 50.874 64.091 50.617 C 64.574 50.104 64.574 49.334 64.091 48.821 C 62.765 47.281 62.042 45.87 62.042 44.459 C 62.042 43.047 62.765 41.636 64.091 40.353 C 65.9 38.557 66.864 36.504 66.864 34.451 C 66.864 32.398 66.02 30.217 64.092 28.292 C 63.609 27.779 62.886 27.779 62.404 28.292 C 61.922 28.805 61.922 29.575 62.404 30.088 C 63.73 31.628 64.453 33.039 64.453 34.451 C 64.453 35.862 63.73 37.273 62.404 38.557 Z " fill="rgb(38,166,209)"/><path d=" M 72.892 44.459 C 72.892 46.512 73.857 48.565 75.665 50.617 C 75.906 50.874 76.147 51.002 76.509 51.002 C 76.75 51.002 77.111 50.874 77.232 50.617 C 77.714 50.104 77.714 49.334 77.232 48.821 C 75.906 47.281 75.183 45.87 75.183 44.459 C 75.183 43.047 75.906 41.636 77.232 40.353 C 79.161 38.556 80.125 36.504 80.125 34.451 C 80.125 32.269 79.282 30.216 77.353 28.292 C 76.87 27.779 76.147 27.779 75.665 28.292 C 75.183 28.805 75.183 29.575 75.665 30.088 C 76.991 31.628 77.714 33.039 77.714 34.451 C 77.714 35.862 76.991 37.145 75.665 38.557 C 73.857 40.481 72.892 42.406 72.892 44.459 Z " fill="rgb(38,166,209)"/><path d=" M 47.576 44.459 C 47.576 46.512 48.54 48.565 50.348 50.617 C 50.589 50.874 50.83 51.002 51.192 51.002 C 51.433 51.002 51.795 50.874 51.915 50.617 C 52.398 50.104 52.398 49.334 51.915 48.821 C 50.589 47.281 49.866 45.87 49.866 44.459 C 49.866 43.047 50.589 41.636 51.915 40.353 C 53.844 38.556 54.809 36.504 54.809 34.451 C 54.809 32.269 53.965 30.216 52.036 28.292 C 51.554 27.779 50.83 27.779 50.348 28.292 C 49.866 28.805 49.866 29.575 50.348 30.088 C 51.674 31.628 52.398 33.039 52.398 34.451 C 52.398 35.862 51.674 37.145 50.348 38.557 C 48.54 40.481 47.576 42.406 47.576 44.459 Z " fill="rgb(38,166,209)"/><path d=" M 56.255 85.645 C 47.696 84.106 43.356 78.973 41.548 68.709 C 41.427 68.067 40.704 67.554 40.101 67.682 C 39.498 67.811 39.016 68.58 39.137 69.222 C 41.065 80.641 46.249 86.415 55.773 88.212 C 55.894 88.212 55.894 88.212 56.014 88.212 C 56.617 88.212 57.099 87.827 57.22 87.185 C 57.34 86.415 56.858 85.774 56.255 85.645 Z " fill="rgb(38,166,209)"/></g></g></g></g></g></svg>