<?xml version="1.0" standalone="no"?><!-- Generator: Gravit.io --><svg xmlns="http://www.w3.org/2000/svg" xmlns:xlink="http://www.w3.org/1999/xlink" style="isolation:isolate" viewBox="0 0 289.834 187.928" width="289.834" height="187.928"><defs><clipPath id="_clipPath_1VF6pSxI68JUq13gAjiBCgG824IqYWV2"><rect width="289.834" height="187.928"/></clipPath></defs><g clip-path="url(#_clipPath_1VF6pSxI68JUq13gAjiBCgG824IqYWV2)"><g id="Design"><g id="computer-and-books-studying-tools" style="mix-blend-mode:overlay;"><g id="Group"><g id="Group"><path d=" M 133.157 176.431 L 245.323 161.36 L 279.916 15.293 L 123.94 0 L 101.601 117.227 L 101.583 117.227 L 7.185 131.226 L 133.157 176.431 Z  M 130.34 10.306 L 264.217 26.042 L 235.09 149.096 L 110.319 113.81 L 130.34 10.306 Z  M 120.477 156.576 L 101.805 158.792 L 70.886 146.99 L 85.782 145.014 L 120.477 156.576 Z " fill="rgb(203,203,203)"/><path d=" M 282.095 14.341 L 247.622 161.396 L 127.662 178.933 L 127.662 178.896 L 0 132.178 L 0 139.427 L 126.785 187.928 L 254.142 167.685 L 289.834 19.716 L 282.095 14.341 Z " fill="rgb(213,213,213)"/></g></g></g><g id="layer"><g id="Group"><path d=" M 140.123 91.624 L 177.723 73.215 L 213.756 91.621 L 176.157 110.029 L 140.123 91.624 Z " fill="rgb(0,150,136)"/><path d=" M 140.613 80.122 L 178.212 61.716 L 214.245 80.124 L 176.646 98.528 L 140.613 80.122 Z " fill="rgb(108,167,255)"/><path d=" M 141.102 68.623 L 178.701 50.217 L 214.735 68.625 L 177.135 87.029 L 141.102 68.623 Z " fill="rgb(56,133,249)"/></g></g></g></g></svg>