<?xml version="1.0" standalone="no"?><!-- Generator: Gravit.io --><svg xmlns="http://www.w3.org/2000/svg" xmlns:xlink="http://www.w3.org/1999/xlink" style="isolation:isolate" viewBox="0 0 560 315" width="560" height="315"><defs><clipPath id="_clipPath_hLhGZmDUJ8sefqpg8XaoeFF5zgEPeVYF"><rect width="560" height="315"/></clipPath></defs><g clip-path="url(#_clipPath_hLhGZmDUJ8sefqpg8XaoeFF5zgEPeVYF)"><clipPath id="_clipPath_WJ43IKQEe0FqCiBPOjr8xUbR5b4F5Cbv"><rect x="90" y="55.939" width="380" height="203.122" transform="matrix(1,0,0,1,0,0)" fill="rgb(255,255,255)"/></clipPath><g clip-path="url(#_clipPath_WJ43IKQEe0FqCiBPOjr8xUbR5b4F5Cbv)"><g id="Group"><g id="Development"><path d=" M 456.649 259.061 L 470 259.061 L 470 64.92 C 470 59.963 465.467 55.939 459.885 55.939 L 100.115 55.939 C 94.533 55.939 90 59.963 90 64.92 L 90 259.061 L 101.649 259.061 L 101.649 67.037 C 101.649 62.365 96.387 67.037 101.649 67.037 L 456.649 67.037 C 461.911 67.037 456.649 62.365 456.649 67.037 L 456.649 259.061 Z " fill="rgb(203,203,203)"/><g id="LeftPanel" style="opacity:0.55;"><g id="Group" style="opacity:0.55;"><g opacity="0.55"><rect x="109.855" y="90.421" width="32.011" height="161.638" transform="matrix(1,0,-0.005,1,0.856,0)" fill="rgb(177,185,185)"/></g></g><g id="Group" style="opacity:0.55;"><g opacity="0.55"><path d=" M 447.843 252.059 L 385.51 252.059 L 385.51 90.421 L 447.843 90.421 L 447.843 252.059 Z " fill="rgb(177,185,185)"/></g></g><g id="Group" style="opacity:0.55;"><g opacity="0.55"><path d=" M 391.462 189.017 L 391.462 153.463 L 439.862 153.463 L 440.128 189.017 L 391.462 189.017 Z " fill="rgb(172,174,174)"/></g></g><g id="Group" style="opacity:0.55;"><g opacity="0.55"><path d=" M 391.462 223.176 L 391.462 194.537 L 439.862 194.537 L 440.128 223.176 L 391.462 223.176 Z " fill="rgb(172,174,174)"/></g></g><g id="Group" style="opacity:0.55;"><g opacity="0.55"><path d=" M 391.462 148.226 L 391.462 130.492 L 439.862 130.492 L 439.862 148.226 L 391.462 148.226 Z " fill="rgb(172,174,174)"/></g></g><g id="Group" style="opacity:0.55;"><g opacity="0.55"><path d=" M 391.195 127.009 L 391.195 97.108 L 439.862 97.108 L 439.862 127.009 L 391.195 127.009 Z " fill="rgb(172,174,174)"/></g></g><g id="Elipses" style="opacity:0.55;"><g id="Group" style="opacity:0.73;"><g id="Group" style="opacity:0.73;"><g opacity="0.73"><path d=" M 122.137 108.172 L 129.584 108.172 C 131.327 108.172 132.742 109.691 132.742 111.561 L 132.742 111.561 C 132.742 113.431 131.327 114.949 129.584 114.949 L 122.137 114.949 C 120.393 114.949 118.978 113.431 118.978 111.561 L 118.978 111.561 C 118.978 109.691 120.393 108.172 122.137 108.172 Z " fill="rgb(171,174,176)"/></g></g></g><g id="Group" style="opacity:0.73;"><g id="Group" style="opacity:0.73;"><g opacity="0.73"><path d=" M 122.137 120.837 L 129.584 120.837 C 131.327 120.837 132.742 122.356 132.742 124.226 L 132.742 124.226 C 132.742 126.096 131.327 127.614 129.584 127.614 L 122.137 127.614 C 120.393 127.614 118.978 126.096 118.978 124.226 L 118.978 124.226 C 118.978 122.356 120.393 120.837 122.137 120.837 Z " fill="rgb(171,174,176)"/></g></g></g><g id="Group" style="opacity:0.73;"><g id="Group" style="opacity:0.73;"><g opacity="0.73"><path d=" M 122.137 133.502 L 129.584 133.502 C 131.327 133.502 132.742 135.021 132.742 136.891 L 132.742 136.891 C 132.742 138.761 131.327 140.279 129.584 140.279 L 122.137 140.279 C 120.393 140.279 118.978 138.761 118.978 136.891 L 118.978 136.891 C 118.978 135.021 120.393 133.502 122.137 133.502 Z " fill="rgb(171,174,176)"/></g></g></g><g id="Group" style="opacity:0.73;"><g id="Group" style="opacity:0.73;"><g opacity="0.73"><path d=" M 122.137 146.167 L 129.584 146.167 C 131.327 146.167 132.742 147.686 132.742 149.556 L 132.742 149.556 C 132.742 151.426 131.327 152.944 129.584 152.944 L 122.137 152.944 C 120.393 152.944 118.978 151.426 118.978 149.556 L 118.978 149.556 C 118.978 147.686 120.393 146.167 122.137 146.167 Z " fill="rgb(171,174,176)"/></g></g></g><g id="Group" style="opacity:0.73;"><g id="Group" style="opacity:0.73;"><g opacity="0.73"><path d=" M 122.137 170.346 L 129.584 170.346 C 131.327 170.346 132.742 171.865 132.742 173.735 L 132.742 173.735 C 132.742 175.604 131.327 177.123 129.584 177.123 L 122.137 177.123 C 120.393 177.123 118.978 175.604 118.978 173.735 L 118.978 173.735 C 118.978 171.865 120.393 170.346 122.137 170.346 Z " fill="rgb(171,174,176)"/></g></g></g><g id="Group" style="opacity:0.73;"><g id="Group" style="opacity:0.73;"><g opacity="0.73"><path d=" M 122.137 183.011 L 129.584 183.011 C 131.327 183.011 132.742 184.53 132.742 186.4 L 132.742 186.4 C 132.742 188.269 131.327 189.788 129.584 189.788 L 122.137 189.788 C 120.393 189.788 118.978 188.269 118.978 186.4 L 118.978 186.4 C 118.978 184.53 120.393 183.011 122.137 183.011 Z " fill="rgb(171,174,176)"/></g></g></g><g id="Group" style="opacity:0.73;"><g id="Group" style="opacity:0.73;"><g opacity="0.73"><path d=" M 122.137 195.292 L 129.584 195.292 C 131.327 195.292 132.742 196.811 132.742 198.681 L 132.742 198.681 C 132.742 200.551 131.327 202.069 129.584 202.069 L 122.137 202.069 C 120.393 202.069 118.978 200.551 118.978 198.681 L 118.978 198.681 C 118.978 196.811 120.393 195.292 122.137 195.292 Z " fill="rgb(171,174,176)"/></g></g></g><g id="Group" style="opacity:0.73;"><g id="Group" style="opacity:0.73;"><g opacity="0.73"><path d=" M 122.36 216.401 L 129.36 216.401 C 130.998 216.401 132.328 217.919 132.328 219.789 L 132.328 219.789 C 132.328 221.659 130.998 223.178 129.36 223.178 L 122.36 223.178 C 120.722 223.178 119.392 221.659 119.392 219.789 L 119.392 219.789 C 119.392 217.919 120.722 216.401 122.36 216.401 Z " fill="rgb(171,174,176)"/></g></g></g><g id="Group" style="opacity:0.73;"><g id="Group" style="opacity:0.73;"><g opacity="0.73"><path d=" M 122.36 227.531 L 129.36 227.531 C 130.998 227.531 132.328 229.049 132.328 230.919 L 132.328 230.919 C 132.328 232.789 130.998 234.308 129.36 234.308 L 122.36 234.308 C 120.722 234.308 119.392 232.789 119.392 230.919 L 119.392 230.919 C 119.392 229.049 120.722 227.531 122.36 227.531 Z " fill="rgb(171,174,176)"/></g></g></g></g></g><g id="TitleBar"><path d=" M 101.682 67.192 L 456.525 67.192 L 456.525 81.33 L 101.682 81.33 L 101.682 67.192 Z " fill="rgb(84,106,121)"/><g id="Group"><g id="Group"><g id="Group" style="opacity:0.76;"><g id="Group" style="opacity:0.76;"><g id="Group" style="opacity:0.9;"><g opacity="0.9"><path d=" M 127.645 74.994 C 127.296 73.289 129.013 71.641 131.479 71.318 C 133.944 70.994 136.23 72.116 136.58 73.821 C 136.93 75.526 135.213 77.172 132.747 77.496 C 130.282 77.819 127.996 76.698 127.645 74.994 Z " fill="rgb(79,186,111)"/></g></g></g></g><g id="Group" style="opacity:0.76;"><g id="Group" style="opacity:0.76;"><g id="Group" style="opacity:0.9;"><g opacity="0.9"><path d=" M 116.946 74.993 C 116.595 73.288 118.313 71.642 120.778 71.318 C 123.244 70.995 125.53 72.116 125.88 73.82 C 126.23 75.525 124.513 77.172 122.047 77.495 C 119.582 77.819 117.296 76.698 116.946 74.993 Z " fill="rgb(240,196,25)"/></g></g></g></g><g id="Group" style="opacity:0.76;"><g id="Group" style="opacity:0.76;"><g id="Group" style="opacity:0.9;"><g opacity="0.9"><path d=" M 106.499 74.994 C 106.149 73.289 107.866 71.641 110.332 71.318 C 112.797 70.994 115.084 72.116 115.433 73.821 C 115.784 75.526 114.067 77.172 111.601 77.496 C 109.135 77.819 106.849 76.698 106.499 74.994 Z " fill="rgb(237,113,97)"/></g></g></g></g></g></g></g></g><g id="layer"><g id="Group"><path d=" M 197.5 189.851 L 270.571 154.075 L 340.597 189.845 L 267.528 225.619 L 197.5 189.851 Z " fill="rgb(0,150,136)"/><path d=" M 198.452 167.498 L 271.522 131.728 L 341.548 167.502 L 268.478 203.268 L 198.452 167.498 Z " fill="rgb(108,167,255)"/><path d=" M 199.403 145.151 L 272.472 109.381 L 342.5 145.155 L 269.429 180.921 L 199.403 145.151 Z " fill="rgb(56,133,249)"/></g></g></g></g><linearGradient id="_lgradient_0" x1="0%" y1="50%" x2="65.85859517676077%" y2="52.08500908445701%"><stop offset="0%" stop-opacity="1" style="stop-color:rgb(108,167,255)"/><stop offset="97.82608695652173%" stop-opacity="1" style="stop-color:rgb(56,133,249)"/></linearGradient><path d=" M 0 174 C 88.656 175.77 535.789 342.288 560 164.542 L 560 315 C 449.54 303.243 228.346 273.237 0 315 L 0 174 Z " fill="url(#_lgradient_0)"/></g></svg>