<?xml version="1.0" standalone="no"?><!-- Generator: Gravit.io --><svg xmlns="http://www.w3.org/2000/svg" xmlns:xlink="http://www.w3.org/1999/xlink" style="isolation:isolate" viewBox="0 0 380 203.122" width="380" height="203.122"><defs><clipPath id="_clipPath_qLaFj1IAD4Q40bKaGzLubX0dJSXEuHtj"><rect width="380" height="203.122"/></clipPath></defs><g clip-path="url(#_clipPath_qLaFj1IAD4Q40bKaGzLubX0dJSXEuHtj)"><g id="Development"><path d=" M 366.649 203.122 L 380 203.122 L 380 8.981 C 380 4.024 375.467 0 369.885 0 L 10.115 0 C 4.533 0 0 4.024 0 8.981 L 0 203.122 L 11.649 203.122 L 11.649 11.098 C 11.649 6.426 6.387 11.098 11.649 11.098 L 366.649 11.098 C 371.911 11.098 366.649 6.426 366.649 11.098 L 366.649 203.122 Z " fill="rgb(203,203,203)"/><g id="LeftPanel" style="opacity:0.55;"><g opacity="0.55"><rect x="19.855" y="34.482" width="32.011" height="161.638" transform="matrix(1,0,-0.005,1,0.577,0)" fill="rgb(177,185,185)"/></g><g opacity="0.55"><path d=" M 357.843 196.12 L 295.51 196.12 L 295.51 34.482 L 357.843 34.482 L 357.843 196.12 Z " fill="rgb(177,185,185)"/></g><g opacity="0.55"><path d=" M 301.462 133.078 L 301.462 97.524 L 349.862 97.524 L 350.128 133.078 L 301.462 133.078 Z " fill="rgb(172,174,174)"/></g><g opacity="0.55"><path d=" M 301.462 167.237 L 301.462 138.598 L 349.862 138.598 L 350.128 167.237 L 301.462 167.237 Z " fill="rgb(172,174,174)"/></g><g opacity="0.55"><path d=" M 301.462 92.287 L 301.462 74.553 L 349.862 74.553 L 349.862 92.287 L 301.462 92.287 Z " fill="rgb(172,174,174)"/></g><g opacity="0.55"><path d=" M 301.195 71.07 L 301.195 41.169 L 349.862 41.169 L 349.862 71.07 L 301.195 71.07 Z " fill="rgb(172,174,174)"/></g><g id="Elipses"><g id="Group" style="opacity:0.73;"><g opacity="0.73"><path d=" M 32.137 52.233 L 39.584 52.233 C 41.327 52.233 42.742 53.752 42.742 55.622 L 42.742 55.622 C 42.742 57.492 41.327 59.01 39.584 59.01 L 32.137 59.01 C 30.393 59.01 28.978 57.492 28.978 55.622 L 28.978 55.622 C 28.978 53.752 30.393 52.233 32.137 52.233 Z " fill="rgb(171,174,176)"/></g></g><g id="Group" style="opacity:0.73;"><g opacity="0.73"><path d=" M 32.137 64.898 L 39.584 64.898 C 41.327 64.898 42.742 66.417 42.742 68.287 L 42.742 68.287 C 42.742 70.157 41.327 71.675 39.584 71.675 L 32.137 71.675 C 30.393 71.675 28.978 70.157 28.978 68.287 L 28.978 68.287 C 28.978 66.417 30.393 64.898 32.137 64.898 Z " fill="rgb(171,174,176)"/></g></g><g id="Group" style="opacity:0.73;"><g opacity="0.73"><path d=" M 32.137 77.563 L 39.584 77.563 C 41.327 77.563 42.742 79.082 42.742 80.952 L 42.742 80.952 C 42.742 82.822 41.327 84.34 39.584 84.34 L 32.137 84.34 C 30.393 84.34 28.978 82.822 28.978 80.952 L 28.978 80.952 C 28.978 79.082 30.393 77.563 32.137 77.563 Z " fill="rgb(171,174,176)"/></g></g><g id="Group" style="opacity:0.73;"><g opacity="0.73"><path d=" M 32.137 90.228 L 39.584 90.228 C 41.327 90.228 42.742 91.747 42.742 93.617 L 42.742 93.617 C 42.742 95.487 41.327 97.005 39.584 97.005 L 32.137 97.005 C 30.393 97.005 28.978 95.487 28.978 93.617 L 28.978 93.617 C 28.978 91.747 30.393 90.228 32.137 90.228 Z " fill="rgb(171,174,176)"/></g></g><g id="Group" style="opacity:0.73;"><g opacity="0.73"><path d=" M 32.137 114.407 L 39.584 114.407 C 41.327 114.407 42.742 115.926 42.742 117.796 L 42.742 117.796 C 42.742 119.665 41.327 121.184 39.584 121.184 L 32.137 121.184 C 30.393 121.184 28.978 119.665 28.978 117.796 L 28.978 117.796 C 28.978 115.926 30.393 114.407 32.137 114.407 Z " fill="rgb(171,174,176)"/></g></g><g id="Group" style="opacity:0.73;"><g opacity="0.73"><path d=" M 32.137 127.072 L 39.584 127.072 C 41.327 127.072 42.742 128.591 42.742 130.461 L 42.742 130.461 C 42.742 132.33 41.327 133.849 39.584 133.849 L 32.137 133.849 C 30.393 133.849 28.978 132.33 28.978 130.461 L 28.978 130.461 C 28.978 128.591 30.393 127.072 32.137 127.072 Z " fill="rgb(171,174,176)"/></g></g><g id="Group" style="opacity:0.73;"><g opacity="0.73"><path d=" M 32.137 139.353 L 39.584 139.353 C 41.327 139.353 42.742 140.872 42.742 142.742 L 42.742 142.742 C 42.742 144.612 41.327 146.13 39.584 146.13 L 32.137 146.13 C 30.393 146.13 28.978 144.612 28.978 142.742 L 28.978 142.742 C 28.978 140.872 30.393 139.353 32.137 139.353 Z " fill="rgb(171,174,176)"/></g></g><g id="Group" style="opacity:0.73;"><g opacity="0.73"><path d=" M 32.36 160.462 L 39.36 160.462 C 40.998 160.462 42.328 161.98 42.328 163.85 L 42.328 163.85 C 42.328 165.72 40.998 167.239 39.36 167.239 L 32.36 167.239 C 30.722 167.239 29.392 165.72 29.392 163.85 L 29.392 163.85 C 29.392 161.98 30.722 160.462 32.36 160.462 Z " fill="rgb(171,174,176)"/></g></g><g id="Group" style="opacity:0.73;"><g opacity="0.73"><path d=" M 32.36 171.592 L 39.36 171.592 C 40.998 171.592 42.328 173.11 42.328 174.98 L 42.328 174.98 C 42.328 176.85 40.998 178.369 39.36 178.369 L 32.36 178.369 C 30.722 178.369 29.392 176.85 29.392 174.98 L 29.392 174.98 C 29.392 173.11 30.722 171.592 32.36 171.592 Z " fill="rgb(171,174,176)"/></g></g></g></g><g id="TitleBar"><path d=" M 11.682 11.253 L 366.525 11.253 L 366.525 25.391 L 11.682 25.391 L 11.682 11.253 Z " fill="rgb(84,106,121)"/><g id="Group"><g id="Group"><g id="Group" style="opacity:0.76;"><g id="Group" style="opacity:0.76;"><g opacity="0.9"><path d=" M 37.645 19.055 C 37.296 17.35 39.013 15.702 41.479 15.379 C 43.944 15.055 46.23 16.177 46.58 17.882 C 46.93 19.587 45.213 21.233 42.747 21.557 C 40.282 21.88 37.996 20.759 37.645 19.055 Z " fill="rgb(79,186,111)"/></g></g></g><g id="Group" style="opacity:0.76;"><g id="Group" style="opacity:0.76;"><g opacity="0.9"><path d=" M 26.946 19.054 C 26.595 17.349 28.313 15.703 30.778 15.379 C 33.244 15.056 35.53 16.177 35.88 17.881 C 36.23 19.586 34.513 21.233 32.047 21.556 C 29.582 21.88 27.296 20.759 26.946 19.054 Z " fill="rgb(240,196,25)"/></g></g></g><g id="Group" style="opacity:0.76;"><g id="Group" style="opacity:0.76;"><g opacity="0.9"><path d=" M 16.499 19.055 C 16.149 17.35 17.866 15.702 20.332 15.379 C 22.797 15.055 25.084 16.177 25.433 17.882 C 25.784 19.587 24.067 21.233 21.601 21.557 C 19.135 21.88 16.849 20.759 16.499 19.055 Z " fill="rgb(237,113,97)"/></g></g></g></g></g></g></g><g id="layer"><g id="Group"><path d=" M 107.5 133.912 L 180.571 98.136 L 250.597 133.906 L 177.528 169.68 L 107.5 133.912 Z " fill="rgb(0,150,136)"/><path d=" M 108.452 111.559 L 181.522 75.789 L 251.548 111.563 L 178.478 147.329 L 108.452 111.559 Z " fill="rgb(108,167,255)"/><path d=" M 109.403 89.212 L 182.472 53.442 L 252.5 89.216 L 179.429 124.982 L 109.403 89.212 Z " fill="rgb(56,133,249)"/></g></g></g></svg>