<?xml version="1.0" standalone="no"?><!-- Generator: Gravit.io --><svg xmlns="http://www.w3.org/2000/svg" xmlns:xlink="http://www.w3.org/1999/xlink" style="isolation:isolate" viewBox="0 0 380 203.122" width="380" height="203.122"><defs><clipPath id="_clipPath_82WFS0dFmb0F1OKxRA2dE2WSyTqlvMM7"><rect width="380" height="203.122"/></clipPath></defs><g clip-path="url(#_clipPath_82WFS0dFmb0F1OKxRA2dE2WSyTqlvMM7)"><g id="Development"><path d=" M 366.649 203.122 L 380 203.122 L 380 8.981 C 380 4.024 375.467 0 369.885 0 L 10.115 0 C 4.533 0 0 4.024 0 8.981 L 0 203.122 L 11.649 203.122 L 11.649 11.098 C 11.649 6.426 6.387 11.098 11.649 11.098 L 366.649 11.098 C 371.911 11.098 366.649 6.426 366.649 11.098 L 366.649 203.122 Z " fill="rgb(203,203,203)"/><g id="TitleBar"><path d=" M 11.682 11.253 L 366.525 11.253 L 366.525 25.391 L 11.682 25.391 L 11.682 11.253 Z " fill="rgb(84,106,121)"/><g id="Group"><g id="Group"><g id="Group" style="opacity:0.76;"><g id="Group" style="opacity:0.76;"><g opacity="0.9"><path d=" M 37.645 19.055 C 37.296 17.35 39.013 15.702 41.479 15.379 C 43.944 15.055 46.23 16.177 46.58 17.882 C 46.93 19.587 45.213 21.233 42.747 21.557 C 40.282 21.88 37.996 20.759 37.645 19.055 Z " fill="rgb(79,186,111)"/></g></g></g><g id="Group" style="opacity:0.76;"><g id="Group" style="opacity:0.76;"><g opacity="0.9"><path d=" M 26.946 19.054 C 26.595 17.349 28.313 15.703 30.778 15.379 C 33.244 15.056 35.53 16.177 35.88 17.881 C 36.23 19.586 34.513 21.233 32.047 21.556 C 29.582 21.88 27.296 20.759 26.946 19.054 Z " fill="rgb(240,196,25)"/></g></g></g><g id="Group" style="opacity:0.76;"><g id="Group" style="opacity:0.76;"><g opacity="0.9"><path d=" M 16.499 19.055 C 16.149 17.35 17.866 15.702 20.332 15.379 C 22.797 15.055 25.084 16.177 25.433 17.882 C 25.784 19.587 24.067 21.233 21.601 21.557 C 19.135 21.88 16.849 20.759 16.499 19.055 Z " fill="rgb(237,113,97)"/></g></g></g></g></g></g></g><g id="LeftPanel" style="opacity:0.55;"><g id="Group" style="opacity:0.55;"><g opacity="0.55"><rect x="21.772" y="36.908" width="44.226" height="155.889" transform="matrix(1,0,-0.006,1,0.712,0)" fill="rgb(177,185,185)"/></g></g><g id="Elipses" style="opacity:0.55;"><g id="Group" style="opacity:0.73;"><g id="Group" style="opacity:0.73;"><g opacity="0.73"><path d=" M 38.27 46.526 L 49.672 46.526 C 52.341 46.526 54.507 47.908 54.507 49.609 L 54.507 49.609 C 54.507 51.31 52.341 52.692 49.672 52.692 L 38.27 52.692 C 35.601 52.692 33.434 51.31 33.434 49.609 L 33.434 49.609 C 33.434 47.908 35.601 46.526 38.27 46.526 Z " fill="rgb(171,174,176)"/></g></g></g><g id="Group" style="opacity:0.73;"><g id="Group" style="opacity:0.73;"><g opacity="0.73"><path d=" M 38.27 58.049 L 49.672 58.049 C 52.341 58.049 54.507 59.431 54.507 61.132 L 54.507 61.132 C 54.507 62.833 52.341 64.215 49.672 64.215 L 38.27 64.215 C 35.601 64.215 33.434 62.833 33.434 61.132 L 33.434 61.132 C 33.434 59.431 35.601 58.049 38.27 58.049 Z " fill="rgb(171,174,176)"/></g></g></g><g id="Group" style="opacity:0.73;"><g id="Group" style="opacity:0.73;"><g opacity="0.73"><path d=" M 38.27 69.572 L 49.672 69.572 C 52.341 69.572 54.507 70.954 54.507 72.655 L 54.507 72.655 C 54.507 74.356 52.341 75.738 49.672 75.738 L 38.27 75.738 C 35.601 75.738 33.434 74.356 33.434 72.655 L 33.434 72.655 C 33.434 70.954 35.601 69.572 38.27 69.572 Z " fill="rgb(171,174,176)"/></g></g></g><g id="Group" style="opacity:0.73;"><g id="Group" style="opacity:0.73;"><g opacity="0.73"><path d=" M 38.27 81.095 L 49.672 81.095 C 52.341 81.095 54.507 82.477 54.507 84.178 L 54.507 84.178 C 54.507 85.879 52.341 87.261 49.672 87.261 L 38.27 87.261 C 35.601 87.261 33.434 85.879 33.434 84.178 L 33.434 84.178 C 33.434 82.477 35.601 81.095 38.27 81.095 Z " fill="rgb(171,174,176)"/></g></g></g><g id="Group" style="opacity:0.73;"><g id="Group" style="opacity:0.73;"><g opacity="0.73"><path d=" M 38.27 103.093 L 49.672 103.093 C 52.341 103.093 54.507 104.475 54.507 106.176 L 54.507 106.176 C 54.507 107.877 52.341 109.259 49.672 109.259 L 38.27 109.259 C 35.601 109.259 33.434 107.877 33.434 106.176 L 33.434 106.176 C 33.434 104.475 35.601 103.093 38.27 103.093 Z " fill="rgb(171,174,176)"/></g></g></g><g id="Group" style="opacity:0.73;"><g id="Group" style="opacity:0.73;"><g opacity="0.73"><path d=" M 38.27 114.616 L 49.672 114.616 C 52.341 114.616 54.507 115.998 54.507 117.699 L 54.507 117.699 C 54.507 119.4 52.341 120.782 49.672 120.782 L 38.27 120.782 C 35.601 120.782 33.434 119.4 33.434 117.699 L 33.434 117.699 C 33.434 115.998 35.601 114.616 38.27 114.616 Z " fill="rgb(171,174,176)"/></g></g></g><g id="Group" style="opacity:0.73;"><g id="Group" style="opacity:0.73;"><g opacity="0.73"><path d=" M 38.27 125.79 L 49.672 125.79 C 52.341 125.79 54.507 127.172 54.507 128.873 L 54.507 128.873 C 54.507 130.574 52.341 131.956 49.672 131.956 L 38.27 131.956 C 35.601 131.956 33.434 130.574 33.434 128.873 L 33.434 128.873 C 33.434 127.172 35.601 125.79 38.27 125.79 Z " fill="rgb(171,174,176)"/></g></g></g><g id="Group" style="opacity:0.73;"><g id="Group" style="opacity:0.73;"><g opacity="0.73"><path d=" M 38.119 144.994 L 49.521 144.994 C 52.19 144.994 54.356 146.376 54.356 148.077 L 54.356 148.077 C 54.356 149.778 52.19 151.16 49.521 151.16 L 38.119 151.16 C 35.45 151.16 33.284 149.778 33.284 148.077 L 33.284 148.077 C 33.284 146.376 35.45 144.994 38.119 144.994 Z " fill="rgb(171,174,176)"/></g></g></g><g id="Group" style="opacity:0.73;"><g id="Group" style="opacity:0.73;"><g opacity="0.73"><path d=" M 38.27 155.121 L 49.672 155.121 C 52.341 155.121 54.507 156.503 54.507 158.204 L 54.507 158.204 C 54.507 159.905 52.341 161.287 49.672 161.287 L 38.27 161.287 C 35.601 161.287 33.434 159.905 33.434 158.204 L 33.434 158.204 C 33.434 156.503 35.601 155.121 38.27 155.121 Z " fill="rgb(171,174,176)"/></g></g></g></g></g><g id="Code"><path d=" M 169.773 55.617 L 85.294 54.023 C 81.698 53.957 78.781 52.172 78.763 50.033 C 78.748 47.892 81.639 46.217 85.233 46.286 L 169.712 47.879 C 173.305 47.946 176.225 49.731 176.24 51.87 C 176.256 54.01 173.364 55.685 169.773 55.617 Z " fill="rgb(56,133,249)"/><path d=" M 262.568 56.305 L 197.583 55.078 C 193.99 55.011 191.072 53.228 191.054 51.088 C 191.04 48.947 193.93 47.273 197.522 47.341 L 262.509 48.567 C 266.101 48.634 269.02 50.42 269.036 52.558 C 269.052 54.698 266.161 56.372 262.568 56.305 Z " fill="rgb(109,163,245)"/><path d=" M 301.558 56.745 L 288.562 56.5 C 284.967 56.433 282.05 54.649 282.034 52.51 C 282.017 50.368 284.908 48.694 288.502 48.763 L 301.497 49.008 C 305.092 49.075 308.01 50.859 308.026 52.999 C 308.043 55.14 305.152 56.814 301.558 56.745 Z " fill="rgb(0,150,136)"/><path d=" M 332.354 73.709 L 234.876 71.871 C 231.283 71.804 228.363 70.02 228.348 67.879 C 228.33 65.74 231.223 64.065 234.816 64.132 L 332.294 65.971 C 335.886 66.04 338.805 67.824 338.821 69.962 C 338.837 72.102 335.946 73.776 332.354 73.709 Z " fill="rgb(56,133,249)"/><path d=" M 210.701 70.534 L 170.003 69.766 L 119.721 68.818 C 116.129 68.749 113.212 66.966 113.194 64.827 C 113.177 62.687 116.068 61.013 119.661 61.08 L 178.885 62.196 L 210.64 62.795 C 214.234 62.862 217.152 64.649 217.169 66.787 C 217.184 68.927 214.293 70.601 210.701 70.534 Z " fill="rgb(230,76,60)"/><path d=" M 93.727 67.944 L 87.23 67.822 C 83.637 67.755 80.717 65.971 80.702 63.83 C 80.686 61.691 83.577 60.016 87.17 60.083 L 93.667 60.206 C 97.262 60.275 100.179 62.059 100.197 64.198 C 100.214 66.337 97.323 68.011 93.727 67.944 Z " fill="rgb(230,76,60)"/><path d=" M 144.02 85.093 L 85.531 83.991 C 81.939 83.924 79.021 82.14 79.004 79.999 C 78.987 77.86 81.878 76.185 85.472 76.252 L 143.959 77.357 C 147.552 77.424 150.469 79.208 150.487 81.348 C 150.502 83.488 147.611 85.162 144.02 85.093 Z " fill="rgb(56,133,249)"/><path d=" M 184.828 84.691 L 171.829 84.447 C 168.236 84.379 165.317 82.595 165.3 80.455 C 165.285 78.317 168.176 76.64 171.768 76.708 L 184.767 76.955 C 188.36 77.021 191.277 78.805 191.295 80.946 C 191.31 83.085 188.419 84.76 184.828 84.691 Z " fill="rgb(109,163,245)"/><path d=" M 301.798 87.247 L 210.821 85.531 C 207.226 85.464 204.308 83.68 204.291 81.539 C 204.275 79.4 207.166 77.725 210.761 77.792 L 301.738 79.508 C 305.333 79.577 308.25 81.361 308.266 83.5 C 308.284 85.639 305.39 87.316 301.798 87.247 Z " fill="rgb(0,150,136)"/><path d=" M 171.949 99.875 L 87.47 98.282 C 83.875 98.215 80.958 96.429 80.941 94.29 C 80.923 92.15 83.814 90.476 87.409 90.543 L 171.889 92.136 C 175.484 92.206 178.401 93.99 178.417 96.128 C 178.435 98.268 175.544 99.942 171.949 99.875 Z " fill="rgb(109,163,245)"/><path d=" M 262.926 101.441 L 197.942 100.215 C 194.348 100.147 191.43 98.362 191.415 96.224 C 191.397 94.084 194.29 92.41 197.883 92.477 L 262.866 93.701 C 266.461 93.77 269.378 95.554 269.397 97.694 C 269.412 99.833 266.521 101.508 262.926 101.441 Z " fill="rgb(0,150,136)"/><path d=" M 289.04 116.893 L 237.052 115.914 C 233.46 115.846 230.54 114.061 230.525 111.922 C 230.509 109.783 233.4 108.108 236.992 108.175 L 288.98 109.155 C 292.574 109.224 295.492 111.008 295.507 113.147 C 295.526 115.286 292.635 116.963 289.04 116.893 Z " fill="rgb(109,163,245)"/><path d=" M 209.242 116.548 L 118.262 114.832 C 114.67 114.764 111.753 112.979 111.735 110.84 C 111.719 108.701 114.611 107.024 118.203 107.093 L 209.182 108.809 C 212.775 108.876 215.695 110.66 215.71 112.802 C 215.725 114.94 212.835 116.615 209.242 116.548 Z " fill="rgb(56,133,249)"/><path d=" M 94.088 113.08 L 87.59 112.957 C 83.995 112.89 81.077 111.105 81.062 108.967 C 81.044 106.826 83.935 105.151 87.53 105.22 L 94.027 105.342 C 97.622 105.41 100.54 107.194 100.556 109.333 C 100.573 111.474 97.683 113.148 94.088 113.08 Z " fill="rgb(0,150,136)"/><path d=" M 146.195 129.352 L 87.709 128.25 C 84.115 128.181 81.197 126.397 81.179 124.257 C 81.164 122.119 84.055 120.444 87.65 120.511 L 146.135 121.614 C 149.727 121.682 152.647 123.466 152.663 125.605 C 152.679 127.744 149.788 129.421 146.195 129.352 Z " fill="rgb(109,163,245)"/><path d=" M 184.307 130.896 L 171.311 130.653 C 167.716 130.584 164.799 128.8 164.781 126.66 C 164.765 124.521 167.657 122.845 171.251 122.913 L 184.247 123.159 C 187.842 123.226 190.759 125.01 190.774 127.151 C 190.792 129.291 187.901 130.965 184.307 130.896 Z " fill="rgb(56,133,249)"/><path d=" M 308.656 132.535 L 211.179 130.697 C 207.586 130.63 204.666 128.846 204.651 126.707 C 204.636 124.566 207.527 122.892 211.118 122.96 L 308.595 124.799 C 312.188 124.866 315.108 126.65 315.124 128.788 C 315.139 130.93 312.249 132.604 308.656 132.535 Z " fill="rgb(230,76,60)"/><path d=" M 170.49 145.889 L 86.011 144.295 C 82.417 144.227 79.499 142.443 79.484 140.304 C 79.466 138.165 82.356 136.49 85.951 136.557 L 170.43 138.15 C 174.025 138.219 176.942 140.003 176.958 142.142 C 176.977 144.281 174.086 145.956 170.49 145.889 Z " fill="rgb(56,133,249)"/><path d=" M 263.286 146.576 L 198.303 145.351 C 194.708 145.284 191.791 143.498 191.773 141.359 C 191.757 139.22 194.648 137.545 198.243 137.613 L 263.226 138.839 C 266.821 138.906 269.739 140.69 269.754 142.829 C 269.772 144.971 266.878 146.644 263.286 146.576 Z " fill="rgb(0,150,136)"/><path d=" M 334.77 147.784 L 289.28 146.927 C 285.685 146.859 282.768 145.073 282.752 142.934 C 282.734 140.795 285.625 139.121 289.22 139.188 L 334.71 140.046 C 338.302 140.113 341.22 141.897 341.237 144.039 C 341.253 146.178 338.362 147.852 334.77 147.784 Z " fill="rgb(230,76,60)"/><path d=" M 263.406 161.417 L 237.412 160.926 C 233.817 160.859 230.9 159.073 230.885 156.934 C 230.867 154.795 233.758 153.121 237.353 153.188 L 263.346 153.678 C 266.939 153.745 269.859 155.529 269.874 157.67 C 269.892 159.809 266.998 161.484 263.406 161.417 Z " fill="rgb(56,133,249)"/><path d=" M 211.419 160.805 L 120.442 159.089 C 116.847 159.022 113.929 157.238 113.912 155.097 C 113.896 152.958 116.787 151.283 120.382 151.353 L 211.359 153.068 C 214.951 153.135 217.871 154.919 217.887 157.058 C 217.904 159.199 215.011 160.873 211.419 160.805 Z " fill="rgb(230,76,60)"/><path d=" M 94.448 158.217 L 87.947 158.094 C 84.355 158.025 81.438 156.241 81.42 154.102 C 81.404 151.963 84.296 150.287 87.887 150.356 L 94.387 150.478 C 97.981 150.545 100.897 152.329 100.916 154.47 C 100.931 156.609 98.04 158.284 94.448 158.217 Z " fill="rgb(109,163,245)"/><path d=" M 146.554 174.487 L 88.068 173.385 C 84.475 173.318 81.555 171.534 81.54 169.393 C 81.524 167.254 84.415 165.579 88.007 165.646 L 146.492 166.75 C 150.088 166.818 153.005 168.601 153.023 170.741 C 153.039 172.882 150.148 174.556 146.554 174.487 Z " fill="rgb(0,150,136)"/><path d=" M 184.585 175.287 L 171.587 175.04 C 167.996 174.973 165.075 173.188 165.06 171.049 C 165.044 168.91 167.935 167.235 171.528 167.302 L 184.526 167.548 C 188.118 167.614 191.035 169.401 191.053 171.54 C 191.069 173.678 188.178 175.354 184.585 175.287 Z " fill="rgb(56,133,249)"/><path d=" M 257.026 176.444 L 234.282 176.017 L 211.538 175.588 C 207.944 175.519 205.026 173.735 205.011 171.596 C 204.993 169.457 207.884 167.782 211.479 167.849 L 238.339 168.356 L 256.969 168.706 C 260.561 168.775 263.478 170.559 263.497 172.699 C 263.511 174.839 260.621 176.514 257.026 176.444 Z " fill="rgb(230,76,60)"/><path d=" M 289.52 176.836 L 283.019 176.713 C 279.428 176.644 276.51 174.86 276.492 172.721 C 276.476 170.582 279.367 168.908 282.962 168.975 L 289.461 169.097 C 293.052 169.166 295.973 170.951 295.988 173.089 C 296.004 175.229 293.113 176.903 289.52 176.836 Z " fill="rgb(109,163,245)"/></g></g></svg>