<?xml version="1.0" standalone="no"?><!-- Generator: Gravit.io --><svg xmlns="http://www.w3.org/2000/svg" xmlns:xlink="http://www.w3.org/1999/xlink" style="isolation:isolate" viewBox="0 0 720 814" width="720" height="814"><defs><clipPath id="_clipPath_t3lllaAOGM3HfvvF9k9cqDLWjnlA4Cvh"><rect width="720" height="814"/></clipPath></defs><g clip-path="url(#_clipPath_t3lllaAOGM3HfvvF9k9cqDLWjnlA4Cvh)"><g id="Group"><path d=" M 0 433 L 720 40 L 720 66 L 0 461 L 0 433 Z " fill="rgb(47,47,47)"/><path d=" M 0 393 L 720 0 L 720 14 L 0 409 L 0 393 Z " fill="rgb(47,47,47)"/><path d=" M 0 576 L 720 183 L 720 197 L 0 592 L 0 576 Z " fill="rgb(47,47,47)"/><path d=" M 0 693 L 720 300 L 720 305 L 0 700 L 0 693 Z " fill="rgb(47,47,47)"/><path d=" M 0 807 L 720 414 L 720 419 L 0 814 L 0 807 Z " fill="rgb(47,47,47)"/><path d=" M 0 767 L 720 374 L 720 391 L 0 786 L 0 767 Z " fill="rgb(47,47,47)"/></g></g></svg>