<?xml version="1.0" standalone="no"?><!-- Generator: Gravit.io --><svg xmlns="http://www.w3.org/2000/svg" xmlns:xlink="http://www.w3.org/1999/xlink" style="isolation:isolate" viewBox="0 0 24.9 24.241" width="24.9" height="24.241"><defs><clipPath id="_clipPath_zEPjJt4zD9lvhgoVWfo7JR7NvSUSyRw3"><rect width="24.9" height="24.241"/></clipPath></defs><g clip-path="url(#_clipPath_zEPjJt4zD9lvhgoVWfo7JR7NvSUSyRw3)"><path d=" M 12.45 0 C 5.574 0 0 5.566 0 12.427 C 0.004 17.782 3.433 22.534 8.514 24.226 C 9.136 24.339 9.577 23.703 9.577 23.224 C 9.577 22.933 9.585 22.58 9.577 21.548 C 6.112 22.295 5.028 19.872 5.028 19.872 C 4.459 18.436 3.771 18.024 3.771 18.024 C 2.641 17.254 3.854 17.277 3.854 17.277 C 5.103 17.359 5.746 18.436 5.746 18.436 C 6.704 20.112 8.866 19.949 9.577 19.633 C 9.577 18.87 9.659 18.315 9.868 17.964 C 5.957 17.275 3.823 15.015 3.831 11.889 C 3.838 10.04 4.474 8.604 5.507 7.541 C 5.059 6.974 4.75 5.028 5.671 3.831 C 7.983 3.831 9.36 5.499 9.36 5.499 C 9.36 5.499 10.445 5.028 12.444 5.028 C 14.448 5.028 15.524 5.476 15.524 5.476 C 15.524 5.476 16.909 3.831 19.221 3.831 C 20.14 5.028 19.834 6.972 19.476 7.504 C 20.464 8.545 21.069 9.981 21.069 11.889 C 21.069 15.017 18.943 17.277 15.04 17.957 C 15.285 18.33 15.323 18.855 15.323 19.633 L 15.323 23.224 C 15.323 23.703 15.758 24.346 16.394 24.226 C 21.472 22.532 24.897 17.78 24.9 12.427 C 24.9 5.566 19.326 0 12.45 0 Z " fill="rgb(209,209,209)"/></g></svg>