<?xml version="1.0" standalone="no"?><!-- Generator: Gravit.io --><svg xmlns="http://www.w3.org/2000/svg" xmlns:xlink="http://www.w3.org/1999/xlink" style="isolation:isolate" viewBox="0 0 792 792" width="792" height="792"><defs><clipPath id="_clipPath_Te6p8NRBMpcEmBhr9b9JJPiLu2dmvEv2"><rect width="792" height="792"/></clipPath></defs><g clip-path="url(#_clipPath_Te6p8NRBMpcEmBhr9b9JJPiLu2dmvEv2)"><clipPath id="_clipPath_0r2Q9uOa3T42lla40frKtACrvLOucGRu"><rect x="0" y="0" width="792" height="792" transform="matrix(1,0,0,1,0,0)" fill="rgb(255,255,255)"/></clipPath><g clip-path="url(#_clipPath_0r2Q9uOa3T42lla40frKtACrvLOucGRu)"><g id="Group"><g id="Group"><g id="Group"><g id="Group"><path d=" M 324.082 693.799 C 317.25 693.799 311.681 688.256 311.681 681.424 C 311.681 674.592 317.224 669.049 324.082 669.049 L 467.942 669.049 C 474.774 669.049 480.317 674.592 480.317 681.424 C 480.317 688.256 474.774 693.799 467.942 693.799 L 324.082 693.799 L 324.082 693.799 L 324.082 693.799 Z " fill="rgb(185,185,185)"/><path d=" M 340.066 742.912 C 333.234 742.912 327.691 737.369 327.691 730.537 C 327.691 723.705 333.26 718.162 340.066 718.162 L 451.957 718.162 C 458.789 718.162 464.332 723.705 464.332 730.537 C 464.332 737.369 458.789 742.912 451.957 742.912 L 340.066 742.912 L 340.066 742.912 L 340.066 742.912 Z " fill="rgb(185,185,185)"/><path d=" M 384.358 571.828 C 384.358 578.635 378.841 584.151 372.035 584.151 C 365.229 584.151 359.712 578.633 359.712 571.828 C 359.66 519.724 358.165 480.795 350.972 444.752 C 343.857 409.123 331.12 376.097 308.511 335.362 C 305.211 329.407 307.351 321.904 313.281 318.604 C 319.237 315.304 326.739 317.444 330.065 323.374 C 354.067 366.635 367.654 401.853 375.233 439.932 C 382.734 477.521 384.307 517.894 384.358 571.828 Z " fill="rgb(185,185,185)"/><path d=" M 432.312 571.828 C 432.312 578.635 426.794 584.151 419.989 584.151 C 413.184 584.151 407.666 578.633 407.666 571.828 C 407.719 517.892 409.29 477.546 416.792 439.932 C 424.372 401.853 437.959 366.637 461.961 323.374 C 465.262 317.419 472.789 315.279 478.72 318.604 C 484.676 321.904 486.788 329.432 483.49 335.362 C 460.88 376.096 448.144 409.149 441.028 444.752 C 433.859 480.795 432.339 519.725 432.312 571.828 Z " fill="rgb(185,185,185)"/><path d=" M 315.523 341.112 C 309.026 339.049 305.468 332.089 307.531 325.591 C 309.619 319.094 316.554 315.536 323.052 317.599 C 331.663 320.384 339.114 324.122 345.997 327.577 L 346.667 327.938 C 357.417 333.352 366.364 337.58 373.015 332.166 L 388.226 319.765 C 393.511 315.486 401.299 316.285 405.577 321.57 C 409.857 326.855 409.057 334.641 403.772 338.921 L 388.561 351.322 C 369.612 366.739 354.117 359.237 335.452 349.878 L 334.885 349.62 C 328.852 346.577 322.303 343.303 315.523 341.112 Z " fill="rgb(185,185,185)"/><path d=" M 408.388 60.328 C 408.388 67.16 402.845 72.703 396.012 72.703 C 389.18 72.703 383.637 67.16 383.637 60.328 L 383.637 12.375 C 383.637 5.543 389.18 0 396.012 0 C 402.846 0 408.388 5.543 408.388 12.375 L 408.388 60.328 L 408.388 60.328 L 408.388 60.328 Z " fill="rgb(185,185,185)"/><path d=" M 468.974 317.599 C 475.471 315.511 482.432 319.095 484.495 325.591 C 486.583 332.088 483 339.049 476.503 341.112 C 469.724 343.303 463.175 346.603 457.115 349.646 L 456.549 349.904 C 437.908 359.262 422.389 366.791 403.44 351.347 L 388.229 338.947 C 382.944 334.667 382.145 326.881 386.424 321.596 C 390.704 316.311 398.49 315.512 403.776 319.791 L 418.987 332.192 C 425.639 337.606 434.559 333.352 445.336 327.964 L 446.008 327.603 C 452.912 324.122 460.362 320.384 468.974 317.599 Z " fill="rgb(185,185,185)"/><path d=" M 551.706 192.354 C 591.538 232.186 616.211 287.255 616.211 348.047 C 616.211 371.818 612.396 394.788 605.383 416.317 C 598.139 438.566 587.388 459.32 573.853 477.832 C 551.14 508.898 532.707 529.291 518.398 545.145 C 492.642 573.633 481.35 586.113 481.35 627.775 C 481.35 634.607 475.807 640.15 468.975 640.15 L 468.664 640.15 L 396.554 640.15 L 324.109 640.15 C 317.277 640.15 311.708 634.607 311.708 627.775 C 311.708 586.525 300.184 573.918 274.609 545.893 L 274.583 545.868 L 274.557 545.893 C 260.094 530.064 241.48 509.67 218.199 477.831 C 204.664 459.319 193.913 438.54 186.669 416.291 C 179.656 394.789 175.841 371.792 175.841 348.048 C 175.841 318.297 181.797 289.834 192.573 263.846 L 192.805 263.356 C 203.994 236.543 220.288 212.412 240.371 192.355 C 260.584 172.143 284.844 155.797 311.863 144.608 L 311.863 144.582 C 337.85 133.806 366.313 127.85 396.065 127.85 C 425.767 127.85 454.202 133.806 480.216 144.582 C 507.182 155.771 531.493 172.142 551.706 192.354 L 551.706 192.354 L 551.706 192.354 L 551.706 192.354 Z  M 591.435 348.047 C 591.435 294.087 569.545 245.232 534.201 209.859 C 516.13 191.786 494.601 177.246 470.779 167.397 C 447.834 157.884 422.568 152.625 396.012 152.625 C 369.483 152.625 344.218 157.884 321.298 167.397 L 321.298 167.372 L 321.246 167.397 C 297.424 177.246 275.923 191.786 257.85 209.859 C 239.958 227.751 225.495 249.098 215.62 272.662 L 215.362 273.332 C 205.875 296.251 200.59 321.517 200.59 348.046 C 200.59 369.238 203.967 389.657 210.155 408.657 C 216.626 428.43 226.139 446.84 238.102 463.236 C 260.455 493.812 278.656 513.742 292.81 529.261 L 292.784 529.286 C 320.318 559.373 334.008 574.429 336.148 615.421 L 396.502 615.421 L 456.856 615.421 C 458.97 574.146 472.402 559.244 500.065 528.667 C 513.884 513.379 531.647 493.708 553.897 463.286 C 565.859 446.915 575.373 428.507 581.818 408.733 C 588.058 389.658 591.435 369.265 591.435 348.047 Z " fill="rgb(185,185,185)"/><path d=" M 356.051 792 C 349.219 792 343.676 786.457 343.676 779.625 C 343.676 772.793 349.219 767.25 356.051 767.25 L 435.974 767.25 C 442.806 767.25 448.349 772.793 448.349 779.625 C 448.349 786.457 442.806 792 435.974 792 L 356.051 792 L 356.051 792 L 356.051 792 Z " fill="rgb(185,185,185)"/><path d=" M 547.839 104.285 C 544.46 110.163 536.906 112.2 531.002 108.823 C 525.124 105.446 523.089 97.892 526.466 91.988 L 550.443 50.455 C 553.82 44.577 561.375 42.54 567.278 45.917 C 573.182 49.294 575.193 56.848 571.816 62.752 L 547.839 104.285 L 547.839 104.285 L 547.839 104.285 Z " fill="rgb(185,185,185)"/><path d=" M 265.533 92.013 C 268.91 97.891 266.9 105.445 260.995 108.823 C 255.117 112.2 247.563 110.163 244.186 104.285 L 220.209 62.751 C 216.832 56.873 218.868 49.319 224.747 45.942 C 230.651 42.565 238.205 44.601 241.582 50.479 L 265.533 92.013 L 265.533 92.013 L 265.533 92.013 Z " fill="rgb(185,185,185)"/><path d=" M 157.69 190.781 C 163.568 194.158 165.605 201.712 162.228 207.616 C 158.851 213.494 151.296 215.531 145.418 212.154 L 103.884 188.177 C 97.98 184.8 95.944 177.246 99.321 171.368 C 102.698 165.464 110.252 163.453 116.156 166.83 L 157.69 190.781 L 157.69 190.781 L 157.69 190.781 Z " fill="rgb(185,185,185)"/><path d=" M 646.606 212.154 C 640.702 215.531 633.148 213.495 629.771 207.616 C 626.393 201.712 628.43 194.158 634.308 190.781 L 675.842 166.804 C 681.744 163.427 689.298 165.463 692.677 171.342 C 696.054 177.22 694.018 184.8 688.139 188.177 L 646.606 212.154 L 646.606 212.154 L 646.606 212.154 Z " fill="rgb(185,185,185)"/><path d=" M 267.441 396.954 C 270.071 403.219 267.132 410.463 260.867 413.093 C 254.602 415.723 247.358 412.783 244.728 406.519 C 240.525 396.569 237.251 386.076 235.085 375.248 C 232.945 364.549 231.785 353.618 231.785 342.635 C 231.785 335.803 237.354 330.26 244.16 330.26 C 250.992 330.26 256.535 335.829 256.535 342.635 C 256.535 352.303 257.489 361.61 259.268 370.427 C 261.099 379.603 263.883 388.523 267.441 396.954 L 267.441 396.954 L 267.441 396.954 L 267.441 396.954 Z  M 267.441 288.286 C 264.812 294.551 257.567 297.49 251.302 294.86 C 245.037 292.23 242.098 284.985 244.728 278.721 C 248.878 268.898 253.957 259.591 259.758 250.954 L 259.784 250.928 L 259.758 250.903 C 265.714 242.086 272.468 233.887 279.867 226.488 C 287.189 219.166 295.388 212.411 304.307 206.405 L 304.307 206.379 C 312.867 200.604 322.225 195.525 332.125 191.349 C 342.051 187.146 352.518 183.872 363.372 181.706 C 374.071 179.54 385.054 178.406 396.011 178.406 C 402.845 178.406 408.387 183.949 408.387 190.781 C 408.387 197.613 402.844 203.156 396.011 203.156 C 386.317 203.156 376.985 204.11 368.193 205.863 C 358.989 207.694 350.094 210.504 341.69 214.061 C 333.518 217.516 325.628 221.821 318.126 226.874 L 318.126 226.874 L 318.1 226.874 C 310.804 231.772 303.843 237.547 297.398 243.993 C 291.03 250.361 285.255 257.348 280.279 264.747 L 280.253 264.721 C 275.227 272.173 270.921 280.062 267.441 288.286 Z " fill="rgb(185,185,185)"/></g></g></g></g></g></g></svg>