<?xml version="1.0" encoding="UTF-8" standalone="no"?>
<svg
   xmlns:dc="http://purl.org/dc/elements/1.1/"
   xmlns:cc="http://creativecommons.org/ns#"
   xmlns:rdf="http://www.w3.org/1999/02/22-rdf-syntax-ns#"
   xmlns:svg="http://www.w3.org/2000/svg"
   xmlns="http://www.w3.org/2000/svg"
   xmlns:sodipodi="http://sodipodi.sourceforge.net/DTD/sodipodi-0.dtd"
   xmlns:inkscape="http://www.inkscape.org/namespaces/inkscape"
   enable-background="new 0 0 56.693 56.693"
   height="25.000992"
   id="Layer_1"
   version="1.1"
   viewBox="0 0 25 25.000991"
   width="25"
   xml:space="preserve"
   sodipodi:docname="iconfinder_51-linkedin_104452.svg"
   inkscape:version="0.92.5 (2060ec1f9f, 2020-04-08)"><metadata
     id="metadata994"><rdf:RDF><cc:Work
         rdf:about=""><dc:format>image/svg+xml</dc:format><dc:type
           rdf:resource="http://purl.org/dc/dcmitype/StillImage" /><dc:title></dc:title></cc:Work></rdf:RDF></metadata><defs
     id="defs992" /><sodipodi:namedview
     pagecolor="#ffffff"
     bordercolor="#666666"
     borderopacity="1"
     objecttolerance="10"
     gridtolerance="10"
     guidetolerance="10"
     inkscape:pageopacity="0"
     inkscape:pageshadow="2"
     inkscape:window-width="1366"
     inkscape:window-height="742"
     id="namedview990"
     showgrid="false"
     fit-margin-top="0"
     fit-margin-left="0"
     fit-margin-right="0"
     fit-margin-bottom="0"
     inkscape:zoom="8.3608204"
     inkscape:cx="9.9721721"
     inkscape:cy="6.9209187"
     inkscape:window-x="0"
     inkscape:window-y="0"
     inkscape:window-maximized="1"
     inkscape:current-layer="Layer_1" /><path
     style="fill:#d1d1d1;fill-opacity:1;stroke-width:0.50763434"
     d="M 12.500496,0 C 5.5966686,0 0,5.596669 0,12.500496 0,19.405339 5.5966686,25.000992 12.500496,25.000992 19.403308,25.000992 25,19.405339 25,12.500496 25,5.597177 19.4028,0 12.500496,0 Z M 6.5437238,5.541345 H 18.430498 c 0.569058,0 1.031132,0.451501 1.031132,1.006345 v 12.024589 h 9.92e-4 c 0,0.556367 -0.462074,1.006345 -1.031133,1.006345 H 6.5437238 c -0.5700733,0 -1.0311322,-0.450486 -1.0311322,-1.006345 V 6.54769 c 0,-0.555352 0.4610589,-1.006345 1.0311322,-1.006345 z m 2.157446,2.356732 c -0.720333,0 -1.191751,0.473726 -1.191751,1.095578 0,0.607638 0.456348,1.095578 1.16399,1.095578 h 0.01388 c 0.734546,0 1.191751,-0.48794 1.191751,-1.095578 -0.01371,-0.621852 -0.45703,-1.095578 -1.17787,-1.095578 z m 6.2115802,2.907991 c -1.117303,0 -1.618457,0.6135 -1.898671,1.046005 v 0.02082 h -0.01388 c 0.0051,-0.0061 0.01033,-0.01371 0.01388,-0.02082 v -0.897284 h -2.106881 c 0.02792,0.593932 0,6.337498 0,6.337498 h 2.106881 v -3.540551 c 0,-0.190363 0.01356,-0.377538 0.0694,-0.513584 0.152798,-0.37768 0.499465,-0.771366 1.080706,-0.771366 0.763482,0 1.067817,0.58186 1.067817,1.43367 v 3.390839 h 2.106881 v -3.632758 c -5.08e-4,-1.947285 -1.040294,-2.852469 -2.426136,-2.852469 z m -7.2784052,0.148721 v 6.337498 h 2.106881 v -6.337498 z"
     id="path979"
     inkscape:connector-curvature="0" /></svg>