<?xml version="1.0" standalone="no"?><!-- Generator: Gravit.io --><svg xmlns="http://www.w3.org/2000/svg" xmlns:xlink="http://www.w3.org/1999/xlink" style="isolation:isolate" viewBox="0 0 24.871 20.4" width="24.871" height="20.4"><defs><clipPath id="_clipPath_HQxJI1gyDWSzq2XQdw4mRcL1bsIPU4S9"><rect width="24.871" height="20.4"/></clipPath></defs><g clip-path="url(#_clipPath_HQxJI1gyDWSzq2XQdw4mRcL1bsIPU4S9)"><path d=" M 17.017 0 C 14.044 0 11.626 2.418 11.626 5.391 C 11.626 5.57 11.67 5.744 11.688 5.919 C 8.011 5.568 4.76 3.797 2.552 1.087 C 2.449 0.957 2.288 0.887 2.123 0.899 C 1.958 0.911 1.81 1.005 1.729 1.149 C 1.249 1.97 0.997 2.903 0.998 3.854 C 0.998 5.048 1.426 6.141 2.086 7.039 C 1.958 6.982 1.818 6.951 1.697 6.883 C 1.544 6.801 1.358 6.805 1.209 6.894 C 1.059 6.983 0.967 7.144 0.967 7.318 L 0.967 7.38 C 0.967 9.212 1.915 10.802 3.314 11.777 C 3.298 11.775 3.282 11.781 3.266 11.777 C 3.096 11.748 2.922 11.809 2.808 11.939 C 2.694 12.069 2.656 12.249 2.707 12.415 C 3.263 14.141 4.681 15.46 6.436 15.941 C 5.038 16.773 3.416 17.262 1.666 17.262 C 1.288 17.262 0.925 17.242 0.563 17.2 C 0.33 17.168 0.107 17.305 0.029 17.526 C -0.05 17.747 0.037 17.994 0.237 18.116 C 2.553 19.608 5.25 20.401 8.006 20.4 C 12.645 20.4 16.285 18.462 18.726 15.692 C 21.167 12.923 22.439 9.326 22.439 5.966 C 22.439 5.825 22.428 5.686 22.424 5.547 C 23.335 4.85 24.148 4.032 24.785 3.076 C 24.911 2.891 24.898 2.645 24.752 2.474 C 24.608 2.304 24.367 2.251 24.164 2.346 C 23.907 2.461 23.609 2.472 23.34 2.563 C 23.694 2.091 23.996 1.583 24.179 1.01 C 24.241 0.813 24.174 0.598 24.012 0.47 C 23.85 0.343 23.626 0.329 23.449 0.435 C 22.601 0.938 21.661 1.291 20.668 1.507 C 19.705 0.606 18.436 0 17.017 0 Z  M 17.017 0.994 C 18.285 0.994 19.431 1.536 20.233 2.392 C 20.354 2.517 20.53 2.569 20.699 2.532 C 21.337 2.406 21.961 2.218 22.564 1.973 C 22.219 2.442 21.786 2.837 21.289 3.138 C 21.063 3.249 20.955 3.512 21.039 3.75 C 21.122 3.988 21.37 4.125 21.616 4.07 C 22.113 4.011 22.556 3.808 23.029 3.682 C 22.606 4.142 22.137 4.558 21.631 4.925 C 21.494 5.026 21.417 5.19 21.43 5.36 C 21.437 5.562 21.445 5.762 21.445 5.966 C 21.445 9.074 20.253 12.447 17.98 15.024 C 15.708 17.601 12.371 19.406 8.006 19.406 C 6.022 19.406 4.15 18.967 2.458 18.193 C 4.557 18.032 6.491 17.291 8.052 16.066 C 8.271 16.071 8.468 15.933 8.537 15.725 C 8.606 15.516 8.529 15.288 8.35 15.162 C 8.17 15.036 7.929 15.043 7.757 15.18 C 6.118 15.15 4.745 14.196 4.013 12.849 L 4.091 12.849 C 4.582 12.849 5.068 12.787 5.52 12.662 C 5.737 12.598 5.887 12.396 5.879 12.169 C 5.871 11.941 5.711 11.748 5.489 11.699 C 3.72 11.341 2.393 9.9 2.086 8.11 C 2.587 8.283 3.1 8.418 3.656 8.436 C 3.882 8.45 4.089 8.308 4.159 8.092 C 4.228 7.876 4.142 7.64 3.95 7.519 C 2.726 6.702 1.991 5.326 1.993 3.853 C 1.993 3.286 2.14 2.765 2.335 2.268 C 4.821 4.997 8.301 6.809 12.232 7.007 C 12.387 7.015 12.538 6.951 12.639 6.832 C 12.74 6.713 12.779 6.553 12.744 6.401 C 12.664 6.07 12.622 5.731 12.62 5.391 C 12.618 4.224 13.08 3.104 13.905 2.279 C 14.73 1.454 15.85 0.992 17.017 0.994 L 17.017 0.994 Z " fill="rgb(209,209,209)"/></g></svg>